<?xml version="1.0" encoding="UTF-8" standalone="no"?><!DOCTYPE svg PUBLIC "-//W3C//DTD SVG 1.1//EN" "http://www.w3.org/Graphics/SVG/1.1/DTD/svg11.dtd"><svg width="100%" height="100%" viewBox="0 0 700 800" version="1.1" xmlns="http://www.w3.org/2000/svg" xmlns:xlink="http://www.w3.org/1999/xlink" xml:space="preserve" xmlns:serif="http://www.serif.com/" style="fill-rule:evenodd;clip-rule:evenodd;stroke-linejoin:round;"><g id="g3879"><path id="path3773" d="M400.264,383.957c37.452,-14.378 62.308,-50.547 62.308,-90.663c0,-53.274 -43.84,-97.114 -97.114,-97.114c-53.275,0 -97.115,43.84 -97.115,97.114c0,40.116 24.856,76.285 62.308,90.663l-65.415,170.454c-107.87,-41.403 -179.468,-145.572 -179.468,-261.114c0,-153.432 126.257,-279.689 279.69,-279.689c153.432,0 279.689,126.257 279.689,279.689c0,115.542 -71.598,219.711 -179.468,261.114l-65.415,-170.454Z" style="fill:#3fa652;fill-rule:nonzero;stroke:#21552a;stroke-width:23.29px;"/><g id="text7890.-3.-1"><path d="M45.417,670.199c-8.346,0 -15.01,-2.821 -19.991,-8.463c-4.977,-5.642 -7.469,-13.193 -7.469,-22.652c0,-9.568 2.501,-17.138 7.497,-22.707c4.996,-5.569 11.777,-8.355 20.339,-8.355c8.562,0 15.342,2.786 20.338,8.355c5,5.569 7.498,13.101 7.498,22.598c0,9.715 -2.508,17.348 -7.523,22.898c-5.015,5.55 -11.911,8.326 -20.689,8.326Zm0.163,-8.106c11.21,0 16.817,-7.707 16.817,-23.118c0,-15.229 -5.535,-22.844 -16.604,-22.844c-11.032,0 -16.551,7.65 -16.551,22.953c0,15.337 5.447,23.009 16.338,23.009Z" style="fill:#dfdfdf;fill-rule:nonzero;"/><path d="M90.179,690.468l0,-81.131l10.588,0l0,11.176c4.332,-8.326 10.834,-12.491 19.506,-12.491c7.021,0 12.546,2.611 16.575,7.835c4.032,5.221 6.045,12.363 6.045,21.42c0,9.858 -2.282,17.811 -6.849,23.856c-4.568,6.044 -10.578,9.066 -18.029,9.066c-6.915,0 -12.665,-2.703 -17.248,-8.106l0,28.375l-10.588,0Zm10.588,-35.826c5.444,4.965 10.637,7.451 15.583,7.451c10.174,0 15.261,-7.908 15.261,-23.721c0,-13.953 -4.514,-20.926 -13.542,-20.926c-5.911,0 -11.68,3.268 -17.302,9.804l0,27.392Z" style="fill:#dfdfdf;fill-rule:nonzero;"/><path d="M202.218,666.912c-7.093,2.193 -13.163,3.287 -18.216,3.287c-8.596,0 -15.608,-2.91 -21.036,-8.738c-5.429,-5.824 -8.143,-13.374 -8.143,-22.652c0,-9.019 2.392,-16.416 7.175,-22.186c4.784,-5.77 10.901,-8.655 18.351,-8.655c7.056,0 12.512,2.556 16.363,7.669c3.85,5.112 5.776,12.382 5.776,21.803l-0.054,3.342l-36.807,0c1.54,14.134 8.327,21.2 20.363,21.2c4.408,0 9.817,-1.203 16.228,-3.616l0,8.546Zm-36.109,-34.237l25.738,0c0,-11.067 -4.047,-16.601 -12.143,-16.601c-8.133,0 -12.662,5.534 -13.595,16.601Z" style="fill:#dfdfdf;fill-rule:nonzero;"/><path d="M220.757,668.83l0,-59.493l10.587,0l0,11.176c5.588,-8.326 12.431,-12.491 20.527,-12.491c5.052,0 9.081,1.634 12.093,4.902c3.008,3.271 4.514,7.663 4.514,13.177l0,42.729l-10.588,0l0,-39.225c0,-4.416 -0.635,-7.566 -1.906,-9.449c-1.274,-1.88 -3.378,-2.821 -6.314,-2.821c-6.486,0 -12.594,4.327 -18.326,12.985l0,38.51l-10.587,0Z" style="fill:#dfdfdf;fill-rule:nonzero;"/></g><g id="text7890.-3.-1.-1"><path d="M359.943,668.192c-4.837,0 -10.709,-1.149 -17.625,-3.45l0,-9.915c6.916,3.504 12.932,5.259 18.057,5.259c3.043,0 5.569,-0.842 7.576,-2.521c2.006,-1.679 3.008,-3.778 3.008,-6.3c0,-3.689 -2.811,-6.737 -8.437,-9.149l-6.179,-2.684c-9.135,-3.871 -13.702,-9.44 -13.702,-16.707c0,-5.186 1.8,-9.268 5.4,-12.245c3.6,-2.978 8.537,-4.465 14.804,-4.465c3.262,0 7.291,0.457 12.093,1.369l2.2,0.441l0,8.983c-5.91,-1.79 -10.602,-2.684 -14.077,-2.684c-6.806,0 -10.212,2.518 -10.212,7.561c0,3.249 2.58,5.987 7.739,8.214l5.106,2.193c5.769,2.483 9.851,5.103 12.252,7.86c2.401,2.757 3.6,6.201 3.6,10.327c0,5.221 -2.025,9.514 -6.073,12.874c-4.048,3.361 -9.225,5.039 -15.53,5.039Z" style="fill:#dfdfdf;fill-rule:nonzero;"/><path d="M423.407,668.192c-8.346,0 -15.011,-2.821 -19.991,-8.463c-4.978,-5.642 -7.47,-13.193 -7.47,-22.652c0,-9.568 2.501,-17.138 7.498,-22.707c4.996,-5.569 11.776,-8.355 20.338,-8.355c8.562,0 15.343,2.786 20.339,8.355c4.999,5.569 7.497,13.101 7.497,22.598c0,9.715 -2.507,17.348 -7.522,22.898c-5.015,5.55 -11.912,8.326 -20.689,8.326Zm0.159,-8.106c11.214,0 16.82,-7.707 16.82,-23.118c0,-15.229 -5.534,-22.844 -16.604,-22.844c-11.035,0 -16.55,7.65 -16.55,22.953c0,15.337 5.447,23.009 16.334,23.009Z" style="fill:#dfdfdf;fill-rule:nonzero;"/><path d="M504.654,666.823l0,-11.176c-5.622,8.365 -12.446,12.545 -20.473,12.545c-5.087,0 -9.134,-1.634 -12.143,-4.902c-3.008,-3.268 -4.514,-7.678 -4.514,-13.231l0,-42.729l10.587,0l0,39.225c0,4.455 0.636,7.624 1.907,9.504c1.271,1.88 3.393,2.821 6.367,2.821c6.449,0 12.538,-4.328 18.269,-12.982l0,-38.568l10.588,0l0,59.493l-10.588,0Z" style="fill:#dfdfdf;fill-rule:nonzero;"/><path d="M536.466,666.823l0,-59.493l10.587,0l0,11.176c4.192,-8.326 10.281,-12.491 18.27,-12.491c1.076,0 2.203,0.093 3.387,0.275l0,10.078c-1.828,-0.619 -3.441,-0.929 -4.837,-0.929c-6.699,0 -12.306,4.053 -16.82,12.159l0,39.225l-10.587,0Z" style="fill:#dfdfdf;fill-rule:nonzero;"/><path d="M604.281,668.192c-7.879,0 -14.419,-2.977 -19.612,-8.929c-5.194,-5.952 -7.792,-13.458 -7.792,-22.515c0,-9.679 2.57,-17.221 7.71,-22.624c5.141,-5.406 12.316,-8.109 21.522,-8.109c4.549,0 9.636,0.638 15.261,1.918l0,9.038c-5.982,-1.787 -10.853,-2.684 -14.616,-2.684c-5.409,0 -9.751,2.075 -13.032,6.217c-3.277,4.145 -4.915,9.67 -4.915,16.573c0,6.682 1.684,12.088 5.05,16.215c3.368,4.126 7.776,6.191 13.22,6.191c4.836,0 9.817,-1.26 14.938,-3.782l0,9.316c-6.843,2.116 -12.753,3.175 -17.734,3.175Z" style="fill:#dfdfdf;fill-rule:nonzero;"/><path d="M680.642,664.905c-7.093,2.193 -13.166,3.287 -18.216,3.287c-8.599,0 -15.611,-2.91 -21.04,-8.738c-5.425,-5.824 -8.139,-13.375 -8.139,-22.652c0,-9.019 2.392,-16.416 7.172,-22.186c4.783,-5.77 10.9,-8.655 18.351,-8.655c7.059,0 12.512,2.556 16.363,7.669c3.853,5.112 5.779,12.382 5.779,21.803l-0.054,3.341l-36.811,0c1.54,14.135 8.33,21.201 20.367,21.201c4.405,0 9.814,-1.204 16.228,-3.616l0,8.546Zm-36.109,-34.237l25.738,0c0,-11.067 -4.048,-16.601 -12.146,-16.601c-8.13,0 -12.663,5.534 -13.592,16.601Z" style="fill:#dfdfdf;fill-rule:nonzero;"/></g><g id="text7890.-3.-1.-1.-4"><path d="M129.857,778.86l0,-59.494l10.584,0l0,59.494l-10.584,0Zm0,-70.287l0,-10.79l10.584,0l0,10.79l-10.584,0Z" style="fill:#dfdfdf;fill-rule:nonzero;"/><path d="M161.668,778.86l0,-59.494l10.584,0l0,11.176c5.591,-8.326 12.431,-12.491 20.53,-12.491c5.049,0 9.081,1.634 12.09,4.902c3.008,3.272 4.514,7.663 4.514,13.177l0,42.73l-10.587,0l0,-39.225c0,-4.417 -0.636,-7.567 -1.907,-9.45c-1.271,-1.88 -3.378,-2.821 -6.314,-2.821c-6.486,0 -12.594,4.327 -18.326,12.985l0,38.511l-10.584,0Z" style="fill:#dfdfdf;fill-rule:nonzero;"/><path d="M229.965,778.86l0,-59.494l10.588,0l0,59.494l-10.588,0Zm0,-70.287l0,-10.79l10.588,0l0,10.79l-10.588,0Z" style="fill:#dfdfdf;fill-rule:nonzero;"/><path d="M279.295,780.229c-5.372,0 -9.563,-1.571 -12.572,-4.711c-3.011,-3.14 -4.514,-7.506 -4.514,-13.094l0,-34.948l-7.31,0l0,-8.11l7.31,0l0,-10.793l10.584,-1.04l0,11.833l15.261,0l0,8.11l-15.261,0l0,32.976c0,7.78 3.297,11.671 9.889,11.671c1.396,0 3.099,-0.24 5.103,-0.715l0,7.452c-3.259,0.912 -6.089,1.369 -8.49,1.369Z" style="fill:#dfdfdf;fill-rule:nonzero;"/><path d="M302.939,778.86l0,-59.494l10.588,0l0,59.494l-10.588,0Zm0,-70.287l0,-10.79l10.588,0l0,10.79l-10.588,0Z" style="fill:#dfdfdf;fill-rule:nonzero;"/><path d="M364.844,771.299c-6.342,5.952 -12.45,8.93 -18.325,8.93c-4.834,0 -8.847,-1.542 -12.037,-4.628c-3.187,-3.086 -4.78,-6.986 -4.78,-11.696c0,-6.501 2.676,-11.495 8.032,-14.984c5.357,-3.488 13.033,-5.23 23.025,-5.23l2.526,0l0,-7.178c0,-6.902 -3.475,-10.352 -10.424,-10.352c-5.588,0 -11.624,1.752 -18.11,5.259l0,-8.929c7.131,-2.959 13.812,-4.44 20.044,-4.44c6.521,0 11.33,1.497 14.429,4.494c3.099,2.993 4.648,7.65 4.648,13.968l0,26.951c0,6.173 1.863,9.259 5.588,9.259c0.467,0 1.146,-0.071 2.041,-0.217l0.755,5.971c-2.401,1.168 -5.053,1.752 -7.955,1.752c-4.943,0 -8.095,-2.978 -9.457,-8.93Zm-1.559,-5.862l0,-15.392l-3.547,-0.109c-5.803,0 -10.496,1.12 -14.077,3.367c-3.585,2.247 -5.375,5.196 -5.375,8.847c0,2.594 0.895,4.787 2.689,6.574c1.79,1.79 3.976,2.684 6.555,2.684c4.405,0 8.991,-1.988 13.755,-5.971Z" style="fill:#dfdfdf;fill-rule:nonzero;"/><path d="M413.047,780.229c-5.375,0 -9.567,-1.571 -12.575,-4.711c-3.008,-3.14 -4.514,-7.506 -4.514,-13.094l0,-34.948l-7.31,0l0,-8.11l7.31,0l0,-10.793l10.584,-1.04l0,11.833l15.264,0l0,8.11l-15.264,0l0,32.976c0,7.78 3.296,11.671 9.889,11.671c1.396,0 3.099,-0.24 5.106,-0.715l0,7.452c-3.262,0.912 -6.092,1.369 -8.49,1.369Z" style="fill:#dfdfdf;fill-rule:nonzero;"/><path d="M436.688,778.86l0,-59.494l10.587,0l0,59.494l-10.587,0Zm0,-70.287l0,-10.79l10.587,0l0,10.79l-10.587,0Z" style="fill:#dfdfdf;fill-rule:nonzero;"/><path d="M480.593,778.86l-21.71,-59.494l10.584,0l16.983,46.291l17.894,-46.291l9.885,0l-23.052,59.494l-10.584,0Z" style="fill:#dfdfdf;fill-rule:nonzero;"/><path d="M568.236,776.942c-7.094,2.192 -13.167,3.287 -18.216,3.287c-8.599,0 -15.612,-2.911 -21.04,-8.738c-5.425,-5.825 -8.139,-13.375 -8.139,-22.653c0,-9.018 2.392,-16.416 7.172,-22.186c4.783,-5.77 10.9,-8.655 18.351,-8.655c7.059,0 12.512,2.556 16.362,7.669c3.854,5.113 5.779,12.382 5.779,21.803l-0.053,3.342l-36.811,0c1.54,14.134 8.33,21.2 20.367,21.2c4.404,0 9.814,-1.203 16.228,-3.616l0,8.547Zm-36.11,-34.237l25.739,0c0,-11.068 -4.048,-16.602 -12.146,-16.602c-8.13,0 -12.663,5.534 -13.593,16.602Z" style="fill:#dfdfdf;fill-rule:nonzero;"/></g><g id="g3797"><path id="path3015" d="M625.661,512.532l0.185,0.002l0.186,0.003l0.185,0.005l0.184,0.005l0.186,0.006l0.184,0.008l0.183,0.008l0.185,0.01l0.183,0.011l0.367,0.025l0.183,0.015l0.181,0.015l0.183,0.017l0.182,0.019l0.182,0.018l0.181,0.02l0.18,0.022l0.181,0.022l0.18,0.024l0.179,0.024l0.18,0.026l0.179,0.027l0.179,0.027l0.178,0.029l0.179,0.03l0.177,0.031l0.178,0.032l0.177,0.034l0.177,0.034l0.176,0.035l0.175,0.037l0.176,0.038l0.175,0.039l0.175,0.039l0.174,0.041l0.174,0.042l0.174,0.042l0.172,0.044l0.173,0.045l0.172,0.046l0.173,0.047l0.171,0.048l0.171,0.049l0.17,0.05l0.171,0.051l0.338,0.105l0.337,0.109l0.168,0.057l0.168,0.057l0.167,0.057l0.332,0.12l0.165,0.061l0.165,0.062l0.165,0.063l0.164,0.065l0.163,0.064l0.164,0.066l0.162,0.068l0.163,0.067l0.161,0.068l0.161,0.07l0.16,0.071l0.161,0.071l0.159,0.073l0.159,0.074l0.158,0.075l0.159,0.075l0.156,0.076l0.158,0.078l0.156,0.077l0.156,0.079l0.155,0.08l0.309,0.163l0.153,0.082l0.153,0.084l0.153,0.084l0.152,0.086l0.151,0.086l0.151,0.087l0.15,0.088l0.149,0.089l0.148,0.09l0.149,0.091l0.148,0.091l0.147,0.092l0.147,0.094l0.145,0.093l0.29,0.19l0.145,0.098l0.143,0.097l0.285,0.197l0.142,0.099l0.281,0.204l0.139,0.101l0.139,0.103l0.14,0.105l0.137,0.104l0.137,0.106l0.272,0.214l0.135,0.108l0.134,0.108l0.134,0.109l0.266,0.223l0.132,0.111l0.131,0.112l0.129,0.114l0.131,0.114l0.129,0.115l0.127,0.116l0.129,0.116l0.253,0.235l0.125,0.119l0.125,0.119l0.124,0.121l0.123,0.121l0.245,0.243l0.121,0.124l0.24,0.248l0.119,0.125l0.118,0.126l0.118,0.128l0.116,0.126l0.231,0.257l0.115,0.129l0.113,0.131l0.113,0.13l0.111,0.132l0.112,0.132l0.11,0.133l0.111,0.134l0.109,0.135l0.214,0.269l0.108,0.136l0.106,0.137l0.104,0.138l0.105,0.138l0.206,0.278l0.101,0.141l0.101,0.14l0.1,0.142l0.1,0.141l0.097,0.143l0.098,0.143l0.097,0.144l0.191,0.289l0.094,0.147l0.094,0.146l0.092,0.147l0.092,0.147l0.091,0.148l0.178,0.298l0.089,0.151l0.087,0.15l0.087,0.15l0.169,0.304l0.167,0.306l0.082,0.154l0.081,0.156l0.079,0.154l0.08,0.156l0.156,0.312l0.076,0.157l0.15,0.316l0.074,0.159l0.073,0.159l0.071,0.16l0.072,0.16l0.069,0.162l0.069,0.161l0.068,0.162l0.067,0.162l0.067,0.163l0.065,0.163l0.063,0.164l0.063,0.164l0.063,0.165l0.061,0.165l0.061,0.166l0.059,0.166l0.115,0.334l0.112,0.336l0.054,0.168l0.053,0.169l0.053,0.169l0.1,0.341l0.05,0.171l0.048,0.171l0.047,0.172l0.046,0.172l0.045,0.173l0.044,0.172l0.043,0.174l0.042,0.173l0.041,0.174l0.039,0.175l0.039,0.175l0.037,0.175l0.038,0.176l0.035,0.176l0.035,0.176l0.033,0.177l0.032,0.177l0.031,0.178l0.03,0.178l0.029,0.178l0.028,0.178l0.027,0.179l0.025,0.179l0.025,0.18l0.024,0.18l0.022,0.181l0.022,0.18l0.02,0.181l0.019,0.181l0.035,0.364l0.016,0.183l0.014,0.182l0.012,0.182l0.013,0.184l0.011,0.183l0.019,0.368l0.008,0.184l0.006,0.184l0.006,0.185l0.006,0.37l0.002,0.185l0,0.373l-0.002,0.185l-0.003,0.185l-0.003,0.185l-0.006,0.185l-0.006,0.184l-0.008,0.184l-0.009,0.184l-0.01,0.184l-0.011,0.183l-0.013,0.183l-0.012,0.183l-0.014,0.182l-0.016,0.183l-0.018,0.182l-0.017,0.182l-0.019,0.181l-0.02,0.181l-0.022,0.18l-0.022,0.18l-0.024,0.18l-0.025,0.18l-0.025,0.179l-0.027,0.179l-0.028,0.179l-0.029,0.178l-0.03,0.178l-0.031,0.178l-0.032,0.177l-0.033,0.177l-0.035,0.176l-0.035,0.176l-0.037,0.175l-0.038,0.176l-0.039,0.175l-0.039,0.175l-0.041,0.173l-0.042,0.175l-0.043,0.172l-0.044,0.173l-0.045,0.172l-0.046,0.173l-0.047,0.172l-0.048,0.171l-0.05,0.17l-0.05,0.17l-0.05,0.171l-0.053,0.169l-0.053,0.169l-0.054,0.169l-0.056,0.168l-0.056,0.168l-0.057,0.167l-0.058,0.167l-0.059,0.165l-0.061,0.166l-0.061,0.166l-0.063,0.165l-0.063,0.164l-0.063,0.163l-0.065,0.164l-0.067,0.163l-0.066,0.162l-0.069,0.162l-0.069,0.161l-0.069,0.161l-0.072,0.16l-0.072,0.161l-0.072,0.158l-0.074,0.16l-0.075,0.158l-0.075,0.157l-0.076,0.158l-0.078,0.156l-0.078,0.156l-0.08,0.156l-0.079,0.154l-0.081,0.156l-0.082,0.154l-0.084,0.153l-0.083,0.152l-0.085,0.153l-0.084,0.152l-0.087,0.15l-0.087,0.15l-0.089,0.151l-0.089,0.149l-0.089,0.149l-0.091,0.147l-0.092,0.148l-0.092,0.146l-0.094,0.147l-0.094,0.146l-0.095,0.145l-0.096,0.145l-0.096,0.143l-0.099,0.143l-0.097,0.144l-0.1,0.141l-0.1,0.141l-0.101,0.141l-0.101,0.141l-0.103,0.139l-0.103,0.139l-0.104,0.138l-0.105,0.138l-0.106,0.137l-0.108,0.136l-0.107,0.135l-0.107,0.134l-0.109,0.135l-0.111,0.134l-0.11,0.133l-0.112,0.131l-0.111,0.132l-0.113,0.131l-0.114,0.131l-0.114,0.128l-0.115,0.13l-0.116,0.128l-0.117,0.126l-0.117,0.128l-0.118,0.125l-0.119,0.126l-0.12,0.124l-0.12,0.124l-0.121,0.124l-0.122,0.122l-0.123,0.122l-0.123,0.12l-0.124,0.12l-0.125,0.12l-0.125,0.118l-0.126,0.119l-0.128,0.117l-0.128,0.116l-0.127,0.115l-0.13,0.116l-0.128,0.113l-0.131,0.114l-0.131,0.113l-0.132,0.111l-0.133,0.112l-0.133,0.11l-0.134,0.109l-0.134,0.109l-0.135,0.108l-0.136,0.107l-0.136,0.107l-0.137,0.105l-0.137,0.105l-0.14,0.104l-0.138,0.104l-0.14,0.101l-0.141,0.102l-0.14,0.101l-0.142,0.1l-0.142,0.099l-0.143,0.098l-0.143,0.097l-0.145,0.097l-0.144,0.096l-0.146,0.094l-0.145,0.094l-0.147,0.094l-0.147,0.092l-0.148,0.091l-0.148,0.091l-0.149,0.09l-0.15,0.089l-0.15,0.088l-0.15,0.086l-0.151,0.087l-0.152,0.085l-0.153,0.084l-0.153,0.085l-0.153,0.082l-0.155,0.081l-0.154,0.082l-0.155,0.079l-0.156,0.079l-0.156,0.078l-0.157,0.077l-0.157,0.077l-0.159,0.075l-0.158,0.075l-0.159,0.074l-0.16,0.072l-0.16,0.071l-0.159,0.071l-0.161,0.069l-0.163,0.07l-0.162,0.067l-0.162,0.068l-0.164,0.065l-0.163,0.065l-0.164,0.065l-0.165,0.063l-0.165,0.062l-0.165,0.061l-0.166,0.06l-0.166,0.059l-0.167,0.057l-0.168,0.058l-0.168,0.056l-0.168,0.055l-0.169,0.054l-0.169,0.053l-0.169,0.053l-0.171,0.05l-0.17,0.05l-0.172,0.05l-0.17,0.048l-0.173,0.047l-0.171,0.046l-0.174,0.045l-0.172,0.044l-0.174,0.042l-0.174,0.042l-0.174,0.041l-0.175,0.039l-0.175,0.039l-0.176,0.037l-0.175,0.037l-0.176,0.036l-0.177,0.034l-0.177,0.034l-0.178,0.032l-0.177,0.031l-0.179,0.03l-0.178,0.029l-0.179,0.027l-0.179,0.027l-0.18,0.026l-0.179,0.024l-0.18,0.024l-0.181,0.022l-0.181,0.022l-0.18,0.019l-0.182,0.019l-0.182,0.019l-0.182,0.016l-0.183,0.016l-0.182,0.015l-0.184,0.012l-0.183,0.012l-0.183,0.012l-0.183,0.01l-0.185,0.008l-0.184,0.008l-0.186,0.006l-0.184,0.005l-0.185,0.005l-0.186,0.003l-0.185,0.001l-0.187,0.001l-0.185,-0.001l-0.186,-0.001l-0.186,-0.003l-0.186,-0.005l-0.183,-0.005l-0.185,-0.006l-0.185,-0.008l-0.184,-0.008l-0.184,-0.01l-0.184,-0.012l-0.183,-0.012l-0.182,-0.012l-0.184,-0.015l-0.182,-0.016l-0.182,-0.016l-0.182,-0.019l-0.181,-0.019l-0.182,-0.019l-0.181,-0.022l-0.18,-0.022l-0.18,-0.024l-0.18,-0.024l-0.179,-0.026l-0.18,-0.027l-0.178,-0.027l-0.179,-0.029l-0.178,-0.03l-0.178,-0.031l-0.177,-0.032l-0.177,-0.034l-0.176,-0.034l-0.177,-0.036l-0.176,-0.037l-0.175,-0.037l-0.176,-0.039l-0.174,-0.039l-0.174,-0.041l-0.174,-0.042l-0.173,-0.042l-0.174,-0.044l-0.172,-0.045l-0.173,-0.046l-0.172,-0.047l-0.171,-0.048l-0.17,-0.05l-0.172,-0.05l-0.169,-0.05l-0.17,-0.053l-0.169,-0.053l-0.169,-0.054l-0.169,-0.055l-0.167,-0.056l-0.168,-0.058l-0.166,-0.057l-0.166,-0.059l-0.167,-0.06l-0.166,-0.061l-0.165,-0.062l-0.164,-0.063l-0.164,-0.065l-0.164,-0.065l-0.163,-0.065l-0.163,-0.068l-0.162,-0.067l-0.161,-0.07l-0.161,-0.069l-0.161,-0.071l-0.16,-0.071l-0.159,-0.072l-0.159,-0.074l-0.159,-0.075l-0.157,-0.075l-0.158,-0.077l-0.156,-0.077l-0.157,-0.078l-0.156,-0.079l-0.155,-0.079l-0.154,-0.082l-0.154,-0.081l-0.154,-0.082l-0.153,-0.085l-0.153,-0.084l-0.151,-0.085l-0.151,-0.087l-0.152,-0.086l-0.15,-0.088l-0.149,-0.089l-0.149,-0.09l-0.149,-0.091l-0.147,-0.091l-0.146,-0.092l-0.147,-0.094l-0.147,-0.094l-0.145,-0.094l-0.144,-0.096l-0.144,-0.097l-0.144,-0.097l-0.143,-0.098l-0.142,-0.099l-0.141,-0.1l-0.142,-0.101l-0.14,-0.102l-0.14,-0.101l-0.139,-0.104l-0.138,-0.104l-0.137,-0.105l-0.138,-0.105l-0.137,-0.107l-0.135,-0.107l-0.135,-0.108l-0.135,-0.109l-0.134,-0.109l-0.133,-0.11l-0.132,-0.112l-0.132,-0.111l-0.13,-0.113l-0.131,-0.114l-0.13,-0.113l-0.128,-0.116l-0.129,-0.115l-0.128,-0.116l-0.126,-0.117l-0.127,-0.119l-0.125,-0.118l-0.124,-0.12l-0.125,-0.12l-0.123,-0.12l-0.122,-0.122l-0.122,-0.122l-0.121,-0.124l-0.122,-0.124l-0.119,-0.124l-0.119,-0.125l-0.117,-0.126l-0.118,-0.128l-0.117,-0.126l-0.116,-0.128l-0.115,-0.13l-0.114,-0.128l-0.114,-0.131l-0.113,-0.131l-0.112,-0.132l-0.112,-0.131l-0.11,-0.133l-0.109,-0.134l-0.11,-0.134l-0.108,-0.135l-0.107,-0.135l-0.106,-0.136l-0.106,-0.137l-0.105,-0.138l-0.104,-0.138l-0.104,-0.139l-0.102,-0.139l-0.102,-0.141l-0.101,-0.141l-0.1,-0.141l-0.099,-0.141l-0.099,-0.144l-0.097,-0.143l-0.097,-0.143l-0.096,-0.145l-0.095,-0.145l-0.094,-0.146l-0.093,-0.147l-0.093,-0.146l-0.091,-0.148l-0.092,-0.147l-0.089,-0.149l-0.09,-0.15l-0.087,-0.15l-0.087,-0.15l-0.087,-0.152l-0.086,-0.15l-0.085,-0.152l-0.083,-0.153l-0.083,-0.153l-0.082,-0.154l-0.081,-0.156l-0.08,-0.154l-0.079,-0.156l-0.079,-0.156l-0.077,-0.156l-0.076,-0.158l-0.076,-0.157l-0.074,-0.158l-0.074,-0.16l-0.073,-0.158l-0.072,-0.161l-0.07,-0.16l-0.07,-0.161l-0.07,-0.161l-0.067,-0.162l-0.068,-0.162l-0.065,-0.163l-0.066,-0.163l-0.064,-0.164l-0.063,-0.164l-0.062,-0.165l-0.061,-0.166l-0.06,-0.166l-0.059,-0.165l-0.059,-0.167l-0.057,-0.167l-0.056,-0.168l-0.056,-0.168l-0.054,-0.169l-0.053,-0.168l-0.052,-0.17l-0.052,-0.171l-0.05,-0.17l-0.049,-0.171l-0.048,-0.171l-0.047,-0.171l-0.046,-0.173l-0.045,-0.172l-0.044,-0.172l-0.043,-0.173l-0.041,-0.175l-0.042,-0.173l-0.04,-0.175l-0.039,-0.175l-0.037,-0.176l-0.036,-0.175l-0.036,-0.176l-0.034,-0.176l-0.033,-0.178l-0.034,-0.176l-0.031,-0.178l-0.03,-0.178l-0.029,-0.178l-0.028,-0.179l-0.026,-0.179l-0.026,-0.179l-0.025,-0.18l-0.023,-0.18l-0.023,-0.18l-0.02,-0.18l-0.021,-0.181l-0.019,-0.182l-0.018,-0.181l-0.016,-0.182l-0.016,-0.182l-0.014,-0.183l-0.014,-0.183l-0.012,-0.183l-0.012,-0.183l-0.009,-0.184l-0.009,-0.184l-0.007,-0.184l-0.007,-0.185l-0.005,-0.184l-0.004,-0.185l-0.004,-0.185l-0.001,-0.186l-0.001,-0.185l0.001,-0.187l0.001,-0.185l0.004,-0.185l0.004,-0.185l0.005,-0.185l0.007,-0.184l0.007,-0.184l0.009,-0.184l0.009,-0.184l0.012,-0.183l0.012,-0.184l0.014,-0.183l0.014,-0.182l0.016,-0.182l0.016,-0.182l0.018,-0.182l0.019,-0.181l0.021,-0.181l0.02,-0.18l0.023,-0.181l0.023,-0.18l0.025,-0.18l0.026,-0.178l0.026,-0.18l0.028,-0.178l0.029,-0.178l0.03,-0.179l0.031,-0.177l0.034,-0.177l0.033,-0.177l0.034,-0.176l0.036,-0.176l0.036,-0.176l0.037,-0.175l0.039,-0.175l0.04,-0.175l0.042,-0.174l0.041,-0.173l0.043,-0.174l0.044,-0.172l0.045,-0.173l0.046,-0.172l0.047,-0.171l0.048,-0.172l0.049,-0.171l0.05,-0.17l0.052,-0.171l0.052,-0.169l0.053,-0.169l0.054,-0.168l0.056,-0.169l0.056,-0.167l0.057,-0.167l0.059,-0.167l0.059,-0.166l0.06,-0.165l0.061,-0.166l0.062,-0.165l0.063,-0.164l0.064,-0.164l0.066,-0.163l0.065,-0.163l0.068,-0.162l0.067,-0.162l0.07,-0.161l0.07,-0.161l0.07,-0.161l0.072,-0.16l0.073,-0.159l0.074,-0.159l0.074,-0.158l0.076,-0.157l0.076,-0.158l0.077,-0.156l0.079,-0.156l0.079,-0.156l0.08,-0.154l0.081,-0.156l0.082,-0.154l0.083,-0.153l0.083,-0.153l0.085,-0.152l0.086,-0.152l0.087,-0.15l0.087,-0.15l0.087,-0.15l0.09,-0.15l0.089,-0.149l0.092,-0.147l0.091,-0.148l0.093,-0.147l0.093,-0.147l0.094,-0.146l0.095,-0.144l0.096,-0.145l0.097,-0.144l0.097,-0.142l0.099,-0.144l0.099,-0.141l0.1,-0.142l0.101,-0.14l0.102,-0.141l0.102,-0.139l0.104,-0.139l0.104,-0.138l0.105,-0.138l0.106,-0.137l0.106,-0.136l0.107,-0.134l0.108,-0.136l0.11,-0.134l0.109,-0.134l0.11,-0.133l0.112,-0.132l0.112,-0.132l0.113,-0.13l0.114,-0.131l0.114,-0.129l0.115,-0.129l0.116,-0.128l0.117,-0.126l0.118,-0.128l0.117,-0.126l0.119,-0.125l0.12,-0.124l0.121,-0.124l0.121,-0.124l0.122,-0.121l0.122,-0.122l0.123,-0.121l0.125,-0.121l0.124,-0.119l0.125,-0.119l0.127,-0.118l0.126,-0.117l0.128,-0.116l0.129,-0.116l0.128,-0.115l0.13,-0.114l0.131,-0.114l0.13,-0.112l0.132,-0.111l0.132,-0.112l0.134,-0.111l0.133,-0.109l0.135,-0.108l0.135,-0.108l0.135,-0.107l0.137,-0.107l0.138,-0.106l0.137,-0.104l0.138,-0.105l0.139,-0.103l0.14,-0.101l0.14,-0.103l0.142,-0.101l0.141,-0.099l0.142,-0.099l0.142,-0.098l0.145,-0.097l0.144,-0.098l0.144,-0.095l0.145,-0.095l0.147,-0.093l0.146,-0.094l0.147,-0.092l0.147,-0.091l0.149,-0.091l0.149,-0.09l0.149,-0.089l0.15,-0.088l0.152,-0.087l0.151,-0.086l0.152,-0.086l0.152,-0.084l0.153,-0.084l0.153,-0.082l0.154,-0.081l0.155,-0.082l0.156,-0.08l0.155,-0.079l0.157,-0.078l0.156,-0.077l0.158,-0.076l0.157,-0.075l0.159,-0.075l0.159,-0.074l0.159,-0.073l0.16,-0.071l0.161,-0.071l0.161,-0.07l0.161,-0.068l0.162,-0.067l0.163,-0.068l0.163,-0.066l0.164,-0.064l0.163,-0.065l0.165,-0.063l0.165,-0.062l0.166,-0.061l0.167,-0.06l0.166,-0.06l0.166,-0.057l0.167,-0.057l0.168,-0.057l0.17,-0.054l0.168,-0.055l0.168,-0.052l0.171,-0.053l0.17,-0.051l0.171,-0.05l0.17,-0.049l0.171,-0.048l0.173,-0.047l0.172,-0.046l0.172,-0.045l0.173,-0.044l0.174,-0.042l0.174,-0.042l0.174,-0.041l0.174,-0.039l0.176,-0.039l0.175,-0.038l0.176,-0.037l0.177,-0.035l0.176,-0.034l0.177,-0.034l0.177,-0.032l0.178,-0.031l0.178,-0.03l0.179,-0.029l0.178,-0.027l0.18,-0.027l0.179,-0.026l0.18,-0.024l0.18,-0.024l0.181,-0.022l0.18,-0.022l0.182,-0.02l0.181,-0.018l0.182,-0.019l0.182,-0.017l0.182,-0.015l0.183,-0.015l0.183,-0.012l0.183,-0.013l0.184,-0.011l0.184,-0.01l0.184,-0.008l0.185,-0.008l0.184,-0.006l0.185,-0.005l0.186,-0.005l0.184,-0.003l0.186,-0.002l0.373,0Zm-0.327,7.138l-0.141,0.002l-0.14,0.002l-0.141,0.003l-0.139,0.004l-0.139,0.005l-0.141,0.005l-0.139,0.007l-0.138,0.007l-0.139,0.009l-0.139,0.009l-0.137,0.01l-0.138,0.011l-0.138,0.012l-0.137,0.012l-0.137,0.014l-0.136,0.014l-0.137,0.015l-0.136,0.016l-0.137,0.017l-0.135,0.017l-0.136,0.02l-0.135,0.019l-0.134,0.019l-0.135,0.022l-0.134,0.021l-0.134,0.023l-0.134,0.023l-0.133,0.025l-0.133,0.024l-0.133,0.027l-0.132,0.026l-0.132,0.028l-0.132,0.027l-0.132,0.03l-0.131,0.029l-0.132,0.031l-0.129,0.031l-0.131,0.032l-0.13,0.034l-0.131,0.034l-0.128,0.034l-0.129,0.035l-0.128,0.037l-0.129,0.036l-0.129,0.038l-0.127,0.038l-0.128,0.04l-0.126,0.039l-0.128,0.041l-0.126,0.042l-0.126,0.041l-0.125,0.043l-0.127,0.044l-0.124,0.044l-0.124,0.046l-0.126,0.046l-0.123,0.046l-0.123,0.047l-0.123,0.048l-0.124,0.049l-0.122,0.05l-0.122,0.05l-0.122,0.051l-0.121,0.052l-0.122,0.052l-0.12,0.054l-0.12,0.053l-0.12,0.055l-0.12,0.055l-0.119,0.056l-0.119,0.057l-0.118,0.056l-0.118,0.059l-0.117,0.058l-0.117,0.06l-0.117,0.06l-0.116,0.061l-0.116,0.061l-0.115,0.063l-0.116,0.063l-0.114,0.063l-0.115,0.064l-0.113,0.065l-0.113,0.065l-0.113,0.066l-0.113,0.068l-0.112,0.067l-0.112,0.068l-0.11,0.069l-0.112,0.069l-0.11,0.07l-0.11,0.071l-0.109,0.071l-0.109,0.073l-0.108,0.073l-0.109,0.073l-0.107,0.073l-0.107,0.075l-0.107,0.075l-0.106,0.076l-0.105,0.076l-0.107,0.078l-0.104,0.077l-0.104,0.078l-0.103,0.08l-0.103,0.079l-0.103,0.08l-0.103,0.081l-0.102,0.082l-0.101,0.081l-0.101,0.083l-0.1,0.083l-0.1,0.083l-0.099,0.085l-0.099,0.085l-0.098,0.085l-0.097,0.087l-0.098,0.086l-0.096,0.087l-0.097,0.088l-0.095,0.089l-0.096,0.088l-0.094,0.089l-0.094,0.091l-0.094,0.09l-0.093,0.091l-0.092,0.092l-0.091,0.092l-0.092,0.093l-0.09,0.093l-0.09,0.094l-0.09,0.095l-0.089,0.095l-0.088,0.095l-0.089,0.096l-0.087,0.097l-0.087,0.097l-0.086,0.097l-0.085,0.098l-0.086,0.098l-0.084,0.1l-0.084,0.099l-0.083,0.101l-0.082,0.1l-0.083,0.101l-0.081,0.102l-0.082,0.102l-0.079,0.102l-0.081,0.104l-0.079,0.103l-0.078,0.104l-0.077,0.104l-0.078,0.105l-0.077,0.106l-0.075,0.106l-0.076,0.106l-0.075,0.107l-0.074,0.108l-0.073,0.108l-0.073,0.108l-0.071,0.108l-0.072,0.109l-0.071,0.11l-0.071,0.111l-0.068,0.109l-0.07,0.111l-0.068,0.112l-0.068,0.112l-0.067,0.112l-0.066,0.112l-0.065,0.114l-0.065,0.113l-0.065,0.115l-0.063,0.114l-0.063,0.115l-0.063,0.114l-0.061,0.117l-0.061,0.115l-0.06,0.117l-0.06,0.117l-0.058,0.116l-0.058,0.118l-0.058,0.119l-0.057,0.118l-0.055,0.118l-0.056,0.12l-0.055,0.12l-0.053,0.12l-0.054,0.119l-0.052,0.121l-0.052,0.121l-0.051,0.122l-0.051,0.121l-0.049,0.123l-0.048,0.123l-0.048,0.122l-0.048,0.123l-0.047,0.124l-0.046,0.125l-0.045,0.124l-0.044,0.125l-0.044,0.125l-0.043,0.125l-0.043,0.125l-0.04,0.127l-0.041,0.126l-0.041,0.127l-0.038,0.128l-0.039,0.127l-0.037,0.127l-0.037,0.128l-0.036,0.128l-0.036,0.13l-0.034,0.129l-0.034,0.129l-0.034,0.13l-0.032,0.129l-0.031,0.131l-0.031,0.13l-0.029,0.131l-0.029,0.132l-0.029,0.131l-0.026,0.132l-0.027,0.133l-0.026,0.132l-0.026,0.132l-0.023,0.134l-0.024,0.133l-0.022,0.133l-0.023,0.134l-0.02,0.135l-0.021,0.133l-0.019,0.135l-0.018,0.136l-0.018,0.135l-0.016,0.136l-0.017,0.136l-0.016,0.136l-0.014,0.135l-0.012,0.137l-0.013,0.137l-0.012,0.137l-0.011,0.138l-0.01,0.138l-0.009,0.137l-0.009,0.139l-0.007,0.138l-0.007,0.14l-0.006,0.139l-0.004,0.139l-0.005,0.139l-0.003,0.14l-0.002,0.139l-0.001,0.14l0,0.282l0.001,0.14l0.002,0.14l0.003,0.139l0.005,0.14l0.004,0.139l0.013,0.279l0.007,0.138l0.009,0.139l0.009,0.137l0.01,0.138l0.011,0.137l0.012,0.138l0.013,0.137l0.012,0.136l0.014,0.137l0.016,0.135l0.015,0.136l0.018,0.136l0.036,0.27l0.019,0.135l0.041,0.269l0.023,0.133l0.022,0.134l0.024,0.133l0.023,0.133l0.052,0.266l0.027,0.132l0.026,0.132l0.029,0.131l0.029,0.131l0.03,0.132l0.03,0.13l0.031,0.13l0.032,0.13l0.034,0.13l0.068,0.259l0.036,0.128l0.073,0.257l0.037,0.127l0.077,0.255l0.041,0.127l0.041,0.126l0.04,0.126l0.043,0.126l0.043,0.125l0.088,0.25l0.045,0.124l0.046,0.125l0.046,0.123l0.049,0.124l0.048,0.122l0.048,0.123l0.049,0.122l0.051,0.122l0.051,0.122l0.052,0.121l0.052,0.121l0.107,0.239l0.055,0.12l0.111,0.238l0.057,0.118l0.058,0.119l0.058,0.117l0.059,0.117l0.059,0.117l0.06,0.117l0.122,0.231l0.063,0.115l0.063,0.115l0.063,0.114l0.065,0.115l0.065,0.113l0.065,0.114l0.066,0.112l0.067,0.111l0.068,0.113l0.068,0.111l0.07,0.111l0.068,0.11l0.142,0.221l0.072,0.109l0.071,0.108l0.073,0.108l0.074,0.108l0.073,0.107l0.075,0.107l0.076,0.107l0.075,0.106l0.155,0.21l0.078,0.105l0.156,0.207l0.081,0.103l0.079,0.103l0.082,0.102l0.081,0.102l0.248,0.302l0.084,0.099l0.084,0.099l0.086,0.099l0.084,0.098l0.174,0.194l0.087,0.097l0.088,0.096l0.178,0.191l0.18,0.188l0.09,0.093l0.091,0.093l0.092,0.092l0.185,0.183l0.094,0.09l0.188,0.18l0.096,0.088l0.095,0.088l0.097,0.089l0.193,0.173l0.098,0.087l0.099,0.085l0.098,0.085l0.099,0.084l0.1,0.084l0.1,0.083l0.101,0.083l0.101,0.081l0.102,0.082l0.103,0.081l0.102,0.079l0.104,0.08l0.103,0.08l0.104,0.078l0.316,0.231l0.106,0.076l0.214,0.15l0.107,0.073l0.217,0.146l0.109,0.073l0.219,0.141l0.11,0.071l0.111,0.069l0.112,0.069l0.111,0.068l0.112,0.067l0.225,0.133l0.227,0.131l0.115,0.064l0.23,0.126l0.231,0.124l0.116,0.061l0.117,0.06l0.117,0.059l0.235,0.118l0.119,0.056l0.118,0.057l0.238,0.111l0.12,0.055l0.242,0.107l0.121,0.052l0.121,0.052l0.122,0.051l0.122,0.05l0.122,0.05l0.124,0.049l0.123,0.048l0.123,0.047l0.249,0.092l0.124,0.045l0.125,0.045l0.126,0.044l0.125,0.043l0.126,0.041l0.127,0.042l0.127,0.041l0.126,0.039l0.128,0.04l0.128,0.038l0.128,0.038l0.128,0.036l0.129,0.037l0.129,0.035l0.13,0.034l0.259,0.067l0.261,0.064l0.262,0.06l0.264,0.057l0.132,0.027l0.132,0.027l0.132,0.026l0.134,0.025l0.133,0.024l0.134,0.023l0.268,0.045l0.135,0.021l0.134,0.02l0.135,0.019l0.136,0.018l0.135,0.019l0.137,0.017l0.136,0.016l0.137,0.015l0.136,0.014l0.137,0.014l0.275,0.023l0.138,0.012l0.276,0.019l0.139,0.008l0.139,0.007l0.138,0.008l0.14,0.005l0.139,0.004l0.14,0.005l0.141,0.003l0.14,0.002l0.281,0.002l0.142,-0.001l0.14,-0.001l0.14,-0.002l0.14,-0.003l0.14,-0.005l0.14,-0.004l0.139,-0.005l0.139,-0.008l0.14,-0.007l0.138,-0.008l0.138,-0.009l0.138,-0.01l0.139,-0.012l0.137,-0.012l0.137,-0.011l0.136,-0.014l0.137,-0.014l0.138,-0.015l0.135,-0.016l0.136,-0.017l0.136,-0.019l0.135,-0.018l0.135,-0.019l0.135,-0.02l0.135,-0.021l0.134,-0.022l0.134,-0.023l0.133,-0.023l0.134,-0.024l0.133,-0.025l0.133,-0.026l0.132,-0.027l0.133,-0.027l0.132,-0.028l0.13,-0.029l0.132,-0.03l0.131,-0.03l0.131,-0.032l0.13,-0.032l0.13,-0.034l0.13,-0.033l0.128,-0.034l0.13,-0.035l0.129,-0.037l0.128,-0.036l0.128,-0.038l0.129,-0.038l0.127,-0.04l0.127,-0.039l0.126,-0.041l0.127,-0.042l0.126,-0.041l0.126,-0.043l0.125,-0.044l0.125,-0.045l0.125,-0.045l0.124,-0.046l0.123,-0.046l0.125,-0.047l0.123,-0.048l0.123,-0.049l0.122,-0.05l0.123,-0.05l0.121,-0.051l0.121,-0.052l0.121,-0.052l0.121,-0.054l0.12,-0.053l0.12,-0.055l0.119,-0.055l0.12,-0.056l0.118,-0.057l0.118,-0.056l0.119,-0.059l0.117,-0.059l0.117,-0.059l0.116,-0.06l0.117,-0.061l0.116,-0.062l0.116,-0.062l0.115,-0.062l0.114,-0.064l0.114,-0.064l0.115,-0.066l0.112,-0.065l0.114,-0.066l0.112,-0.067l0.112,-0.067l0.111,-0.068l0.112,-0.069l0.111,-0.069l0.11,-0.071l0.11,-0.071l0.109,-0.07l0.11,-0.073l0.108,-0.073l0.107,-0.073l0.108,-0.073l0.107,-0.075l0.107,-0.075l0.106,-0.076l0.106,-0.077l0.105,-0.077l0.105,-0.077l0.104,-0.078l0.104,-0.08l0.103,-0.08l0.103,-0.079l0.102,-0.081l0.101,-0.082l0.102,-0.081l0.101,-0.083l0.1,-0.083l0.1,-0.084l0.099,-0.084l0.099,-0.085l0.098,-0.085l0.098,-0.087l0.097,-0.086l0.097,-0.087l0.096,-0.089l0.096,-0.088l0.094,-0.088l0.095,-0.09l0.094,-0.09l0.094,-0.09l0.092,-0.092l0.093,-0.091l0.091,-0.092l0.092,-0.093l0.091,-0.093l0.09,-0.094l0.09,-0.094l0.089,-0.096l0.088,-0.095l0.088,-0.096l0.087,-0.097l0.087,-0.097l0.086,-0.097l0.086,-0.098l0.084,-0.099l0.085,-0.099l0.084,-0.099l0.083,-0.101l0.083,-0.1l0.081,-0.101l0.082,-0.102l0.081,-0.102l0.081,-0.103l0.079,-0.103l0.079,-0.103l0.079,-0.104l0.078,-0.105l0.077,-0.105l0.076,-0.105l0.076,-0.106l0.075,-0.107l0.075,-0.107l0.074,-0.107l0.074,-0.108l0.072,-0.108l0.073,-0.108l0.072,-0.109l0.07,-0.11l0.07,-0.111l0.07,-0.11l0.068,-0.111l0.069,-0.111l0.068,-0.112l0.067,-0.112l0.065,-0.112l0.067,-0.114l0.064,-0.113l0.065,-0.115l0.063,-0.113l0.063,-0.116l0.062,-0.115l0.062,-0.116l0.06,-0.115l0.061,-0.117l0.059,-0.117l0.059,-0.117l0.058,-0.118l0.058,-0.118l0.057,-0.118l0.056,-0.118l0.054,-0.12l0.056,-0.12l0.054,-0.12l0.052,-0.119l0.053,-0.121l0.052,-0.121l0.051,-0.122l0.05,-0.122l0.049,-0.122l0.05,-0.122l0.048,-0.123l0.047,-0.124l0.047,-0.124l0.045,-0.124l0.046,-0.124l0.044,-0.125l0.044,-0.125l0.043,-0.125l0.042,-0.125l0.042,-0.127l0.04,-0.126l0.04,-0.127l0.04,-0.128l0.037,-0.127l0.039,-0.127l0.036,-0.129l0.037,-0.128l0.035,-0.128l0.034,-0.13l0.034,-0.129l0.033,-0.13l0.032,-0.129l0.032,-0.131l0.03,-0.13l0.03,-0.132l0.029,-0.131l0.028,-0.131l0.028,-0.132l0.027,-0.132l0.025,-0.133l0.025,-0.133l0.025,-0.133l0.023,-0.133l0.023,-0.134l0.021,-0.133l0.022,-0.135l0.02,-0.134l0.019,-0.135l0.019,-0.135l0.017,-0.135l0.017,-0.136l0.016,-0.136l0.015,-0.135l0.014,-0.137l0.014,-0.137l0.013,-0.136l0.011,-0.137l0.011,-0.138l0.01,-0.138l0.009,-0.138l0.009,-0.138l0.008,-0.138l0.006,-0.14l0.005,-0.139l0.006,-0.139l0.003,-0.14l0.003,-0.139l0.002,-0.14l0.002,-0.14l0,-0.14l0,-0.141l-0.002,-0.14l-0.002,-0.141l-0.003,-0.139l-0.003,-0.139l-0.006,-0.139l-0.005,-0.139l-0.006,-0.14l-0.008,-0.138l-0.009,-0.138l-0.009,-0.138l-0.01,-0.138l-0.011,-0.138l-0.011,-0.137l-0.013,-0.137l-0.014,-0.136l-0.014,-0.136l-0.015,-0.136l-0.016,-0.136l-0.017,-0.136l-0.017,-0.135l-0.019,-0.136l-0.019,-0.134l-0.02,-0.134l-0.022,-0.135l-0.021,-0.134l-0.023,-0.134l-0.023,-0.132l-0.025,-0.133l-0.025,-0.133l-0.025,-0.132l-0.027,-0.133l-0.028,-0.132l-0.028,-0.131l-0.029,-0.132l-0.03,-0.131l-0.03,-0.13l-0.032,-0.131l-0.032,-0.13l-0.033,-0.129l-0.034,-0.129l-0.034,-0.129l-0.035,-0.129l-0.037,-0.128l-0.036,-0.129l-0.039,-0.127l-0.037,-0.127l-0.04,-0.128l-0.04,-0.127l-0.04,-0.126l-0.042,-0.127l-0.042,-0.125l-0.043,-0.125l-0.044,-0.125l-0.044,-0.125l-0.046,-0.124l-0.045,-0.125l-0.047,-0.124l-0.047,-0.123l-0.048,-0.123l-0.05,-0.122l-0.049,-0.123l-0.05,-0.121l-0.051,-0.122l-0.052,-0.121l-0.053,-0.121l-0.052,-0.119l-0.055,-0.12l-0.055,-0.12l-0.054,-0.12l-0.056,-0.119l-0.057,-0.117l-0.058,-0.118l-0.058,-0.119l-0.059,-0.116l-0.059,-0.117l-0.061,-0.117l-0.06,-0.115l-0.062,-0.117l-0.062,-0.114l-0.063,-0.116l-0.063,-0.114l-0.065,-0.114l-0.064,-0.113l-0.067,-0.114l-0.065,-0.112l-0.067,-0.112l-0.068,-0.113l-0.069,-0.11l-0.068,-0.111l-0.07,-0.11l-0.07,-0.111l-0.07,-0.11l-0.072,-0.109l-0.073,-0.109l-0.072,-0.107l-0.074,-0.108l-0.074,-0.108l-0.075,-0.107l-0.075,-0.106l-0.076,-0.106l-0.076,-0.106l-0.077,-0.105l-0.078,-0.104l-0.079,-0.104l-0.079,-0.103l-0.079,-0.104l-0.081,-0.102l-0.081,-0.102l-0.082,-0.102l-0.081,-0.101l-0.083,-0.1l-0.083,-0.101l-0.084,-0.099l-0.085,-0.1l-0.084,-0.098l-0.086,-0.098l-0.086,-0.097l-0.087,-0.097l-0.087,-0.097l-0.088,-0.096l-0.088,-0.095l-0.089,-0.095l-0.09,-0.095l-0.09,-0.094l-0.091,-0.093l-0.092,-0.093l-0.091,-0.092l-0.093,-0.092l-0.093,-0.091l-0.092,-0.09l-0.095,-0.091l-0.095,-0.089l-0.094,-0.088l-0.096,-0.089l-0.096,-0.088l-0.097,-0.087l-0.097,-0.086l-0.098,-0.087l-0.098,-0.085l-0.099,-0.085l-0.1,-0.085l-0.099,-0.083l-0.1,-0.083l-0.101,-0.083l-0.102,-0.081l-0.101,-0.082l-0.102,-0.081l-0.103,-0.08l-0.103,-0.079l-0.104,-0.08l-0.104,-0.078l-0.105,-0.077l-0.105,-0.078l-0.106,-0.076l-0.106,-0.076l-0.107,-0.075l-0.107,-0.075l-0.108,-0.073l-0.107,-0.073l-0.108,-0.073l-0.11,-0.073l-0.109,-0.071l-0.11,-0.071l-0.111,-0.07l-0.11,-0.069l-0.112,-0.069l-0.111,-0.068l-0.112,-0.067l-0.113,-0.068l-0.113,-0.066l-0.112,-0.065l-0.115,-0.065l-0.114,-0.064l-0.114,-0.064l-0.115,-0.062l-0.116,-0.063l-0.116,-0.061l-0.117,-0.061l-0.115,-0.06l-0.118,-0.059l-0.118,-0.06l-0.117,-0.058l-0.119,-0.056l-0.118,-0.057l-0.12,-0.056l-0.119,-0.055l-0.12,-0.055l-0.12,-0.053l-0.121,-0.054l-0.12,-0.052l-0.122,-0.052l-0.121,-0.051l-0.123,-0.05l-0.122,-0.05l-0.123,-0.049l-0.124,-0.048l-0.124,-0.047l-0.123,-0.046l-0.124,-0.046l-0.125,-0.046l-0.125,-0.044l-0.125,-0.044l-0.127,-0.043l-0.125,-0.041l-0.127,-0.042l-0.126,-0.041l-0.128,-0.039l-0.127,-0.04l-0.128,-0.038l-0.128,-0.038l-0.128,-0.036l-0.129,-0.037l-0.128,-0.035l-0.13,-0.034l-0.13,-0.034l-0.131,-0.034l-0.129,-0.032l-0.131,-0.031l-0.131,-0.031l-0.132,-0.029l-0.13,-0.03l-0.132,-0.027l-0.133,-0.028l-0.132,-0.026l-0.133,-0.027l-0.133,-0.024l-0.134,-0.025l-0.133,-0.023l-0.134,-0.023l-0.134,-0.021l-0.135,-0.022l-0.135,-0.019l-0.135,-0.019l-0.135,-0.02l-0.136,-0.017l-0.135,-0.017l-0.137,-0.016l-0.137,-0.015l-0.137,-0.014l-0.136,-0.014l-0.137,-0.012l-0.138,-0.012l-0.139,-0.011l-0.137,-0.01l-0.138,-0.009l-0.138,-0.009l-0.14,-0.007l-0.139,-0.007l-0.139,-0.005l-0.14,-0.005l-0.139,-0.004l-0.141,-0.003l-0.14,-0.002l-0.141,-0.002l-0.141,0l-0.14,0Z" style="fill:#dfdfdf;"/><path id="text3793" d="M613.439,555.398l0,-28.633l12.169,0c3.059,0 5.281,0.259 6.669,0.771c1.387,0.515 2.497,1.429 3.328,2.743c0.835,1.315 1.252,2.82 1.252,4.514c0,2.149 -0.632,3.922 -1.897,5.323c-1.261,1.4 -3.148,2.282 -5.664,2.645c1.252,0.73 2.282,1.53 3.098,2.402c0.812,0.873 1.909,2.422 3.29,4.65l3.496,5.585l-6.913,0l-4.181,-6.23c-1.483,-2.228 -2.5,-3.632 -3.047,-4.21c-0.547,-0.578 -1.125,-0.977 -1.739,-1.192c-0.61,-0.215 -1.58,-0.322 -2.908,-0.322l-1.172,0l0,11.954l-5.781,0Zm5.781,-16.524l4.276,0c2.775,0 4.508,-0.117 5.197,-0.351c0.689,-0.234 1.229,-0.639 1.621,-1.211c0.389,-0.572 0.585,-1.289 0.585,-2.149c0,-0.964 -0.256,-1.742 -0.771,-2.333c-0.516,-0.594 -1.239,-0.967 -2.178,-1.122c-0.468,-0.066 -1.875,-0.098 -4.22,-0.098l-4.51,0l0,7.264Z" style="fill:#dfdfdf;fill-rule:nonzero;"/></g></g></svg>