<?xml version="1.0" encoding="UTF-8" standalone="no"?>
<!DOCTYPE svg PUBLIC "-//W3C//DTD SVG 1.1//EN" "http://www.w3.org/Graphics/SVG/1.1/DTD/svg11.dtd">
<svg width="100%" height="100%" viewBox="0 0 300 500" version="1.1" xmlns="http://www.w3.org/2000/svg" xmlns:xlink="http://www.w3.org/1999/xlink" xml:space="preserve" xmlns:serif="http://www.serif.com/" style="fill-rule:evenodd;clip-rule:evenodd;stroke-linejoin:round;stroke-miterlimit:2;">
    <g id="Logo" transform="matrix(1,0,0,1,-32.7838,-76.145)">
        <path d="M53.25,110.42C82.09,110.43 110.94,110.41 139.78,110.43C139.82,130.3 139.78,150.17 139.79,170.04C139.84,175.5 141.1,181.12 144.4,185.56C147.2,189.57 151.45,192.33 155.89,194.21C156.85,194.52 157.8,194.85 158.76,195.2C161.48,195.72 164.16,196.6 166.96,196.53C186.66,196.52 206.36,196.51 226.05,196.53C226.06,216.36 226.07,236.19 226.04,256.02C226.1,262.2 228.25,268.29 231.75,273.35C235.85,279.14 242.87,282.93 250.02,282.72C270.77,282.72 291.52,282.7 312.27,282.73C312.4,311.66 312.32,340.6 312.3,369.53C290.68,369.58 269.05,369.44 247.43,369.6C234.96,370.89 226.52,383.04 226.07,394.95C226.01,415.22 226.09,435.5 226.04,455.77C205.37,455.77 184.7,455.79 164.04,455.76C157.28,455.89 150.41,458.85 146.21,464.25C141.83,469.81 139.51,476.97 139.7,484.03C139.76,503.31 139.68,522.58 139.74,541.85C110.92,541.85 82.11,541.82 53.3,541.87C53.31,513.11 53.28,484.34 53.3,455.58C71.54,455.67 89.78,455.58 108.01,455.63C118.08,456.24 129.2,452.9 135.29,444.41C138.18,440.24 139.66,435.13 139.54,430.06C139.49,418.37 139.57,406.68 139.5,395C138.91,386.82 135.28,378.44 128.45,373.61C124.58,370.86 119.81,369.32 115.06,369.51C94.48,369.57 73.9,369.49 53.32,369.55C53.28,340.6 53.13,311.64 53.37,282.7C74.22,282.74 95.08,282.71 115.93,282.72C123.85,282.83 131.34,277.97 135.2,271.17C137.97,266.27 139.68,260.65 139.52,254.99C139.49,245 139.49,235.02 139.52,225.04C139.82,217.64 137.07,210.25 132.39,204.56C127.59,199.05 120.12,196.78 113,196.65C93.08,196.71 73.16,196.68 53.24,196.67C53.24,167.92 53.2,139.17 53.25,110.42M163.36,283.52C157.58,284.39 152,286.82 147.52,290.6C142.27,295.2 139.91,302.28 139.83,309.12C139.65,320.41 139.83,331.7 139.74,342.99C139.66,349.14 141.45,355.6 145.81,360.11C150.84,365.87 158.51,368.62 165.95,369.33C175.61,369.43 185.27,369.32 194.94,369.38C203.11,369.72 211.67,367.47 217.93,362.03C223.03,357.54 225.69,350.75 225.75,344.03C225.79,332.01 225.74,320 225.77,307.98C225.83,301.54 223.16,295.05 218.43,290.66C212.77,285.9 205.39,283.07 197.97,283.31C186.43,283.45 174.88,283.06 163.36,283.52Z" style="fill:#227dc1;fill-rule:nonzero;"/>
    </g>
</svg>
