<?xml version="1.0" encoding="UTF-8" standalone="no"?>
<!DOCTYPE svg PUBLIC "-//W3C//DTD SVG 1.1//EN" "http://www.w3.org/Graphics/SVG/1.1/DTD/svg11.dtd">
<svg width="64px" height="64px" viewBox="0 0 64 64" version="1.1" xmlns="http://www.w3.org/2000/svg" xmlns:xlink="http://www.w3.org/1999/xlink" xml:space="preserve" xmlns:serif="http://www.serif.com/" style="fill-rule:evenodd;clip-rule:evenodd;stroke-linejoin:round;stroke-miterlimit:2;">
    <g>
        <path d="M30.667,6.308L30.667,0.176C15.24,2.444 2.978,14.438 0.328,29.738L6.499,29.738C9.006,17.793 18.593,8.454 30.667,6.308Z" style="fill:#fff;fill-rule:nonzero;"/>
        <path d="M30.667,11.877L30.667,6.308C18.593,8.453 9.006,17.793 6.499,29.738L12.107,29.738C14.426,20.816 21.616,13.86 30.667,11.877Z" style="fill:#bcbbbb;fill-rule:nonzero;"/>
        <path d="M48.075,27.244L43.501,31.829C43.635,32.09 43.788,32.332 43.9,32.612C44.321,33.666 44.532,34.819 44.532,36.064L44.532,36.146C44.532,37.42 44.32,38.571 43.9,39.598C43.481,40.631 42.898,41.522 42.154,42.28C41.409,43.04 40.508,43.62 39.454,44.025C38.396,44.431 37.231,44.635 35.958,44.635L31.127,44.635L31.127,44.231L25.09,50.283L35.958,50.283C38.179,50.283 40.216,49.916 42.073,49.186C43.927,48.453 45.526,47.454 46.864,46.177C48.207,44.906 49.241,43.405 49.973,41.669C50.704,39.936 51.07,38.068 51.07,36.063L51.07,35.985C51.07,33.98 50.704,32.118 49.973,30.397C49.482,29.243 48.841,28.198 48.075,27.244Z" style="fill:#fff;fill-rule:nonzero;"/>
        <path d="M31.127,27.494L35.959,27.494C37.23,27.494 38.396,27.704 39.455,28.124C40.508,28.544 41.409,29.134 42.155,29.89C42.7,30.447 43.13,31.113 43.501,31.83L48.076,27.245C47.701,26.779 47.306,26.328 46.865,25.91C45.527,24.639 43.928,23.644 42.074,22.924C40.217,22.207 38.181,21.848 35.959,21.848L24.871,21.848L24.871,50.284L25.091,50.284L31.128,44.232L31.128,27.495L31.127,27.494Z" style="fill:#bcbbbb;fill-rule:nonzero;"/>
        <path d="M42.418,6.538L42.418,12.161C47.426,13.516 51.792,16.415 54.997,20.306L58.875,16.419C54.686,11.511 48.949,7.963 42.418,6.538Z" style="fill:#bcbbbb;fill-rule:nonzero;"/>
        <path d="M42.418,0.361L42.418,6.538C48.949,7.963 54.686,11.51 58.875,16.418L63.159,12.124C57.875,6.101 50.634,1.838 42.418,0.361ZM6.362,41.487L0.214,41.487C1.537,50.112 5.917,57.72 12.2,63.204L16.481,58.913C11.316,54.524 7.649,48.424 6.362,41.487Z" style="fill:#fff;fill-rule:nonzero;"/>
        <path d="M11.943,41.487L6.362,41.487C7.649,48.424 11.316,54.524 16.481,58.913L20.362,55.023C16.212,51.62 13.184,46.898 11.943,41.487Z" style="fill:#bcbbbb;fill-rule:nonzero;"/>
    </g>
</svg>
