<?xml version="1.0" encoding="UTF-8" standalone="no"?><!DOCTYPE svg PUBLIC "-//W3C//DTD SVG 1.1//EN" "http://www.w3.org/Graphics/SVG/1.1/DTD/svg11.dtd"><svg width="200px" height="64px" version="1.1" xmlns="http://www.w3.org/2000/svg" xmlns:xlink="http://www.w3.org/1999/xlink" xml:space="preserve" xmlns:serif="http://www.serif.com/" style="fill-rule:evenodd;clip-rule:evenodd;stroke-linejoin:round;stroke-miterlimit:1.41421;"><g><path d="M72.005,43.403C70.886,43.403 69.686,43.295 69.133,43.201C68.876,43.16 68.741,43.039 68.741,42.729L68.741,33.814C68.741,33.504 68.876,33.382 69.133,33.342C69.686,33.248 70.886,33.14 72.005,33.14C74.689,33.14 76.307,34.556 76.307,37.402L76.307,39.141C76.307,41.987 74.688,43.403 72.005,43.403ZM74.001,37.402C74.001,35.581 73.218,35.095 72.005,35.095C71.668,35.095 71.236,35.109 71.047,35.122L71.047,41.42C71.236,41.434 71.668,41.447 72.005,41.447C73.218,41.447 74.001,40.962 74.001,39.141L74.001,37.402ZM83.792,43.228C83.32,43.295 82.632,43.403 81.176,43.403C79.436,43.403 77.899,42.958 77.899,40.503L77.899,36.026C77.899,33.571 79.45,33.14 81.19,33.14C82.646,33.14 83.32,33.248 83.793,33.315C83.981,33.342 84.063,33.409 84.063,33.585L84.063,34.839C84.063,34.987 83.941,35.109 83.793,35.109L81.055,35.109C80.421,35.109 80.192,35.324 80.192,36.026L80.192,37.253L83.685,37.253C83.833,37.253 83.955,37.374 83.955,37.523L83.955,38.804C83.955,38.952 83.833,39.074 83.685,39.074L80.192,39.074L80.192,40.503C80.192,41.204 80.421,41.42 81.055,41.42L83.793,41.42C83.941,41.42 84.063,41.541 84.063,41.69L84.063,42.944C84.063,43.119 83.981,43.201 83.792,43.228ZM89.133,39.775C88.81,39.775 88.378,39.748 88.041,39.735L88.041,43.012C88.041,43.16 87.919,43.282 87.771,43.282L86.031,43.282C85.883,43.282 85.761,43.174 85.761,43.025L85.761,33.962C85.761,33.504 85.95,33.382 86.368,33.315C87.056,33.207 88.135,33.14 89.106,33.14C91.142,33.14 93.152,33.855 93.152,36.39L93.152,36.512C93.152,39.033 91.143,39.775 89.133,39.775ZM90.86,36.39C90.86,35.432 90.266,35.055 89.133,35.055C88.945,35.055 88.203,35.082 88.041,35.095L88.041,37.846C88.189,37.86 88.985,37.873 89.133,37.873C90.334,37.873 90.86,37.428 90.86,36.511L90.86,36.39ZM100.395,43.228C99.922,43.295 99.235,43.403 97.779,43.403C96.039,43.403 94.501,42.958 94.501,40.503L94.501,36.026C94.501,33.571 96.052,33.14 97.792,33.14C99.249,33.14 99.923,33.248 100.395,33.315C100.584,33.342 100.665,33.409 100.665,33.585L100.665,34.839C100.665,34.987 100.544,35.109 100.395,35.109L97.658,35.109C97.024,35.109 96.794,35.324 96.794,36.026L96.794,37.253L100.287,37.253C100.436,37.253 100.558,37.374 100.558,37.523L100.558,38.804C100.558,38.952 100.436,39.074 100.287,39.074L96.794,39.074L96.794,40.503C96.794,41.204 97.024,41.42 97.658,41.42L100.395,41.42C100.544,41.42 100.665,41.541 100.665,41.69L100.665,42.944C100.664,43.119 100.584,43.201 100.395,43.228ZM109.781,43.282L108.46,43.282C108.176,43.282 107.974,43.228 107.759,42.864L104.684,37.55C104.63,37.469 104.603,37.442 104.563,37.442C104.522,37.442 104.495,37.469 104.495,37.55L104.495,43.012C104.495,43.16 104.374,43.282 104.225,43.282L102.634,43.282C102.486,43.282 102.364,43.16 102.364,43.012L102.364,33.774C102.364,33.49 102.593,33.261 102.877,33.261L104.239,33.261C104.509,33.261 104.643,33.396 104.806,33.68L108.002,39.236C108.055,39.317 108.069,39.344 108.109,39.344C108.137,39.344 108.176,39.317 108.176,39.222L108.176,33.518C108.176,33.369 108.298,33.261 108.447,33.261L110.038,33.261C110.187,33.261 110.308,33.369 110.308,33.518L110.308,42.769C110.308,43.052 110.065,43.282 109.781,43.282ZM115.46,43.403C114.34,43.403 113.14,43.295 112.588,43.201C112.331,43.16 112.196,43.039 112.196,42.729L112.196,33.814C112.196,33.504 112.331,33.382 112.588,33.342C113.14,33.248 114.34,33.14 115.46,33.14C118.143,33.14 119.762,34.556 119.762,37.402L119.762,39.141C119.762,41.987 118.144,43.403 115.46,43.403ZM117.456,37.402C117.456,35.581 116.674,35.095 115.46,35.095C115.123,35.095 114.691,35.109 114.502,35.122L114.502,41.42C114.691,41.434 115.123,41.447 115.46,41.447C116.674,41.447 117.456,40.962 117.456,39.141L117.456,37.402ZM127.247,43.228C126.775,43.295 126.088,43.403 124.631,43.403C122.891,43.403 121.354,42.958 121.354,40.503L121.354,36.026C121.354,33.571 122.905,33.14 124.645,33.14C126.101,33.14 126.776,33.248 127.248,33.315C127.437,33.342 127.518,33.409 127.518,33.585L127.518,34.839C127.518,34.987 127.396,35.109 127.248,35.109L124.511,35.109C123.876,35.109 123.647,35.324 123.647,36.026L123.647,37.253L127.14,37.253C127.288,37.253 127.41,37.374 127.41,37.523L127.41,38.804C127.41,38.952 127.288,39.074 127.14,39.074L123.647,39.074L123.647,40.503C123.647,41.204 123.876,41.42 124.511,41.42L127.248,41.42C127.396,41.42 127.518,41.541 127.518,41.69L127.518,42.944C127.517,43.119 127.436,43.201 127.247,43.228ZM136.634,43.282L135.313,43.282C135.029,43.282 134.827,43.228 134.612,42.864L131.537,37.55C131.483,37.469 131.456,37.442 131.415,37.442C131.375,37.442 131.348,37.469 131.348,37.55L131.348,43.012C131.348,43.16 131.227,43.282 131.078,43.282L129.487,43.282C129.339,43.282 129.217,43.16 129.217,43.012L129.217,33.774C129.217,33.49 129.447,33.261 129.73,33.261L131.092,33.261C131.362,33.261 131.496,33.396 131.658,33.68L134.855,39.236C134.909,39.317 134.922,39.344 134.962,39.344C134.99,39.344 135.03,39.317 135.03,39.222L135.03,33.518C135.03,33.369 135.151,33.261 135.3,33.261L136.891,33.261C137.039,33.261 137.161,33.369 137.161,33.518L137.161,42.769C137.16,43.052 136.918,43.282 136.634,43.282ZM144.821,43.174C144.538,43.268 143.755,43.403 142.812,43.403C140.762,43.403 138.82,42.324 138.82,39.114L138.82,37.415C138.82,34.205 140.762,33.139 142.812,33.139C143.755,33.139 144.538,33.274 144.821,33.369C145.01,33.423 145.117,33.477 145.117,33.666L145.117,34.974C145.117,35.136 145.037,35.244 144.861,35.244C144.848,35.244 144.834,35.244 144.821,35.244C144.308,35.203 143.567,35.136 142.825,35.136C141.894,35.136 141.153,35.621 141.153,37.415L141.153,39.114C141.153,40.908 141.894,41.393 142.825,41.393C143.567,41.393 144.309,41.326 144.821,41.286C144.834,41.286 144.848,41.286 144.861,41.286C145.037,41.286 145.117,41.393 145.117,41.556L145.117,42.864C145.117,43.052 145.01,43.119 144.821,43.174ZM154.1,33.558L152.063,38.224C151.793,38.845 151.51,39.128 151.186,39.263L151.186,43.012C151.186,43.16 151.065,43.282 150.917,43.282L149.15,43.282C149.002,43.282 148.88,43.16 148.88,43.012L148.88,39.263C148.556,39.128 148.26,38.845 147.99,38.224L145.954,33.558C145.94,33.531 145.94,33.49 145.94,33.464C145.94,33.355 146.021,33.261 146.156,33.261L148.098,33.261C148.233,33.261 148.327,33.369 148.368,33.49L149.824,37.293C149.891,37.469 149.932,37.496 150.026,37.496C150.121,37.496 150.162,37.469 150.229,37.293L151.685,33.49C151.726,33.369 151.82,33.261 151.955,33.261L153.897,33.261C154.032,33.261 154.113,33.355 154.113,33.464C154.113,33.49 154.113,33.531 154.1,33.558ZM157.741,39.964L155.125,39.964C154.977,39.964 154.855,39.87 154.855,39.721L154.855,38.642C154.855,38.494 154.977,38.386 155.125,38.386L157.741,38.386C157.89,38.386 158.011,38.494 158.011,38.642L158.011,39.721C158.011,39.87 157.89,39.964 157.741,39.964Z" style="fill:#bcbbbb;fill-rule:nonzero;"/><path d="M30.667,6.308L30.667,0.176C15.24,2.444 2.978,14.438 0.328,29.738L6.499,29.738C9.006,17.793 18.593,8.454 30.667,6.308Z" style="fill:#fff;fill-rule:nonzero;"/><path d="M30.667,11.877L30.667,6.308C18.593,8.453 9.006,17.793 6.499,29.738L12.107,29.738C14.426,20.816 21.616,13.86 30.667,11.877Z" style="fill:#bcbbbb;fill-rule:nonzero;"/><path d="M48.075,27.244L43.501,31.829C43.635,32.09 43.788,32.332 43.9,32.612C44.321,33.666 44.532,34.819 44.532,36.064L44.532,36.146C44.532,37.42 44.32,38.571 43.9,39.598C43.481,40.631 42.898,41.522 42.154,42.28C41.409,43.04 40.508,43.62 39.454,44.025C38.396,44.431 37.231,44.635 35.958,44.635L31.127,44.635L31.127,44.231L25.09,50.283L35.958,50.283C38.179,50.283 40.216,49.916 42.073,49.186C43.927,48.453 45.526,47.454 46.864,46.177C48.207,44.906 49.241,43.405 49.973,41.669C50.704,39.936 51.07,38.068 51.07,36.063L51.07,35.985C51.07,33.98 50.704,32.118 49.973,30.397C49.482,29.243 48.841,28.198 48.075,27.244L48.075,27.244Z" style="fill:#fff;fill-rule:nonzero;"/><path d="M31.127,27.494L35.959,27.494C37.23,27.494 38.396,27.704 39.455,28.124C40.508,28.544 41.409,29.134 42.155,29.89C42.7,30.447 43.13,31.113 43.501,31.83L48.076,27.245C47.701,26.779 47.306,26.328 46.865,25.91C45.527,24.639 43.928,23.644 42.074,22.924C40.217,22.207 38.181,21.848 35.959,21.848L24.871,21.848L24.871,50.284L25.091,50.284L31.128,44.232L31.128,27.495L31.127,27.494Z" style="fill:#bcbbbb;fill-rule:nonzero;"/><path d="M42.418,6.538L42.418,12.161C47.426,13.516 51.792,16.415 54.997,20.306L58.875,16.419C54.686,11.511 48.949,7.963 42.418,6.538Z" style="fill:#bcbbbb;fill-rule:nonzero;"/><path d="M42.418,0.361L42.418,6.538C48.949,7.963 54.686,11.51 58.875,16.418L63.159,12.124C57.875,6.101 50.634,1.838 42.418,0.361L42.418,0.361ZM6.362,41.487L0.214,41.487C1.537,50.112 5.917,57.72 12.2,63.204L16.481,58.913C11.316,54.524 7.649,48.424 6.362,41.487Z" style="fill:#fff;fill-rule:nonzero;"/><path d="M11.943,41.487L6.362,41.487C7.649,48.424 11.316,54.524 16.481,58.913L20.362,55.023C16.212,51.62 13.184,46.898 11.943,41.487Z" style="fill:#bcbbbb;fill-rule:nonzero;"/><g><path d="M165.378,33.628C165.545,33.628 165.629,33.707 165.629,33.865L165.629,35.087C165.629,35.245 165.545,35.324 165.378,35.324L163.128,35.324L163.128,43.118C163.128,43.275 163.049,43.354 162.891,43.354L161.21,43.354C161.053,43.354 160.974,43.275 160.974,43.118L160.974,35.324L158.723,35.324C158.556,35.324 158.473,35.245 158.473,35.087L158.473,33.865C158.473,33.707 158.556,33.628 158.723,33.628L165.378,33.628Z" style="fill:#fff;fill-rule:nonzero;"/><path d="M172.423,43.354C172.284,43.354 172.175,43.329 172.096,43.278C172.018,43.227 171.955,43.15 171.909,43.049L170.38,39.853L170.255,39.853C170.079,39.853 169.88,39.851 169.658,39.846C169.436,39.841 169.223,39.83 169.019,39.811L169.019,43.118C169.019,43.275 168.94,43.354 168.783,43.354L167.101,43.354C166.944,43.354 166.865,43.275 166.865,43.118L166.865,34.545C166.865,34.304 166.902,34.124 166.976,34.004C167.05,33.883 167.185,33.8 167.379,33.753C167.778,33.651 168.231,33.577 168.741,33.531C169.25,33.485 169.755,33.462 170.255,33.462C170.894,33.462 171.434,33.529 171.874,33.663C172.314,33.797 172.671,33.994 172.944,34.254C173.217,34.513 173.414,34.828 173.534,35.198C173.655,35.569 173.715,35.995 173.715,36.477L173.715,36.838C173.715,37.477 173.606,38.019 173.388,38.464C173.171,38.908 172.812,39.251 172.312,39.492L174.187,43.104C174.234,43.197 174.236,43.262 174.194,43.299C174.152,43.335 174.104,43.354 174.048,43.354L172.423,43.354ZM170.089,38.158C170.7,38.158 171.117,38.051 171.339,37.838C171.561,37.625 171.673,37.283 171.673,36.81L171.673,36.505C171.673,36.032 171.561,35.689 171.339,35.476C171.117,35.263 170.7,35.157 170.089,35.157C169.903,35.157 169.718,35.166 169.533,35.185C169.348,35.203 169.176,35.235 169.019,35.282L169.019,38.116C169.204,38.135 169.389,38.146 169.575,38.151C169.76,38.156 169.931,38.158 170.089,38.158Z" style="fill:#fff;fill-rule:nonzero;"/><path d="M180.356,33.628C180.56,33.628 180.685,33.721 180.731,33.906L183.246,43.076C183.265,43.15 183.26,43.215 183.232,43.271C183.205,43.327 183.149,43.354 183.066,43.354L181.371,43.354C181.213,43.354 181.121,43.289 181.093,43.16L180.676,41.479L177.647,41.479L177.23,43.16C177.202,43.289 177.11,43.354 176.952,43.354L175.257,43.354C175.174,43.354 175.118,43.327 175.09,43.271C175.063,43.215 175.058,43.15 175.077,43.076L177.591,33.906C177.638,33.721 177.763,33.628 177.967,33.628L180.356,33.628ZM178.064,39.784L180.259,39.784L179.161,35.324L178.064,39.784Z" style="fill:#fff;fill-rule:nonzero;"/><path d="M188.776,41.826C189.128,41.826 189.453,41.819 189.749,41.805C190.045,41.791 190.351,41.761 190.666,41.715C190.805,41.705 190.874,41.77 190.874,41.909L190.874,42.951C190.874,43.072 190.8,43.155 190.652,43.201C190.337,43.303 189.967,43.382 189.54,43.438C189.114,43.493 188.711,43.521 188.332,43.521C187.581,43.521 186.947,43.414 186.428,43.201C185.91,42.988 185.488,42.68 185.164,42.277C184.84,41.874 184.603,41.381 184.455,40.798C184.307,40.214 184.233,39.552 184.233,38.811L184.233,38.172C184.233,37.43 184.305,36.769 184.448,36.185C184.592,35.601 184.823,35.108 185.143,34.705C185.462,34.302 185.882,33.994 186.4,33.781C186.919,33.568 187.553,33.462 188.304,33.462C188.693,33.462 189.086,33.496 189.485,33.566C189.883,33.635 190.231,33.721 190.527,33.823C190.61,33.851 190.666,33.883 190.694,33.92C190.721,33.957 190.735,34.008 190.735,34.073L190.735,35.073C190.735,35.212 190.666,35.277 190.527,35.268C190.267,35.231 189.985,35.203 189.679,35.185C189.374,35.166 189.063,35.157 188.748,35.157C188.304,35.157 187.931,35.217 187.63,35.337C187.329,35.458 187.086,35.648 186.9,35.907C186.715,36.166 186.583,36.493 186.504,36.886C186.426,37.28 186.386,37.746 186.386,38.283L186.386,38.714C186.386,39.251 186.428,39.716 186.511,40.11C186.595,40.504 186.731,40.828 186.921,41.082C187.111,41.337 187.359,41.525 187.665,41.645C187.97,41.765 188.341,41.826 188.776,41.826Z" style="fill:#fff;fill-rule:nonzero;"/><path d="M199.461,33.628C199.535,33.628 199.586,33.656 199.614,33.712C199.641,33.767 199.632,33.827 199.586,33.892L196.612,38.311L199.975,43.104C200.012,43.15 200.019,43.204 199.995,43.264C199.973,43.324 199.919,43.354 199.836,43.354L197.877,43.354C197.775,43.354 197.696,43.34 197.641,43.313C197.585,43.285 197.534,43.234 197.488,43.16L194.639,38.825L194.639,43.118C194.639,43.275 194.561,43.354 194.403,43.354L192.722,43.354C192.565,43.354 192.486,43.275 192.486,43.118L192.486,33.879C192.486,33.712 192.565,33.628 192.722,33.628L194.403,33.628C194.561,33.628 194.639,33.712 194.639,33.879L194.639,37.797L197.293,33.795C197.377,33.684 197.483,33.628 197.613,33.628L199.461,33.628Z" style="fill:#fff;fill-rule:nonzero;"/></g></g></svg>