<?xml version="1.0" encoding="UTF-8" standalone="no"?>
<!DOCTYPE svg PUBLIC "-//W3C//DTD SVG 1.1//EN" "http://www.w3.org/Graphics/SVG/1.1/DTD/svg11.dtd">
<svg width="100%" height="100%" viewBox="0 0 195 60" version="1.1" xmlns="http://www.w3.org/2000/svg" xmlns:xlink="http://www.w3.org/1999/xlink" xml:space="preserve" xmlns:serif="http://www.serif.com/" style="fill-rule:evenodd;clip-rule:evenodd;stroke-linejoin:round;stroke-miterlimit:2;">
    <g>
        <path d="M29.867,60C13.372,60 0,46.628 0,30.133C0,13.638 13.372,0.266 29.867,0.266C46.361,0.266 59.733,13.638 59.733,30.133C59.733,46.628 46.361,60 29.867,60ZM29.867,4.862C15.91,4.862 4.596,16.177 4.596,30.133C4.596,44.089 15.91,55.403 29.867,55.403C43.823,55.403 55.137,44.089 55.137,30.133C55.137,16.177 43.823,4.862 29.867,4.862Z" style="fill:rgb(239,239,239);fill-rule:nonzero;"/>
        <path d="M39.566,51.297C38.611,51.296 35.131,45.102 34.663,43.336C33.685,39.638 33.895,38.076 33.954,37.576C34.133,36.051 35.613,35.289 35.702,33.227C35.73,32.59 36.051,29.406 36.308,26.919C35.675,26.795 35.044,26.509 34.483,26.066C36.167,28.325 33.688,31.032 30.086,34.635C26.263,38.458 17.777,42.006 17.777,42.006C17.777,42.006 21.326,33.52 25.149,29.697C27.959,26.887 30.224,24.761 32.157,24.761C32.702,24.761 33.221,24.93 33.717,25.3C33.274,24.739 32.988,24.108 32.864,23.475C30.377,23.732 27.193,24.054 26.556,24.081C24.494,24.171 23.731,25.65 22.208,25.83C22.032,25.85 21.725,25.89 21.242,25.89C20.347,25.89 18.847,25.755 16.448,25.12C14.527,24.612 7.369,20.54 8.635,20.028C9.281,19.767 11.338,19.591 14.048,19.591C16.654,19.591 19.863,19.754 22.997,20.162C26.906,20.672 30.49,21.316 32.933,21.795C32.972,21.664 33.019,21.536 33.076,21.412L30.58,20.215C30.58,20.215 28.585,17.927 28.798,17.769C28.806,17.763 28.817,17.76 28.829,17.76C29.142,17.76 30.738,19.584 30.891,19.791C31.01,19.831 31.686,20.056 32.397,20.293L31.691,19.675C31.691,19.675 30.724,16.095 30.976,16.011C30.979,16.01 30.983,16.009 30.986,16.009C31.251,16.009 32.129,19.123 32.204,19.346C32.377,19.498 32.959,19.724 33.686,20.144L32.921,18.176C32.921,18.176 33.267,14.929 33.527,14.929C33.529,14.929 33.531,14.929 33.533,14.929C33.794,14.982 33.482,17.638 33.415,17.969C33.51,18.114 34.097,19.014 34.686,19.917C35.048,19.78 35.437,19.713 35.837,19.713C36.296,19.713 36.768,19.802 37.226,19.977C36.64,18.728 36.684,17.426 37.462,16.649C37.708,16.403 38.007,16.23 38.34,16.128C38.381,15.901 38.486,15.686 38.659,15.513C38.884,15.288 39.18,15.176 39.48,15.176C39.794,15.176 40.112,15.298 40.356,15.542C40.59,15.775 40.711,16.077 40.721,16.377C41.097,15.603 41.54,14.558 41.509,14.22C41.437,13.454 40.549,12.099 40.54,12.086C40.482,11.998 40.506,11.88 40.594,11.822C40.626,11.801 40.663,11.79 40.699,11.79C40.76,11.79 40.821,11.821 40.857,11.876C40.896,11.935 41.807,13.325 41.887,14.185C41.933,14.677 41.368,15.917 41.06,16.551C41.492,16.788 41.914,17.1 42.299,17.485C42.684,17.87 42.996,18.291 43.233,18.724C43.842,18.427 45.012,17.893 45.539,17.893C45.56,17.893 45.58,17.894 45.599,17.896C46.459,17.977 47.849,18.887 47.907,18.926C47.995,18.983 48.019,19.102 47.961,19.189C47.925,19.245 47.864,19.275 47.802,19.275C47.766,19.275 47.73,19.265 47.698,19.244C47.684,19.235 46.329,18.347 45.563,18.275C45.552,18.274 45.539,18.274 45.526,18.274C45.154,18.274 44.154,18.699 43.406,19.062C43.707,19.072 44.008,19.194 44.241,19.428C44.718,19.904 44.731,20.664 44.271,21.124C44.098,21.297 43.883,21.404 43.656,21.443C43.553,21.776 43.381,22.076 43.135,22.322C42.706,22.751 42.118,22.957 41.467,22.957C40.937,22.957 40.366,22.82 39.806,22.557C40.134,23.414 40.159,24.32 39.867,25.098C40.769,25.686 41.67,26.273 41.815,26.368C42.052,26.321 43.475,26.148 44.287,26.148C44.612,26.148 44.839,26.176 44.854,26.25C44.906,26.511 41.608,26.863 41.608,26.863L39.639,26.097C40.059,26.825 40.286,27.407 40.437,27.58C40.664,27.656 43.856,28.555 43.772,28.808C43.763,28.837 43.706,28.849 43.615,28.849C42.912,28.849 40.108,28.092 40.108,28.092L39.49,27.386C39.727,28.098 39.952,28.774 39.992,28.892C40.208,29.052 42.172,30.771 42.014,30.985C42.006,30.996 41.993,31.001 41.974,31.001C41.63,31.001 39.568,29.204 39.568,29.204L38.371,26.707C38.248,26.764 38.119,26.811 37.988,26.851C38.467,29.293 39.112,32.877 39.622,36.785C40.454,43.18 40.267,49.881 39.755,51.148C39.714,51.25 39.65,51.297 39.566,51.297Z" style="fill:rgb(180,180,181);fill-rule:nonzero;"/>
        <path d="M82.858,23.382C82.858,20.237 82.323,18.55 75.94,18.55C69.595,18.55 69.06,20.237 69.06,23.382L69.06,35.038C69.06,38.182 69.595,39.869 75.94,39.869C82.323,39.869 82.858,38.182 82.858,35.038L82.858,23.382ZM75.94,42.285C67.034,42.285 66.002,39.524 66.002,35.383L66.002,23.037C66.002,18.934 67.034,16.135 75.94,16.135C84.884,16.135 85.916,18.934 85.916,23.037L85.916,35.383C85.916,39.524 84.884,42.285 75.94,42.285Z" style="fill:rgb(239,239,239);fill-rule:nonzero;"/>
        <path d="M107.392,16.442L107.392,34.999C107.392,38.144 108.003,39.831 112.59,39.831C117.252,39.831 117.788,38.144 117.788,34.999L117.788,16.442L120.845,16.442L120.845,35.383C120.845,39.524 119.775,42.285 112.59,42.285C108.5,42.285 106.666,40.597 105.863,39.294C105.06,40.597 103.226,42.285 99.136,42.285C91.95,42.285 90.88,39.524 90.88,35.383L90.88,16.442L93.938,16.442L93.938,34.999C93.938,38.144 94.473,39.831 99.136,39.831C103.722,39.831 104.334,38.144 104.334,34.999L104.334,16.442L107.392,16.442Z" style="fill:rgb(239,239,239);fill-rule:nonzero;"/>
        <path d="M142.597,23.382C142.597,20.237 142.176,18.55 135.793,18.55C129.41,18.55 128.99,20.237 128.99,23.382L128.99,29.861L142.597,29.861L142.597,23.382ZM145.654,42.016L142.597,42.016L142.597,32.546L128.99,32.546L128.99,42.016L125.932,42.016L125.932,23.037C125.932,18.934 126.888,16.135 135.793,16.135C144.699,16.135 145.654,18.934 145.654,23.037L145.654,42.016Z" style="fill:rgb(239,239,239);fill-rule:nonzero;"/>
        <path d="M160.381,42.323C151.476,42.323 150.52,39.524 150.52,35.421L150.52,33.389L153.578,33.389L153.578,35.076C153.578,38.22 153.998,39.908 160.381,39.908C166.764,39.908 167.185,38.22 167.185,35.076L167.185,34.692C167.185,32.354 166.038,31.434 163.706,31.05L155.756,29.785C152.126,29.21 150.52,27.178 150.52,24.34L150.52,23.075C150.52,18.934 151.476,16.173 160.381,16.173C169.287,16.173 170.242,18.934 170.242,23.075L170.242,23.957L167.185,23.957L167.185,23.42C167.185,20.276 166.764,18.589 160.381,18.589C153.998,18.589 153.578,20.276 153.578,23.42L153.578,24.034C153.578,25.721 154.19,26.756 156.444,27.139L164.93,28.519C168.408,29.095 170.242,30.858 170.242,34.041L170.242,35.421C170.242,39.524 169.287,42.323 160.381,42.323Z" style="fill:rgb(239,239,239);fill-rule:nonzero;"/>
        <path d="M191.86,23.65C191.86,20.506 190.445,18.857 186.738,18.857L178.253,18.857L178.253,32.239L186.738,32.239C190.484,32.239 191.86,30.552 191.86,27.408L191.86,23.65ZM186.738,34.654L178.253,34.654L178.253,42.016L175.195,42.016L175.195,16.442L186.738,16.442C193.006,16.442 194.917,19.202 194.917,23.343L194.917,27.753C194.917,31.855 193.006,34.654 186.738,34.654Z" style="fill:rgb(239,239,239);fill-rule:nonzero;"/>
    </g>
</svg>
