<?xml version="1.0" encoding="utf-8"?><svg width="100%" height="100%" version="1.1" viewBox="284 294 460.9031 204" xmlns:xlink="http://www.w3.org/1999/xlink" xmlns="http://www.w3.org/2000/svg"><defs /><marker id="marker1" markerUnits="strokeWidth" orient="auto" refX="11.17254" refY="0" markerWidth="13.27247" markerHeight="10.22955" viewBox="-1 -5.114774 13.27247 10.22955"><path d="M11.27247 4.114773 L0 0 L11.27247 -4.114774 Z " fill="none" stroke="#FC6665" stroke-opacity="1" /></marker><marker id="marker2" markerUnits="strokeWidth" orient="auto" refX="-11.17254" refY="0" markerWidth="13.27247" markerHeight="10.22955" viewBox="-12.27247 -5.114774 13.27247 10.22955"><path d="M-11.27247 -4.114774 L0 0 L-11.27247 4.114773 Z " fill="none" stroke="#FC6665" stroke-opacity="1" /></marker><marker id="marker3" markerUnits="strokeWidth" orient="auto" refX="-11.17254" refY="0" markerWidth="13.27247" markerHeight="10.22955" viewBox="-12.27247 -5.114774 13.27247 10.22955"><path d="M-11.27247 -4.114774 L0 0 L-11.27247 4.114773 Z " fill="none" stroke="#FC6665" stroke-opacity="1" /></marker><g id="layer1"><rect x="288" y="315" width="72" height="180" rx="9" ry="9" opacity="1" stroke="#227DC1" stroke-opacity="1" stroke-width="1" stroke-linecap="butt" stroke-linejoin="miter" stroke-dasharray="none" fill-opacity="0" /><rect x="504" y="315" width="72" height="90" rx="9" ry="9" opacity="1" stroke="#227DC1" stroke-opacity="1" stroke-width="1" stroke-linecap="butt" stroke-linejoin="miter" stroke-dasharray="none" fill-opacity="0" /><text x="296.63" y="476.98" font-size="12" fill="#227DC1" fill-opacity="1" font-family="LG Smart" font-weight="normal" font-style="normal">DT API Server</text><line x1="588.1725" y1="360.0466" x2="717.2142" y2="360.1737" marker-start="url(#marker1)" opacity="1" stroke="#FC6665" stroke-opacity="1" stroke-width="1" stroke-linecap="butt" stroke-linejoin="miter" stroke-dasharray="none" /><text x="291" y="309.2" font-size="14" fill="#7F7F7E" fill-opacity="1" font-family="LG Smart" font-weight="normal" font-style="normal">Deployment</text><rect x="513" y="324" width="54" height="54" rx="9" ry="9" opacity="1" stroke="#227DC1" stroke-opacity="1" stroke-width="1" stroke-linecap="butt" stroke-linejoin="miter" stroke-dasharray="none" fill-opacity="0" /><g><g><path d="M292.6727 427.7802 C292.0753 427.7802 291.6336 427.5887 291.3478 427.1893 C291.0552 426.7995 290.9061 426.3222 290.8899 425.7636 L290.88 425.5329 L290.8864 425.2994 C290.9061 424.7409 291.0521 424.2568 291.3442 423.864 C291.6269 423.4741 292.0685 423.2823 292.6695 423.2792 C293.2768 423.2792 293.7442 423.4968 294.0692 423.9384 L294.0658 421.9638 C294.0658 421.9055 294.0856 421.8631 294.1177 421.8311 C294.1501 421.7949 294.1926 421.7786 294.2508 421.7786 L294.394 421.7786 C294.4522 421.7786 294.4915 421.7949 294.5272 421.8311 C294.5596 421.8631 294.5756 421.9055 294.5756 421.9606 L294.5791 427.5107 C294.5791 427.5693 294.5629 427.6113 294.5303 427.6439 C294.4979 427.6763 294.4554 427.6958 294.3971 427.6958 L294.2541 427.6958 C294.1958 427.6958 294.1569 427.6763 294.1244 427.6439 C294.0887 427.6113 294.0725 427.5693 294.0725 427.5107 L294.0725 427.1208 C293.7478 427.5627 293.2799 427.7771 292.6727 427.7802 Z M292.7215 427.2966 C293.1631 427.2966 293.4878 427.1471 293.7153 426.855 C293.9392 426.5692 294.0563 426.2215 294.0725 425.8286 C294.0788 425.7698 294.0788 425.6628 294.0788 425.504 C294.0788 425.3445 294.0788 425.2375 294.0692 425.1789 C294.0626 424.9385 294.0138 424.7115 293.913 424.4969 C293.8093 424.2892 293.6634 424.1137 293.462 423.9709 C293.2638 423.8314 293.0104 423.7631 292.7215 423.7631 C292.2698 423.7631 291.9452 423.9059 291.7375 424.1886 C291.5261 424.4807 291.4124 424.8477 291.3965 425.2994 L291.3898 425.5296 C291.3898 426.0495 291.4905 426.4749 291.6886 426.7964 C291.8901 427.1309 292.231 427.2966 292.7215 427.2966 Z " fill-rule="evenodd" opacity="1" fill="#222222" fill-opacity="1" /></g><g><path d="M297.5472 427.7738 C297.0211 427.7771 296.5958 427.6018 296.2711 427.2509 C295.9464 426.91 295.7613 426.4454 295.7189 425.8612 L295.7126 425.5265 L295.7189 425.1918 C295.7613 424.6202 295.9428 424.153 296.2711 423.802 C296.5858 423.4512 297.0112 423.2759 297.5439 423.2759 C298.1188 423.2759 298.5668 423.4675 298.9015 423.8508 C299.2197 424.2341 299.3854 424.7567 299.3854 425.4227 L299.3854 425.549 C299.3854 425.6078 299.3692 425.6497 299.3367 425.6823 C299.2943 425.7148 299.2522 425.7311 299.1939 425.7311 L296.2287 425.7342 L296.2287 425.8186 C296.2386 426.0787 296.3036 426.319 296.4138 426.5431 C296.5213 426.767 296.6703 426.9521 296.8653 427.0822 C297.0537 427.2249 297.2876 427.2931 297.5472 427.2898 C297.8557 427.2898 298.1025 427.2316 298.2941 427.1082 C298.4891 426.9913 298.6191 426.8744 298.7036 426.7476 C298.7555 426.6826 298.7944 426.6404 298.8202 426.6242 C298.8462 426.608 298.8851 426.5981 298.9534 426.5981 L299.0865 426.5981 C299.1353 426.5981 299.1777 426.6144 299.2134 426.6404 C299.2458 426.6662 299.2621 426.7086 299.2621 426.7476 C299.2621 426.8644 299.1873 427.0075 299.0477 427.1666 C298.8951 427.3322 298.6874 427.4749 298.4304 427.5919 C298.1707 427.7151 297.8719 427.7738 297.5472 427.7738 Z M298.8788 425.2669 L298.8788 425.2344 C298.8788 424.809 298.7619 424.4514 298.5185 424.1755 C298.2747 423.8995 297.95 423.76 297.5439 423.76 C297.1349 423.76 296.8165 423.9027 296.5858 424.1755 C296.3456 424.4514 296.2287 424.809 296.2287 425.2344 L296.2287 425.27 L298.8788 425.2669 Z " fill-rule="evenodd" opacity="1" fill="#222222" fill-opacity="1" /></g><g><path d="M300.681 429.2708 C300.6227 429.2744 300.5807 429.2545 300.5482 429.222 C300.5157 429.1899 300.4963 429.1476 300.4963 429.0892 L300.4927 423.5388 C300.4927 423.4807 300.5089 423.4417 300.5415 423.4059 C300.5771 423.3735 300.6164 423.3572 300.6746 423.3572 L300.8177 423.3572 C300.876 423.3572 300.918 423.3735 300.9506 423.4059 C300.983 423.4386 300.9994 423.4807 300.9994 423.5388 L300.9994 423.9321 C301.3275 423.4905 301.7918 423.2727 302.3991 423.2727 C303.0001 423.2727 303.4417 423.4642 303.7339 423.8376 C304.0165 424.2211 304.1656 424.6852 304.1855 425.2439 C304.1949 425.3026 304.1949 425.3965 304.1949 425.5202 C304.1949 425.6436 304.1949 425.7375 304.1855 425.7961 C304.1693 426.3514 304.0198 426.8189 303.7371 427.1958 C303.4449 427.5788 303.0033 427.7707 302.4055 427.7707 C301.795 427.7707 301.3308 427.5563 301.0026 427.1146 L301.0061 429.0892 C301.0061 429.1476 300.9897 429.1899 300.9541 429.222 C300.9216 429.2545 300.8824 429.2708 300.8209 429.2708 L300.681 429.2708 Z M302.3536 427.2867 C302.8051 427.2867 303.1365 427.1439 303.3443 426.855 C303.5455 426.5692 303.6625 426.2021 303.6788 425.7537 C303.6851 425.6954 303.6851 425.6208 303.6851 425.5202 C303.6851 425.0035 303.5845 424.5782 303.383 424.2468 C303.1848 423.9221 302.8408 423.7532 302.3503 423.7532 C301.9088 423.7565 301.5841 423.8964 301.3601 424.1886 C301.1357 424.4807 301.0187 424.8315 301.0026 425.2213 L300.9962 425.5459 L301.0026 425.8706 C301.0123 426.1144 301.0612 426.3384 301.162 426.5461 C301.2626 426.7638 301.412 426.9394 301.6134 427.0789 C301.8143 427.2216 302.0614 427.2867 302.3536 427.2867 Z " fill-rule="evenodd" opacity="1" fill="#222222" fill-opacity="1" /></g><g><path d="M306.9359 427.7671 C306.4099 427.7671 305.9877 427.5919 305.663 427.2445 C305.3351 426.9002 305.1532 426.4359 305.1108 425.8511 L305.1012 425.5202 L305.1108 425.1855 C305.15 424.6107 305.3351 424.1429 305.6598 423.7921 C305.9745 423.4449 306.4003 423.2697 306.9328 423.2661 C307.5076 423.2661 307.9591 423.4579 308.2902 423.8409 C308.6085 424.2242 308.7741 424.7503 308.7774 425.4159 L308.7774 425.5428 C308.7774 425.5978 308.7579 425.6404 308.7254 425.6729 C308.6834 425.7085 308.641 425.7249 308.5858 425.7249 L305.6174 425.728 L305.6205 425.8091 C305.6273 426.0689 305.6954 426.3091 305.8025 426.5366 C305.9099 426.7606 306.0626 426.9425 306.2509 427.0757 C306.4455 427.2185 306.6795 427.2834 306.9359 427.2834 C307.2444 427.2834 307.4945 427.2249 307.6864 427.0983 C307.8778 426.9814 308.011 426.8644 308.0923 426.7411 C308.1442 426.6729 308.183 426.6337 308.2124 426.6144 C308.235 426.5981 308.2775 426.5916 308.342 426.5916 L308.4753 426.5916 C308.5272 426.5916 308.5696 426.608 308.6021 426.6306 C308.6346 426.6567 308.6509 426.6988 308.6509 426.7411 C308.6509 426.8581 308.576 426.9977 308.4364 427.1567 C308.287 427.3223 308.076 427.4655 307.8192 427.5824 C307.5626 427.7088 307.2607 427.7671 306.9359 427.7671 Z M308.2675 425.2569 L308.2675 425.2244 C308.2675 424.7991 308.1506 424.4419 307.9104 424.166 C307.6665 423.8929 307.3419 423.7501 306.9328 423.7501 C306.5237 423.7501 306.2084 423.8929 305.9745 424.1692 C305.7343 424.4419 305.6174 424.8022 305.6174 425.2244 L305.6174 425.2601 L308.2675 425.2569 Z " fill-rule="evenodd" opacity="1" fill="#222222" fill-opacity="1" /></g><g><path d="M310.0601 427.6795 C310.0015 427.6795 309.9627 427.6632 309.927 427.6307 C309.8945 427.5983 309.8783 427.5563 309.8783 427.4979 L309.8751 423.5326 C309.8751 423.4741 309.8913 423.4319 309.9239 423.3993 C309.9563 423.3636 309.9984 423.3474 310.057 423.3474 L310.1998 423.3474 C310.2584 423.3474 310.3005 423.3636 310.333 423.3961 C310.3654 423.4319 310.3817 423.4741 310.3817 423.5293 L310.3817 423.9221 C310.5506 423.7046 310.739 423.5388 310.9565 423.4285 C311.1642 423.3216 311.4405 423.2629 311.7815 423.2629 C312.3238 423.2629 312.7493 423.4386 313.0382 423.7795 C313.3303 424.1266 313.483 424.5782 313.483 425.127 L313.4866 427.4945 C313.4866 427.5531 313.4703 427.595 313.4342 427.6276 C313.4022 427.6601 313.3597 427.6763 313.3015 427.6763 L313.1615 427.6763 C313.1032 427.6763 313.0607 427.6601 313.0251 427.6276 C312.9926 427.595 312.9763 427.5531 312.9763 427.4945 L312.9732 425.1693 C312.9732 424.7209 312.8662 424.3705 312.6486 424.1203 C312.4246 423.8702 312.1062 423.7469 311.7002 423.7469 C311.2974 423.7469 310.9823 423.8702 310.739 424.1236 C310.4987 424.38 310.3817 424.7309 310.3817 425.1725 L310.3849 427.4979 C310.3849 427.5563 310.3686 427.595 310.3362 427.6307 C310.3005 427.6632 310.2616 427.6795 310.2029 427.6795 L310.0601 427.6795 Z " opacity="1" fill="#222222" fill-opacity="1" /></g><g><path d="M316.3603 427.7576 C315.7597 427.7576 315.318 427.5661 315.0355 427.1666 C314.7433 426.7768 314.5938 426.3026 314.5743 425.7442 L314.5677 425.5103 L314.5743 425.2763 C314.5906 424.7178 314.7401 424.2341 315.0323 423.8444 C315.3148 423.4512 315.7565 423.2596 316.354 423.2596 C316.9645 423.2596 317.4291 423.4741 317.7538 423.9158 L317.7538 421.9411 C317.7538 421.8829 317.77 421.8405 317.8024 421.808 C317.8382 421.7755 317.877 421.7561 317.9389 421.7561 L318.0785 421.7561 C318.1366 421.7561 318.1792 421.7722 318.2116 421.808 C318.2441 421.8405 318.2635 421.8829 318.2635 421.9411 L318.2668 427.4912 C318.2668 427.5498 318.2505 427.5887 318.218 427.6244 C318.1854 427.657 318.1435 427.6732 318.0847 427.6732 L317.942 427.6732 C317.8834 427.6732 317.8414 427.657 317.8089 427.6244 C317.7764 427.5887 317.7601 427.5498 317.7601 427.4912 L317.7601 427.0983 C317.4353 427.54 316.9676 427.7576 316.3603 427.7576 Z M316.409 427.2736 C316.8507 427.2736 317.1758 427.1242 317.3997 426.832 C317.6237 426.5493 317.7407 426.1988 317.757 425.8091 C317.7669 425.7473 317.7669 425.6404 317.7669 425.4809 C317.7669 425.3251 317.7669 425.215 317.757 425.1594 C317.7505 424.9159 317.6986 424.692 317.598 424.4743 C317.4973 424.2666 317.3478 424.091 317.1495 423.9515 C316.9482 423.8084 316.698 423.7437 316.4059 423.7437 C315.9544 423.7437 315.6296 423.8833 315.422 424.1692 C315.2142 424.4582 315.1005 424.8252 315.0842 425.2763 L315.0743 425.5103 C315.0743 426.0268 315.175 426.4521 315.3763 426.7768 C315.5746 427.1082 315.9187 427.2736 316.409 427.2736 Z " fill-rule="evenodd" opacity="1" fill="#222222" fill-opacity="1" /></g><g><path d="M321.2353 427.7544 C320.7092 427.7544 320.2834 427.5788 319.9556 427.2283 C319.634 426.8906 319.4489 426.4229 319.4068 425.8381 L319.4001 425.5071 L319.4068 425.1725 C319.4489 424.5977 319.6308 424.13 319.9556 423.7795 C320.2739 423.4285 320.6961 423.2565 321.2317 423.2565 C321.8033 423.2565 322.2548 423.4449 322.5894 423.8281 C322.9042 424.2112 323.0731 424.7341 323.0731 425.4034 L323.0731 425.5265 C323.0731 425.5848 323.0569 425.6272 323.0242 425.6598 C322.9823 425.6954 322.9399 425.7117 322.8816 425.7117 L319.9167 425.7117 L319.9167 425.7961 C319.923 426.0558 319.9913 426.2964 320.0982 426.5204 C320.2088 426.7476 320.3584 426.9295 320.5498 427.0626 C320.7413 427.2054 320.9751 427.2704 321.2353 427.2704 C321.5405 427.2704 321.7902 427.2122 321.9821 427.0853 C322.1735 426.9684 322.3068 426.8514 322.3911 426.7281 C322.44 426.6599 322.482 426.621 322.5081 426.6048 C322.5339 426.5854 322.5764 426.5787 322.6414 426.5787 L322.7745 426.5787 C322.8234 426.5787 322.8654 426.595 322.9011 426.6179 C322.9335 426.6437 322.9498 426.686 322.9498 426.7281 C322.9498 426.845 322.8718 426.9846 322.7321 427.1439 C322.5827 427.3094 322.3748 427.4524 322.1154 427.5693 C321.8583 427.6958 321.5567 427.7544 321.2353 427.7544 Z M322.5632 425.2439 L322.5632 425.2113 C322.5632 424.7859 322.4462 424.4288 322.2061 424.153 C321.9627 423.88 321.6375 423.737 321.2317 423.737 C320.8226 423.737 320.5077 423.88 320.2739 424.156 C320.03 424.4288 319.9131 424.7892 319.9131 425.215 L319.9131 425.247 L322.5632 425.2439 Z " fill-rule="evenodd" opacity="1" fill="#222222" fill-opacity="1" /></g><g><path d="M324.3592 427.6668 C324.3008 427.6668 324.2584 427.6505 324.226 427.6181 C324.1902 427.5855 324.174 427.5431 324.174 427.4849 L324.1709 423.5195 C324.1709 423.4612 324.187 423.4188 324.2196 423.3831 C324.2552 423.3505 324.2942 423.3342 324.3528 423.3342 L324.4955 423.3342 C324.5541 423.3342 324.5963 423.3505 324.6288 423.3831 C324.6611 423.4188 324.6774 423.4612 324.6774 423.5163 L324.6806 423.9091 C324.8464 423.6918 325.0378 423.5261 325.2523 423.4188 C325.4601 423.3084 325.7364 423.2498 326.0773 423.2498 C326.6197 423.2498 327.0449 423.4254 327.3371 423.7664 C327.6296 424.1171 327.7791 424.5652 327.7791 425.1174 L327.7823 427.4817 C327.7823 427.54 327.766 427.5824 327.7303 427.6146 C327.698 427.647 327.6555 427.6632 327.5973 427.6668 L327.4572 427.6668 C327.3989 427.6668 327.357 427.647 327.3243 427.6146 C327.2888 427.5824 327.2726 427.54 327.2726 427.4817 L327.2726 425.1563 C327.2726 424.7083 327.1619 424.3574 326.9442 424.1072 C326.7202 423.857 326.4019 423.7338 325.9959 423.7338 C325.5932 423.7338 325.2784 423.8607 325.0378 424.1104 C324.7944 424.3669 324.6806 424.7178 324.6806 425.1594 L324.6842 427.4849 C324.6842 427.5431 324.6643 427.5855 324.6319 427.6181 C324.5997 427.6505 324.5573 427.6668 324.4991 427.6668 L324.3592 427.6668 Z " opacity="1" fill="#222222" fill-opacity="1" /></g><g><path d="M330.731 427.7445 C330.1562 427.7445 329.7082 427.5788 329.3899 427.2379 C329.0714 426.907 328.9059 426.4391 328.8896 425.8318 L328.88 425.4972 L328.8864 425.1625 C328.9059 424.5556 329.0714 424.0879 329.3867 423.7469 C329.7014 423.4123 330.153 423.2467 330.7278 423.2467 C331.0949 423.2467 331.4098 423.3117 331.6696 423.4386 C331.9294 423.5682 332.1177 423.737 332.2445 423.9352 C332.371 424.1429 332.4455 424.3542 332.4523 424.5684 C332.4618 424.6202 332.4455 424.6626 332.4035 424.6952 C332.3611 424.7341 332.3189 424.7535 332.2703 424.7535 L332.1534 424.7535 C332.095 424.7535 332.0626 424.7372 332.0364 424.7115 C332.0107 424.6852 331.978 424.6464 331.952 424.5782 C331.8449 424.2697 331.6855 424.0522 331.4846 423.9189 C331.2863 423.7957 331.0362 423.7306 330.7278 423.7306 C330.3282 423.7306 330.0134 423.8476 329.7796 424.0879 C329.5359 424.328 329.4124 424.7047 329.3962 425.2049 L329.3867 425.4972 L329.3962 425.7897 C329.4124 426.2865 329.5393 426.6536 329.7796 426.8969 C330.0134 427.1372 330.3314 427.2608 330.731 427.2608 C331.0395 427.2608 331.2895 427.1958 331.491 427.0626 C331.6891 426.9359 331.8481 426.7182 331.9552 426.4098 C331.9813 426.3447 332.0139 426.2964 332.0364 426.2703 C332.0626 426.2441 332.095 426.2378 332.1534 426.2378 L332.2703 426.2378 C332.3224 426.2378 332.3611 426.2541 332.4035 426.2865 C332.4455 426.3285 332.4618 426.3677 332.4554 426.4197 C332.4455 426.6337 332.371 426.845 332.2477 427.0432 C332.124 427.2541 331.9325 427.4199 331.6729 427.5431 C331.4163 427.6763 331.0981 427.7445 330.731 427.7445 Z " opacity="1" fill="#222222" fill-opacity="1" /></g><g><path d="M334.1735 429.2418 C334.1312 429.2418 334.0892 429.2255 334.0566 429.1932 C334.0241 429.1574 334.0079 429.1181 334.0079 429.0762 C334.0079 429.05 334.0241 428.9919 334.0566 428.9104 L334.6961 427.4067 L333.1017 423.6593 C333.0691 423.5781 333.0528 423.5195 333.0528 423.4936 C333.0528 423.4512 333.0691 423.4091 333.1017 423.3766 C333.1341 423.3441 333.1766 423.3279 333.2186 423.3279 L333.3938 423.3279 C333.485 423.3279 333.5432 423.3669 333.5856 423.4512 L334.9886 426.7508 L336.4174 423.4482 C336.4598 423.3669 336.5248 423.3247 336.6093 423.3247 L336.7745 423.3247 C336.817 423.3247 336.859 423.341 336.8915 423.3735 C336.9272 423.4059 336.9435 423.4482 336.9435 423.4905 C336.9435 423.5163 336.9272 423.5749 336.8915 423.6558 L334.5309 429.1181 C334.4884 429.1995 334.4333 429.2418 334.3389 429.2418 L334.1735 429.2418 Z " opacity="1" fill="#222222" fill-opacity="1" /></g><g><path d="M341.0711 427.6538 C340.662 427.6538 340.3698 427.5269 340.1945 427.2769 C340.019 427.0366 339.9378 426.6957 339.9378 426.2603 L339.9346 423.8052 L339.2819 423.8052 C339.2265 423.8052 339.1846 423.789 339.1519 423.7532 C339.1194 423.7208 339.1001 423.6787 339.1001 423.6201 L339.1001 423.5067 C339.1001 423.4482 339.1163 423.4059 339.1519 423.3735 C339.1846 423.3378 339.2233 423.3216 339.2819 423.3216 L339.9346 423.3216 L339.9314 421.9217 C339.9314 421.8631 339.9476 421.8211 339.9834 421.7885 C340.0158 421.7561 340.0579 421.7366 340.1166 421.7366 L340.2561 421.7366 C340.3147 421.7366 340.3568 421.7561 340.3892 421.7885 C340.425 421.8211 340.4413 421.8631 340.4413 421.9217 L340.4413 423.3216 L341.4739 423.318 C341.5326 423.318 341.5746 423.3342 341.607 423.3703 C341.6428 423.4025 341.659 423.4449 341.659 423.5031 L341.659 423.6201 C341.659 423.6787 341.6428 423.7208 341.607 423.7532 C341.5746 423.7857 341.5326 423.802 341.4739 423.802 L340.4443 423.8052 L340.4443 426.2278 C340.4443 426.5366 340.4931 426.7705 340.6038 426.9295 C340.7044 427.0853 340.8698 427.1696 341.1104 427.1696 L341.5614 427.1696 C341.6202 427.1696 341.6622 427.186 341.6947 427.2185 C341.7273 427.2509 341.7466 427.2931 341.7466 427.3517 L341.7466 427.4686 C341.7466 427.5269 341.7303 427.5693 341.6947 427.6018 C341.6622 427.6343 341.6202 427.6538 341.5614 427.6538 L341.0711 427.6538 Z " opacity="1" fill="#227DC1" fill-opacity="1" /></g><g><path d="M342.7861 427.6505 C342.7274 427.6505 342.6885 427.6343 342.6529 427.6018 C342.6204 427.5693 342.6042 427.5269 342.6042 427.4686 L342.6009 423.5098 C342.6009 423.4512 342.6172 423.4091 342.6498 423.3669 C342.6822 423.3342 342.7242 423.318 342.7829 423.318 L342.9157 423.318 C342.9745 423.318 343.0163 423.3342 343.0589 423.3669 C343.0914 423.4091 343.1075 423.4512 343.1075 423.5098 L343.1107 423.8929 C343.3089 423.5098 343.6824 423.318 344.241 423.318 L344.5495 423.318 C344.6078 423.318 344.6502 423.3342 344.6826 423.3669 C344.7151 423.3993 344.7314 423.4417 344.7314 423.5001 L344.7314 423.6169 C344.7345 423.6755 344.7151 423.7175 344.6826 423.7501 C344.6502 423.7826 344.6078 423.802 344.5495 423.802 L344.1922 423.802 C343.8577 423.802 343.5913 423.8995 343.3998 424.091 C343.2083 424.2826 343.1107 424.5521 343.1107 424.8835 L343.1107 427.4655 C343.1107 427.5237 343.0945 427.5661 343.062 427.6018 C343.02 427.6343 342.9775 427.6505 342.9224 427.6505 L342.7861 427.6505 Z " opacity="1" fill="#227DC1" fill-opacity="1" /></g><g><path d="M346.6017 427.7315 C346.3357 427.7315 346.0856 427.6732 345.8616 427.5661 C345.6373 427.4556 345.452 427.3061 345.3188 427.1146 C345.1762 426.9232 345.108 426.7151 345.108 426.4911 C345.108 426.1239 345.2606 425.8253 345.5595 425.5916 C345.8516 425.3576 346.2512 425.2082 346.758 425.14 L348.0764 424.955 L348.0729 424.6626 C348.0729 424.3542 347.9822 424.1236 347.8002 423.9547 C347.6055 423.7957 347.3229 423.7144 346.9395 423.7144 C346.6572 423.7144 346.4233 423.7728 346.2477 423.8833 C346.0662 423.9903 345.9491 424.1236 345.9005 424.2826 C345.8744 424.3475 345.8485 424.39 345.8255 424.4156 C345.7899 424.4419 345.751 424.4582 345.6991 424.4582 L345.5822 424.4582 C345.5334 424.4582 345.4914 424.4419 345.4587 424.3994 C345.4165 424.3669 345.4002 424.325 345.4002 424.273 C345.4002 424.1496 345.4587 424.0066 345.5659 423.8409 C345.6729 423.6819 345.8485 423.5388 346.0825 423.4156 C346.316 423.2891 346.5986 423.2304 346.9395 423.2304 C347.5306 423.2304 347.956 423.3735 348.2061 423.6558 C348.4562 423.9384 348.5827 424.2793 348.5827 424.6884 L348.5863 427.4619 C348.5863 427.5206 348.5701 427.5627 348.5344 427.595 C348.5018 427.6276 348.4594 427.6439 348.4011 427.6439 L348.2613 427.6439 C348.2029 427.6439 348.1606 427.6276 348.1284 427.595 C348.0958 427.5627 348.0764 427.5206 348.0764 427.4619 L348.0764 427.0692 C347.9528 427.2541 347.7776 427.4135 347.5436 427.5368 C347.3034 427.6632 346.9951 427.7315 346.6017 427.7315 Z M346.6862 427.2478 C347.0958 427.2478 347.4267 427.1146 347.6864 426.845 C347.9431 426.5787 348.0764 426.1957 348.0764 425.6954 L348.0764 425.4127 L347.0013 425.5653 C346.5435 425.6241 346.2026 425.7311 345.9686 425.8837 C345.7346 426.0332 345.6178 426.2247 345.6178 426.449 C345.6178 426.7086 345.7285 426.8969 345.946 427.0397 C346.1538 427.1828 346.404 427.2478 346.6862 427.2478 Z " fill-rule="evenodd" opacity="1" fill="#227DC1" fill-opacity="1" /></g><g><path d="M351.5414 427.7252 C350.9701 427.7283 350.5185 427.5594 350.2001 427.2185 C349.885 426.8871 349.7197 426.4197 349.7003 425.8124 L349.6935 425.4777 L349.7003 425.1468 C349.7162 424.5358 349.8818 424.0716 350.2001 423.7275 C350.5154 423.3961 350.9632 423.2272 351.5381 423.2272 C351.9052 423.2272 352.22 423.2922 352.4802 423.4188 C352.7397 423.552 352.9316 423.7175 353.0549 423.9158 C353.1813 424.1266 353.2563 424.3348 353.2658 424.5489 C353.2758 424.6008 353.2563 424.6432 353.2138 424.6757 C353.1717 424.7178 353.1326 424.7341 353.0841 424.7341 L352.9672 424.7341 C352.9085 424.7341 352.8729 424.7178 352.8471 424.692 C352.8242 424.6658 352.7916 424.6269 352.766 424.5588 C352.6584 424.2504 352.4962 424.0327 352.2982 423.9027 C352.0967 423.7762 351.8465 423.7113 351.5381 423.7113 C351.1389 423.7113 350.8238 423.8281 350.5899 424.0684 C350.3465 424.3118 350.2227 424.6852 350.2065 425.1855 L350.2001 425.4777 L350.2065 425.7698 C350.2263 426.2703 350.3497 426.6373 350.593 426.8776 C350.827 427.1178 351.1421 427.2445 351.5414 427.2445 C351.85 427.2445 352.0998 427.1764 352.3013 427.0432 C352.4995 426.9164 352.6584 426.6988 352.766 426.3904 C352.7916 426.3253 352.8242 426.2766 352.8504 426.2507 C352.8761 426.2247 352.9085 426.2184 352.9672 426.2184 L353.0841 426.2184 C353.1326 426.2184 353.1749 426.2345 353.2169 426.267 C353.2594 426.3091 353.2758 426.3483 353.2658 426.4003 C353.2594 426.6179 353.1848 426.8256 353.0581 427.0238 C352.9347 427.2316 352.743 427.4005 352.4831 427.5237 C352.2267 427.6601 351.9083 427.7252 351.5414 427.7252 Z " opacity="1" fill="#227DC1" fill-opacity="1" /></g><g><path d="M354.5585 427.6406 C354.4998 427.6406 354.461 427.6244 354.4254 427.5887 C354.3928 427.5563 354.3765 427.5142 354.3765 427.4556 L354.3703 421.9087 C354.3703 421.8505 354.3865 421.808 354.4187 421.7755 C354.4546 421.7398 354.4935 421.7236 354.5518 421.7236 L354.695 421.7236 C354.7532 421.7236 354.7957 421.7398 354.8282 421.7755 C354.8606 421.808 354.8768 421.8505 354.88 421.9087 L354.8831 424.8573 L356.7377 423.4482 C356.8317 423.3799 356.8867 423.3378 356.9229 423.3216 C356.9549 423.3148 357.0136 423.3053 357.0882 423.3053 L357.2476 423.3053 C357.2963 423.3053 357.3383 423.3216 357.3708 423.3474 C357.397 423.3799 357.4133 423.4222 357.4133 423.4706 C357.4133 423.5293 357.3807 423.5876 357.3059 423.6396 L355.1984 425.2407 L357.5171 427.3029 C357.5915 427.371 357.6241 427.4297 357.6241 427.4718 C357.6241 427.5206 357.6078 427.5627 357.5818 427.5887 C357.5495 427.6213 357.5071 427.6375 357.4584 427.6375 L357.3253 427.6375 C357.2444 427.6375 357.1858 427.6276 357.1401 427.6113 C357.1012 427.605 357.0526 427.5627 356.9747 427.4945 L354.8831 425.6404 L354.8831 427.4556 C354.8831 427.5142 354.8669 427.5563 354.8344 427.5887 C354.8019 427.6244 354.76 427.6406 354.7012 427.6406 L354.5585 427.6406 Z " opacity="1" fill="#227DC1" fill-opacity="1" /></g><path d="M312.7429 378.0014 C315.3082 378.0014 317.8739 377.9982 320.436 378.0014 C320.4427 379.7651 320.436 381.5315 320.4397 383.3017 C320.4427 383.7853 320.5561 384.2856 320.8487 384.6785 C321.0988 385.0357 321.4755 385.2827 321.8715 385.4483 C321.956 385.4742 322.0405 385.5067 322.128 385.536 C322.3686 385.5847 322.6057 385.6594 322.8555 385.6529 C324.6061 385.6529 326.3599 385.6494 328.1102 385.6529 C328.1102 387.4163 328.1133 389.1796 328.1102 390.9429 C328.1165 391.492 328.3083 392.0343 328.6168 392.4822 C328.9839 392.9987 329.6075 393.3335 330.2438 393.3172 C332.0884 393.314 333.933 393.314 335.7776 393.314 C335.7906 395.886 335.7842 398.4612 335.7842 401.0333 C333.8616 401.0366 331.9388 401.027 330.0166 401.0396 C328.9059 401.1566 328.1557 402.2349 328.1165 403.2938 C328.1102 405.096 328.1201 406.9017 328.1165 408.7039 C326.2786 408.7039 324.4404 408.7075 322.6021 408.7039 C322.0015 408.7137 321.3942 408.9771 321.0176 409.4607 C320.6311 409.9543 320.4234 410.5909 320.4397 411.2177 C320.4458 412.9322 320.4397 414.6472 320.4458 416.3587 C317.8834 416.3587 315.3213 416.3587 312.7591 416.3618 C312.7591 413.806 312.7555 411.2501 312.7555 408.6913 C314.3794 408.6975 315.9999 408.6913 317.6206 408.6944 C318.5168 408.7463 319.5072 408.4505 320.0463 407.6974 C320.3032 407.3239 320.436 406.8692 320.4234 406.4208 C320.4197 405.3818 320.4265 404.3392 320.4197 403.3001 C320.3678 402.5728 320.0432 401.829 319.4358 401.4004 C319.0918 401.1566 318.6695 401.0203 318.2441 401.0366 C316.4158 401.0432 314.5838 401.0366 312.7555 401.0432 C312.7524 398.4676 312.736 395.8924 312.7591 393.3203 C314.6132 393.3234 316.4677 393.3203 318.3186 393.3203 C319.0266 393.3302 319.6891 392.8949 320.0337 392.2908 C320.2803 391.8555 320.4329 391.3556 320.4166 390.8521 C320.4135 389.9657 320.4135 389.0789 320.4166 388.1894 C320.4427 387.5331 320.1989 386.874 319.7834 386.3706 C319.3546 385.8801 318.6921 385.6786 318.059 385.6656 C316.2857 385.6723 314.5157 385.6691 312.7429 385.6691 C312.7429 383.113 312.7393 380.5571 312.7429 378.0014M322.5375 393.3885 C322.0242 393.4666 321.5274 393.6838 321.1277 394.0184 C320.6636 394.4275 320.4523 395.058 320.4458 395.6652 C320.4297 396.6718 320.4491 397.6751 320.4397 398.679 C320.4329 399.2245 320.5922 399.7992 320.982 400.1989 C321.4267 400.7118 322.1086 400.9553 322.771 401.017 C323.6285 401.027 324.4891 401.017 325.3498 401.0234 C326.0741 401.0527 326.8372 400.8513 327.3926 400.3676 C327.8473 399.968 328.0807 399.3639 328.0876 398.7665 C328.0907 397.6981 328.0844 396.6329 328.0876 395.561 C328.0939 394.9898 327.8536 394.4113 327.4346 394.0216 C326.9312 393.5995 326.2755 393.3461 325.6163 393.369 C324.5898 393.3822 323.5635 393.3461 322.5375 393.3885 Z " fill-rule="evenodd" opacity="1" fill="#227DC1" fill-opacity="1" /></g><g><path d="M741.9031 376.088 C741.9031 376.088 741.9031 376.088 741.9031 376.088 C741.9031 375.9315 741.8721 375.7847 741.816 375.6487 C740.8188 370.1046 736.9279 365.5682 731.7533 363.6806 C735.1135 361.7963 737.3851 358.2059 737.3851 354.0813 C737.3851 348.0066 732.4575 343.08 726.3799 343.08 C720.301 343.08 715.3747 348.0066 715.3747 354.0851 C715.3747 358.2096 717.6456 361.7998 721.0059 363.6839 C715.8067 365.5788 711.9029 370.1495 710.929 375.7321 C710.9012 375.8163 710.8837 375.9036 710.8769 375.9944 C710.8731 376.0254 710.8627 376.0604 710.856 376.0918 L710.8663 376.0918 L710.8663 376.0918 C710.8663 376.7481 711.3967 377.2783 712.0526 377.2783 C712.7086 377.2783 713.2392 376.7481 713.2392 376.0918 L713.2392 376.0918 L713.2428 376.0918 C714.3588 369.8394 719.8092 365.0868 726.3828 365.0868 C726.3828 365.0868 726.3828 365.0868 726.3828 365.0868 C726.3828 365.0868 726.3828 365.0868 726.3828 365.0868 C732.9572 365.0868 738.4067 369.8394 739.5236 376.0918 L739.5372 376.0918 C739.5372 376.0918 739.5372 376.0918 739.5372 376.0918 C739.5372 376.7445 740.0678 377.2745 740.7202 377.2745 C741.3732 377.2745 741.9031 376.7445 741.9031 376.088 C741.9031 376.0918 741.9031 376.0918 741.9031 376.088 L741.9031 376.088 Z M717.7335 354.0851 C717.7335 349.3119 721.6027 345.4387 726.3799 345.4387 C731.1528 345.4387 735.0256 349.3084 735.0256 354.0851 C735.0256 358.8584 731.1564 362.7281 726.3828 362.7281 C726.3828 362.7281 726.3828 362.7281 726.3799 362.7281 C726.3799 362.7281 726.3799 362.7281 726.3755 362.7281 C721.6027 362.7281 717.7335 358.8584 717.7335 354.0851 Z " fill-rule="evenodd" opacity="1" fill="#227DC1" fill-opacity="1" /></g><text x="515.69" y="395.08" font-size="12" fill="#227DC1" fill-opacity="1" font-family="LG Smart" font-weight="normal" font-style="normal">Web  Server</text><rect x="504" y="414" width="72" height="81" rx="9" ry="9" opacity="1" stroke="#227DC1" stroke-opacity="1" stroke-width="1" stroke-linecap="butt" stroke-linejoin="miter" stroke-dasharray="none" fill-opacity="0" /><path d="M504 360 L441 360 C436.05 360 432 364.05 432 369 L432 396 C432 400.95 427.95 405 423 405 L372.1725 405" marker-end="url(#marker2)" opacity="1" stroke="#FC6665" stroke-opacity="1" stroke-width="1" stroke-linecap="butt" stroke-linejoin="miter" stroke-dasharray="none" fill-opacity="0" /><text x="529.628" y="451.1" font-size="12" fill="#227DC1" fill-opacity="1" font-family="LG Smart" font-weight="normal" font-style="normal">Other </text><text x="516.194" y="465.1" font-size="12" fill="#227DC1" fill-opacity="1" font-family="LG Smart" font-weight="normal" font-style="normal">Integrations</text><path d="M504 454.5 L441 454.5 C436.05 454.5 432 450.45 432 445.5 L432 414 C432 409.05 427.95 405 423 405 L372.1725 405" marker-end="url(#marker3)" opacity="1" stroke="#FC6665" stroke-opacity="1" stroke-width="1" stroke-linecap="butt" stroke-linejoin="miter" stroke-dasharray="none" fill-opacity="0" /><g><g><path d="M523.4575 353.4761 C523.1398 353.4761 522.9048 353.3744 522.7528 353.1619 C522.5975 352.9547 522.5179 352.7008 522.5092 352.4037 L522.5042 352.2811 L522.5076 352.1569 C522.5179 351.8598 522.5957 351.6024 522.7512 351.3934 C522.9014 351.186 523.136 351.0842 523.4558 351.0824 C523.7787 351.0824 524.0273 351.1982 524.2003 351.4331 L524.1985 350.3829 C524.1985 350.3518 524.2088 350.3294 524.226 350.3123 C524.2432 350.293 524.2657 350.2845 524.2969 350.2845 L524.3728 350.2845 C524.404 350.2845 524.4249 350.293 524.4437 350.3123 C524.4611 350.3294 524.4696 350.3518 524.4696 350.3812 L524.4713 353.3329 C524.4713 353.3641 524.4627 353.3864 524.4456 353.4037 C524.428 353.4209 524.4058 353.4315 524.3745 353.4315 L524.2987 353.4315 C524.2675 353.4315 524.2468 353.4209 524.2298 353.4037 C524.2106 353.3864 524.2019 353.3641 524.2019 353.3329 L524.2019 353.1255 C524.0294 353.3605 523.7803 353.4746 523.4575 353.4761 Z M523.4836 353.219 C523.7183 353.219 523.8911 353.1394 524.0119 352.9842 C524.1312 352.8322 524.1932 352.6473 524.2019 352.4382 C524.2054 352.407 524.2054 352.3502 524.2054 352.2656 C524.2054 352.1808 524.2054 352.124 524.2003 352.0927 C524.1968 351.9649 524.1707 351.8442 524.1172 351.7301 C524.062 351.6196 523.9844 351.5263 523.8773 351.4504 C523.7718 351.376 523.6372 351.3398 523.4836 351.3398 C523.243 351.3398 523.0706 351.4159 522.96 351.5661 C522.8479 351.7213 522.7876 351.9166 522.7789 352.1569 L522.7751 352.2794 C522.7751 352.5557 522.8287 352.782 522.934 352.9529 C523.0413 353.1308 523.2225 353.219 523.4836 353.219 Z " fill-rule="evenodd" opacity="1" fill="#222222" fill-opacity="1" /></g><g><path d="M526.0502 353.4729 C525.7701 353.4746 525.5441 353.3813 525.3714 353.1946 C525.1985 353.0133 525.1001 352.7663 525.0776 352.4557 L525.0744 352.2776 L525.0776 352.0996 C525.1001 351.7957 525.1964 351.5471 525.3714 351.3604 C525.5386 351.174 525.765 351.0807 526.0483 351.0807 C526.354 351.0807 526.592 351.1826 526.7701 351.3864 C526.9392 351.5903 527.0275 351.8683 527.0275 352.2224 L527.0275 352.2897 C527.0275 352.3208 527.0188 352.3432 527.0017 352.3605 C526.979 352.3778 526.9568 352.3864 526.9254 352.3864 L525.3488 352.3881 L525.3488 352.4331 C525.354 352.5713 525.3886 352.6991 525.4473 352.8183 C525.5042 352.9373 525.5834 353.0358 525.687 353.1049 C525.7877 353.181 525.9117 353.2172 526.0502 353.2154 C526.2139 353.2154 526.3453 353.1843 526.4468 353.1188 C526.5509 353.0567 526.6199 352.9944 526.6648 352.9271 C526.6925 352.8924 526.7131 352.8701 526.7269 352.8614 C526.7407 352.8528 526.7612 352.8474 526.7975 352.8474 L526.8684 352.8474 C526.8943 352.8474 526.9171 352.8562 526.9362 352.8701 C526.9533 352.8838 526.9618 352.9063 526.9618 352.9271 C526.9618 352.9891 526.9221 353.0653 526.848 353.1499 C526.7667 353.2379 526.6563 353.3138 526.5197 353.3761 C526.3814 353.4417 526.2226 353.4729 526.0502 353.4729 Z M526.7581 352.1396 L526.7581 352.1223 C526.7581 351.896 526.6957 351.7057 526.5662 351.5591 C526.4367 351.4124 526.264 351.3382 526.0483 351.3382 C525.8305 351.3382 525.6613 351.4142 525.5386 351.5591 C525.4108 351.7057 525.3488 351.896 525.3488 352.1223 L525.3488 352.1411 L526.7581 352.1396 Z " fill-rule="evenodd" opacity="1" fill="#222222" fill-opacity="1" /></g><g><path d="M527.7166 354.269 C527.6854 354.2706 527.663 354.2602 527.6459 354.243 C527.6285 354.2259 527.6182 354.2034 527.6182 354.1724 L527.6165 351.2206 C527.6165 351.1896 527.625 351.1689 527.6422 351.1498 C527.6614 351.1326 527.682 351.1239 527.7132 351.1239 L527.7893 351.1239 C527.8203 351.1239 527.8424 351.1326 527.86 351.1498 C527.8771 351.1672 527.8857 351.1896 527.8857 351.2206 L527.8857 351.4296 C528.0605 351.1949 528.3074 351.0791 528.6302 351.0791 C528.95 351.0791 529.1846 351.1808 529.34 351.3795 C529.4902 351.5833 529.5698 351.8303 529.5801 352.1274 C529.5852 352.1585 529.5852 352.2085 529.5852 352.2742 C529.5852 352.3399 529.5852 352.3898 529.5801 352.4211 C529.5716 352.7164 529.4919 352.9649 529.3417 353.1653 C529.1863 353.3691 528.9516 353.4711 528.6337 353.4711 C528.3088 353.4711 528.0621 353.3571 527.8875 353.1222 L527.8896 354.1724 C527.8896 354.2034 527.8806 354.2259 527.8616 354.243 C527.8446 354.2602 527.8237 354.269 527.7908 354.269 L527.7166 354.269 Z M528.6061 353.2137 C528.8458 353.2137 529.0222 353.1377 529.1328 352.9842 C529.2398 352.8322 529.3022 352.6371 529.3108 352.3985 C529.3143 352.3675 529.3143 352.3278 529.3143 352.2742 C529.3143 351.9996 529.2607 351.7734 529.1533 351.597 C529.048 351.4244 528.8651 351.3346 528.604 351.3346 C528.3695 351.3363 528.1968 351.4108 528.0776 351.5661 C527.9584 351.7213 527.8961 351.908 527.8875 352.1154 L527.8841 352.2879 L527.8875 352.4607 C527.8926 352.5903 527.9187 352.7094 527.9722 352.8199 C528.0258 352.9357 528.1052 353.0291 528.2124 353.1032 C528.3191 353.179 528.4504 353.2137 528.6061 353.2137 Z " fill-rule="evenodd" opacity="1" fill="#222222" fill-opacity="1" /></g><g><path d="M531.0429 353.4693 C530.7634 353.4693 530.5386 353.3761 530.3661 353.1914 C530.1918 353.0082 530.0951 352.7614 530.0725 352.4502 L530.0672 352.2742 L530.0725 352.0963 C530.0934 351.7907 530.1918 351.5417 530.3644 351.3551 C530.5319 351.1706 530.7582 351.0772 531.0413 351.0754 C531.3469 351.0754 531.5869 351.1774 531.7634 351.3812 C531.9325 351.585 532.0206 351.8648 532.0224 352.2188 L532.0224 352.2862 C532.0224 352.3155 532.0121 352.3382 531.9946 352.3555 C531.9723 352.3744 531.9496 352.3831 531.9205 352.3831 L530.3417 352.3849 L530.3434 352.428 C530.3469 352.5661 530.3832 352.6938 530.4401 352.8149 C530.4975 352.9339 530.5784 353.0307 530.6786 353.1016 C530.7821 353.1775 530.9067 353.212 531.0429 353.212 C531.2069 353.212 531.3401 353.181 531.4423 353.1136 C531.5438 353.0514 531.6148 352.9891 531.6581 352.9236 C531.6855 352.8873 531.7064 352.8665 531.7218 352.8562 C531.7339 352.8474 531.7566 352.8441 531.7908 352.8441 L531.8618 352.8441 C531.8892 352.8441 531.9119 352.8528 531.929 352.8648 C531.9462 352.8787 531.9551 352.9009 531.9551 352.9236 C531.9551 352.9857 531.915 353.06 531.8409 353.1446 C531.7616 353.2327 531.6494 353.3089 531.5129 353.3709 C531.3764 353.4382 531.2155 353.4693 531.0429 353.4693 Z M531.751 352.1343 L531.751 352.1169 C531.751 351.8909 531.689 351.7008 531.5612 351.5541 C531.4316 351.4088 531.2587 351.3329 531.0413 351.3329 C530.8237 351.3329 530.656 351.4088 530.5319 351.5557 C530.4037 351.7008 530.3417 351.8924 530.3417 352.1169 L530.3417 352.136 L531.751 352.1343 Z " fill-rule="evenodd" opacity="1" fill="#222222" fill-opacity="1" /></g><g><path d="M532.7044 353.4227 C532.6732 353.4227 532.6526 353.414 532.6337 353.3967 C532.6165 353.3794 532.6076 353.3571 532.6076 353.326 L532.606 351.2172 C532.606 351.186 532.6144 351.1638 532.632 351.1464 C532.6492 351.1274 532.6719 351.1188 532.7026 351.1188 L532.7787 351.1188 C532.81 351.1188 532.8324 351.1274 532.8495 351.1447 C532.8666 351.1638 532.8755 351.186 532.8755 351.2156 L532.8755 351.4244 C532.9655 351.3087 533.0656 351.2206 533.1812 351.1618 C533.2917 351.105 533.4385 351.0739 533.6199 351.0739 C533.9085 351.0739 534.1345 351.1672 534.2883 351.3486 C534.4437 351.5331 534.525 351.7734 534.525 352.0651 L534.5268 353.3243 C534.5268 353.3553 534.5181 353.3777 534.4989 353.395 C534.4818 353.4123 534.4595 353.4209 534.4283 353.4209 L534.3538 353.4209 C534.3229 353.4209 534.3004 353.4123 534.2814 353.395 C534.2639 353.3777 534.2554 353.3553 534.2554 353.3243 L534.2537 352.0876 C534.2537 351.8492 534.1967 351.6629 534.0809 351.5298 C533.9621 351.3966 533.7925 351.3312 533.5768 351.3312 C533.3624 351.3312 533.1949 351.3966 533.0656 351.5314 C532.9377 351.6678 532.8755 351.8545 532.8755 352.0893 L532.8773 353.326 C532.8773 353.3571 532.8687 353.3777 532.8512 353.3967 C532.8324 353.414 532.8118 353.4227 532.7806 353.4227 L532.7044 353.4227 Z " opacity="1" fill="#222222" fill-opacity="1" /></g><g><path d="M536.0551 353.4643 C535.7357 353.4643 535.5007 353.3624 535.3504 353.1499 C535.195 352.9425 535.1157 352.6903 535.105 352.3934 L535.1016 352.269 L535.105 352.1446 C535.1137 351.8477 535.1934 351.5903 535.3488 351.3831 C535.499 351.174 535.734 351.0721 536.0516 351.0721 C536.3765 351.0721 536.6235 351.186 536.7961 351.4211 L536.7961 350.3708 C536.7961 350.3398 536.8047 350.3174 536.8221 350.3001 C536.841 350.2827 536.8616 350.2724 536.8946 350.2724 L536.9686 350.2724 C536.9994 350.2724 537.0225 350.281 537.0396 350.3001 C537.0569 350.3174 537.0671 350.3398 537.0671 350.3708 L537.0687 353.3224 C537.0687 353.3537 537.0602 353.3744 537.0432 353.3933 C537.0256 353.4106 537.0033 353.4194 536.972 353.4194 L536.8962 353.4194 C536.8651 353.4194 536.8427 353.4106 536.8257 353.3933 C536.808 353.3744 536.7994 353.3537 536.7994 353.3224 L536.7994 353.1136 C536.6266 353.3485 536.3778 353.4643 536.0551 353.4643 Z M536.0807 353.2067 C536.3159 353.2067 536.4886 353.1272 536.6077 352.972 C536.7271 352.8216 536.7891 352.6351 536.7977 352.428 C536.8029 352.395 536.8029 352.3382 536.8029 352.2532 C536.8029 352.1706 536.8029 352.1119 536.7977 352.0825 C536.7944 351.953 536.7669 351.8339 536.7133 351.7181 C536.6595 351.6077 536.5802 351.5142 536.4749 351.4401 C536.3676 351.3639 536.2345 351.3294 536.0795 351.3294 C535.8392 351.3294 535.6663 351.4037 535.5558 351.5557 C535.4455 351.7095 535.3851 351.9048 535.3763 352.1446 L535.3709 352.269 C535.3709 352.5437 535.4244 352.77 535.5319 352.9425 C535.6371 353.1188 535.8201 353.2067 536.0807 353.2067 Z " fill-rule="evenodd" opacity="1" fill="#222222" fill-opacity="1" /></g><g><path d="M538.6475 353.4626 C538.368 353.4626 538.1415 353.3691 537.967 353.1826 C537.7961 353.0031 537.6976 352.7543 537.6752 352.4433 L537.6715 352.2673 L537.6752 352.0893 C537.6976 351.7836 537.7944 351.5349 537.967 351.3486 C538.1364 351.1618 538.3608 351.0704 538.6459 351.0704 C538.9499 351.0704 539.19 351.1706 539.3676 351.3743 C539.535 351.5782 539.6249 351.8562 539.6249 352.2121 L539.6249 352.2776 C539.6249 352.3087 539.6163 352.3312 539.5989 352.3485 C539.5767 352.3675 539.5543 352.3761 539.5231 352.3761 L537.9464 352.3761 L537.9464 352.4211 C537.9498 352.5592 537.9863 352.6871 538.0432 352.8061 C538.1017 352.9271 538.1813 353.0239 538.2833 353.0945 C538.3851 353.1705 538.5093 353.2051 538.6475 353.2051 C538.8098 353.2051 538.9425 353.1741 539.0449 353.1067 C539.1468 353.0445 539.2174 352.9823 539.2625 352.9166 C539.2883 352.8803 539.3107 352.8599 539.3244 352.8511 C539.3382 352.8408 539.3607 352.8372 539.3955 352.8372 L539.4662 352.8372 C539.4922 352.8372 539.5146 352.8457 539.5333 352.8581 C539.5508 352.8719 539.5594 352.8943 539.5594 352.9166 C539.5594 352.9789 539.5179 353.0531 539.4438 353.1377 C539.3641 353.2259 539.2537 353.3018 539.1158 353.3641 C538.9789 353.4315 538.8184 353.4626 538.6475 353.4626 Z M539.3539 352.1274 L539.3539 352.11 C539.3539 351.8838 539.2915 351.6938 539.1639 351.5471 C539.0345 351.402 538.8617 351.326 538.6459 351.326 C538.4283 351.326 538.2606 351.402 538.1364 351.5489 C538.0067 351.6938 537.9446 351.8855 537.9446 352.1119 L537.9446 352.1289 L539.3539 352.1274 Z " fill-rule="evenodd" opacity="1" fill="#222222" fill-opacity="1" /></g><g><path d="M540.309 353.416 C540.2778 353.416 540.2556 353.4072 540.238 353.39 C540.2191 353.3727 540.2106 353.3501 540.2106 353.3192 L540.2088 351.2102 C540.2088 351.1791 540.2174 351.1566 540.2349 351.1378 C540.2537 351.1203 540.2744 351.1118 540.3055 351.1118 L540.3814 351.1118 C540.4127 351.1118 540.4349 351.1203 540.4525 351.1378 C540.4696 351.1566 540.4781 351.1791 540.4781 351.2087 L540.4799 351.4174 C540.568 351.3019 540.6699 351.2137 540.7838 351.1566 C540.8943 351.098 541.0414 351.0667 541.2226 351.0667 C541.5111 351.0667 541.7371 351.1603 541.8925 351.3414 C542.0483 351.5281 542.1277 351.7663 542.1277 352.0601 L542.1296 353.3175 C542.1296 353.3485 542.1208 353.3709 542.1019 353.3882 C542.0847 353.4053 542.062 353.414 542.0312 353.416 L541.9568 353.416 C541.9255 353.416 541.9033 353.4053 541.8861 353.3882 C541.8668 353.3709 541.8586 353.3485 541.8586 353.3175 L541.8586 352.0807 C541.8586 351.8425 541.7996 351.6559 541.6837 351.5229 C541.5646 351.3898 541.3955 351.3243 541.1793 351.3243 C540.9653 351.3243 540.7979 351.3917 540.6699 351.5246 C540.5406 351.6609 540.4799 351.8477 540.4799 352.0825 L540.4819 353.3192 C540.4819 353.3501 540.4713 353.3727 540.4542 353.39 C540.4369 353.4072 540.4143 353.416 540.3834 353.416 L540.309 353.416 Z " opacity="1" fill="#222222" fill-opacity="1" /></g><g><path d="M543.6977 353.4573 C543.3922 353.4573 543.1536 353.3691 542.9845 353.1878 C542.8151 353.0118 542.7273 352.7629 542.7183 352.44 L542.7132 352.2621 L542.7167 352.084 C542.7273 351.7613 542.8151 351.5124 542.9829 351.3312 C543.1499 351.1533 543.3905 351.0651 543.6957 351.0651 C543.8912 351.0651 544.0586 351.0997 544.197 351.1672 C544.3348 351.2362 544.435 351.326 544.5025 351.4313 C544.5698 351.5417 544.6093 351.6541 544.6131 351.768 C544.618 351.7957 544.6093 351.8181 544.587 351.8354 C544.5644 351.8562 544.5421 351.8665 544.5163 351.8665 L544.4542 351.8665 C544.423 351.8665 544.4059 351.8579 544.3918 351.8442 C544.3781 351.8303 544.3609 351.8096 544.3472 351.7734 C544.2903 351.6092 544.2052 351.4936 544.0985 351.4228 C543.9928 351.3572 543.86 351.3225 543.6957 351.3225 C543.4833 351.3225 543.3159 351.3846 543.1918 351.5124 C543.0621 351.6402 542.9963 351.8406 542.9875 352.1066 L542.9829 352.2621 L542.9875 352.4176 C542.9963 352.6818 543.0639 352.877 543.1918 353.0064 C543.3159 353.1342 543.4852 353.2 543.6977 353.2 C543.8619 353.2 543.9949 353.1653 544.102 353.0945 C544.2072 353.0272 544.292 352.9114 544.3485 352.7473 C544.3625 352.7128 544.3798 352.6871 544.3918 352.6732 C544.4059 352.6593 544.423 352.6559 544.4542 352.6559 L544.5163 352.6559 C544.5437 352.6559 544.5644 352.6646 544.587 352.6818 C544.6093 352.704 544.618 352.725 544.6147 352.7526 C544.6093 352.8665 544.5698 352.9789 544.5044 353.0842 C544.4385 353.1964 544.3365 353.2846 544.1986 353.3501 C544.0621 353.4209 543.8929 353.4573 543.6977 353.4573 Z " opacity="1" fill="#222222" fill-opacity="1" /></g><g><path d="M545.5283 354.2535 C545.5061 354.2535 545.4838 354.2448 545.4663 354.2276 C545.4491 354.2086 545.4405 354.1878 545.4405 354.1655 C545.4405 354.1514 545.4491 354.1206 545.4663 354.0773 L545.8066 353.2776 L544.9586 351.2847 C544.9409 351.2414 544.9324 351.2102 544.9324 351.1965 C544.9324 351.174 544.9409 351.1516 544.9586 351.1342 C544.9757 351.1169 544.9983 351.1083 545.0206 351.1083 L545.114 351.1083 C545.1623 351.1083 545.1931 351.1291 545.2158 351.174 L545.962 352.9288 L546.7219 351.1723 C546.7444 351.1291 546.7788 351.1066 546.824 351.1066 L546.9116 351.1066 C546.9342 351.1066 546.9568 351.1154 546.9739 351.1326 C546.9929 351.1498 547.0013 351.1723 547.0013 351.1949 C547.0013 351.2087 546.9929 351.2398 546.9739 351.2828 L545.7184 354.1878 C545.696 354.231 545.6667 354.2535 545.6166 354.2535 L545.5283 354.2535 Z " opacity="1" fill="#222222" fill-opacity="1" /></g><g><path d="M549.1966 353.4091 C548.9792 353.4091 548.8238 353.3414 548.7305 353.2085 C548.6371 353.0807 548.594 352.8994 548.594 352.6679 L548.5922 351.3622 L548.2451 351.3622 C548.2158 351.3622 548.1936 351.3536 548.176 351.3346 C548.1586 351.3174 548.1483 351.295 548.1483 351.2637 L548.1483 351.2036 C548.1483 351.1723 548.1573 351.1498 548.176 351.1326 C548.1936 351.1136 548.2141 351.105 548.2451 351.105 L548.5922 351.105 L548.5908 350.3606 C548.5908 350.3294 548.5991 350.3069 548.6183 350.2898 C548.6354 350.2724 548.6578 350.2621 548.689 350.2621 L548.7634 350.2621 C548.7942 350.2621 548.817 350.2724 548.834 350.2898 C548.8529 350.3069 548.8619 350.3294 548.8619 350.3606 L548.8619 351.105 L549.4107 351.1032 C549.442 351.1032 549.4646 351.1118 549.4818 351.131 C549.5007 351.1481 549.5093 351.1706 549.5093 351.2016 L549.5093 351.2637 C549.5093 351.295 549.5007 351.3174 549.4818 351.3346 C549.4646 351.3519 549.442 351.3604 549.4107 351.3604 L548.8633 351.3622 L548.8633 352.6505 C548.8633 352.8149 548.8894 352.9393 548.9484 353.0239 C549.002 353.1067 549.0897 353.1514 549.2177 353.1514 L549.4577 353.1514 C549.4886 353.1514 549.5109 353.1602 549.5284 353.1775 C549.5455 353.1946 549.5558 353.2172 549.5558 353.2484 L549.5558 353.3104 C549.5558 353.3414 549.5474 353.3641 549.5284 353.3813 C549.5109 353.3986 549.4886 353.4091 549.4577 353.4091 L549.1966 353.4091 Z " opacity="1" fill="#227DC1" fill-opacity="1" /></g><g><path d="M550.109 353.4072 C550.0774 353.4072 550.0568 353.3986 550.038 353.3813 C550.0204 353.3641 550.0122 353.3414 550.0122 353.3104 L550.0104 351.2053 C550.0104 351.174 550.019 351.1516 550.0363 351.1291 C550.0536 351.1118 550.076 351.1032 550.1072 351.1032 L550.1775 351.1032 C550.209 351.1032 550.2314 351.1118 550.2537 351.1291 C550.2712 351.1516 550.2798 351.174 550.2798 351.2053 L550.2814 351.4088 C550.3868 351.2053 550.5853 351.1032 550.8826 351.1032 L551.0464 351.1032 C551.0777 351.1032 551.1 351.1118 551.1171 351.1291 C551.1346 351.1464 551.1432 351.1689 551.1432 351.2 L551.1432 351.262 C551.145 351.2933 551.1346 351.3157 551.1171 351.3329 C551.1 351.3502 551.0777 351.3604 551.0464 351.3604 L550.8564 351.3604 C550.6786 351.3604 550.537 351.4124 550.4352 351.5142 C550.3333 351.616 550.2814 351.7595 550.2814 351.9356 L550.2814 353.3089 C550.2814 353.3397 550.2729 353.3624 550.2554 353.3813 C550.2331 353.3986 550.2104 353.4072 550.1813 353.4072 L550.109 353.4072 Z " opacity="1" fill="#227DC1" fill-opacity="1" /></g><g><path d="M552.1382 353.4502 C551.9964 353.4502 551.8634 353.4194 551.7443 353.3624 C551.6252 353.3036 551.5264 353.224 551.4557 353.1222 C551.3799 353.0204 551.3435 352.9098 551.3435 352.7905 C551.3435 352.5953 551.4248 352.4365 551.5837 352.3123 C551.7391 352.1878 551.9516 352.1084 552.2211 352.0722 L552.9224 351.9737 L552.9203 351.8181 C552.9203 351.6541 552.8723 351.5314 552.7751 351.4417 C552.6719 351.3572 552.5217 351.314 552.3175 351.314 C552.1676 351.314 552.0432 351.3449 551.9498 351.4037 C551.8533 351.4607 551.791 351.5314 551.7651 351.616 C551.7511 351.6505 551.7374 351.6732 551.725 351.687 C551.7061 351.7008 551.6856 351.7095 551.6581 351.7095 L551.5958 351.7095 C551.5699 351.7095 551.5474 351.7008 551.5302 351.6781 C551.5076 351.6609 551.4989 351.6386 551.4989 351.6109 C551.4989 351.5454 551.5302 351.4694 551.5872 351.3812 C551.644 351.2967 551.7374 351.2206 551.8619 351.1549 C551.9861 351.0877 552.1364 351.0565 552.3175 351.0565 C552.6321 351.0565 552.8582 351.1326 552.9913 351.2828 C553.1245 351.4331 553.1917 351.6144 553.1917 351.8318 L553.1934 353.307 C553.1934 353.3382 553.1849 353.3605 553.1659 353.3777 C553.1484 353.395 553.1258 353.4037 553.0948 353.4037 L553.0205 353.4037 C552.9896 353.4037 552.967 353.395 552.9498 353.3777 C552.9326 353.3605 552.9224 353.3382 552.9224 353.307 L552.9224 353.0981 C552.8566 353.1964 552.7632 353.2811 552.6389 353.3469 C552.511 353.414 552.347 353.4502 552.1382 353.4502 Z M552.183 353.1931 C552.4006 353.1931 552.5769 353.1222 552.7149 352.9789 C552.8514 352.8372 552.9224 352.6336 552.9224 352.3675 L552.9224 352.2171 L552.3505 352.2982 C552.1069 352.3296 551.9258 352.3864 551.8011 352.4675 C551.677 352.5471 551.6149 352.649 551.6149 352.7682 C551.6149 352.9063 551.6736 353.0064 551.7892 353.0825 C551.8997 353.1585 552.0328 353.1931 552.183 353.1931 Z " fill-rule="evenodd" opacity="1" fill="#227DC1" fill-opacity="1" /></g><g><path d="M554.765 353.447 C554.4612 353.4487 554.2209 353.3588 554.0517 353.1775 C553.8843 353.0012 553.7961 352.7526 553.7858 352.4296 L553.7825 352.2516 L553.7858 352.0758 C553.7943 351.7507 553.8822 351.5038 554.0517 351.3209 C554.2195 351.1447 554.4575 351.0548 554.7633 351.0548 C554.9584 351.0548 555.1259 351.0895 555.2645 351.1566 C555.4024 351.2275 555.5043 351.3157 555.5698 351.4211 C555.637 351.5331 555.6771 351.6439 555.6824 351.7577 C555.6873 351.7854 555.6771 351.8078 555.6545 351.8251 C555.6321 351.8477 555.6113 351.8562 555.5856 351.8562 L555.5231 351.8562 C555.4922 351.8562 555.473 351.8477 555.4592 351.8339 C555.4473 351.8199 555.4297 351.7992 555.4161 351.7631 C555.3593 351.5989 555.2727 351.4831 555.1674 351.4142 C555.0603 351.3467 554.9272 351.3123 554.7633 351.3123 C554.5508 351.3123 554.3834 351.3743 554.259 351.5021 C554.1295 351.6317 554.0637 351.8303 554.0551 352.0963 L554.0517 352.2516 L554.0551 352.407 C554.0657 352.6732 554.1313 352.8683 554.2607 352.9961 C554.3848 353.124 554.5526 353.1914 554.765 353.1914 C554.9294 353.1914 555.062 353.155 555.169 353.0842 C555.2747 353.017 555.3593 352.9009 555.4161 352.737 C555.4297 352.7025 555.4473 352.6765 555.4614 352.6627 C555.4749 352.649 555.4922 352.6455 555.5231 352.6455 L555.5856 352.6455 C555.6113 352.6455 555.6336 352.6541 555.6562 352.6715 C555.6788 352.6938 555.6873 352.7148 555.6824 352.7423 C555.6788 352.8581 555.639 352.9685 555.5717 353.0739 C555.5059 353.1843 555.404 353.2743 555.2659 353.3397 C555.1296 353.4123 554.9601 353.447 554.765 353.447 Z " opacity="1" fill="#227DC1" fill-opacity="1" /></g><g><path d="M556.3694 353.402 C556.3382 353.402 556.3176 353.3933 556.2989 353.3744 C556.2816 353.3571 556.2727 353.3348 556.2727 353.3036 L556.2695 350.3536 C556.2695 350.3226 556.2783 350.3001 556.2953 350.2827 C556.3142 350.2639 556.3351 350.2552 556.3659 350.2552 L556.4422 350.2552 C556.4728 350.2552 556.4958 350.2639 556.5131 350.2827 C556.5303 350.3001 556.5388 350.3226 556.5406 350.3536 L556.5424 351.9218 L557.5287 351.1723 C557.5783 351.1359 557.6074 351.1136 557.6273 351.105 C557.6439 351.1014 557.675 351.0963 557.7148 351.0963 L557.7997 351.0963 C557.8257 351.0963 557.8481 351.105 557.8651 351.1188 C557.8792 351.1359 557.8878 351.1585 557.8878 351.1843 C557.8878 351.2156 557.8707 351.2464 557.8306 351.2742 L556.7101 352.1257 L557.9426 353.2223 C557.9824 353.2587 558 353.2898 558 353.3121 C558 353.3382 557.9915 353.3605 557.9774 353.3744 C557.9602 353.3917 557.9376 353.4003 557.9118 353.4003 L557.8408 353.4003 C557.798 353.4003 557.7667 353.395 557.7427 353.3864 C557.7216 353.383 557.696 353.3605 557.6545 353.3243 L556.5424 352.3382 L556.5424 353.3036 C556.5424 353.3348 556.5338 353.3571 556.5162 353.3744 C556.4991 353.3933 556.4769 353.402 556.4452 353.402 L556.3694 353.402 Z " opacity="1" fill="#227DC1" fill-opacity="1" /></g><path d="M534.1312 327.0028 C535.4955 327.0028 536.8599 327.001 538.2225 327.0028 C538.2264 327.9409 538.2225 328.8802 538.2246 329.8215 C538.2264 330.0788 538.2863 330.3448 538.4421 330.5538 C538.5752 330.7439 538.7756 330.8751 538.9858 330.9632 C539.0308 330.9769 539.0757 330.9943 539.1223 331.0099 C539.2504 331.0358 539.3766 331.0754 539.5093 331.072 C540.4404 331.072 541.3729 331.0703 542.3039 331.072 C542.3039 332.0098 542.3057 332.9476 542.3039 333.8855 C542.3073 334.1774 542.4092 334.4659 542.5732 334.7039 C542.7684 334.9788 543.1001 335.1568 543.4385 335.148 C544.4196 335.1463 545.4005 335.1463 546.3816 335.1463 C546.3884 336.5142 546.3851 337.8839 546.3851 339.2516 C545.3625 339.2534 544.34 339.2483 543.3177 339.255 C542.7273 339.3171 542.3278 339.8907 542.3073 340.4539 C542.3039 341.4123 542.3091 342.3727 542.3073 343.3311 C541.33 343.3311 540.3522 343.333 539.3745 343.3311 C539.0551 343.3362 538.7323 343.4763 538.5319 343.7335 C538.3264 343.996 538.2161 344.3345 538.2246 344.6679 C538.2278 345.5798 538.2246 346.4918 538.2278 347.402 C536.8651 347.402 535.5023 347.402 534.1398 347.4036 C534.1398 346.0444 534.1379 344.6852 534.1379 343.3243 C535.0015 343.3277 535.8632 343.3243 536.7253 343.326 C537.2019 343.3536 537.7285 343.1963 538.0153 342.7957 C538.1519 342.5972 538.2225 342.3552 538.2161 342.1169 C538.2141 341.5643 538.2174 341.0099 538.2141 340.4571 C538.1865 340.0703 538.0136 339.6747 537.6907 339.447 C537.5076 339.3171 537.2833 339.2448 537.0569 339.2534 C536.0846 339.257 535.1102 339.2534 534.1379 339.257 C534.1364 337.8871 534.1274 336.5176 534.1398 335.1498 C535.126 335.1514 536.1124 335.1498 537.0966 335.1498 C537.473 335.155 537.8253 334.9236 538.0085 334.6023 C538.1399 334.3706 538.2208 334.1049 538.2122 333.8371 C538.2104 333.3657 538.2104 332.894 538.2122 332.4211 C538.2264 332.072 538.0963 331.7214 537.8757 331.4536 C537.6476 331.1929 537.2952 331.0857 536.9583 331.0788 C536.0152 331.0825 535.0739 331.0807 534.1312 331.0807 C534.1312 329.7213 534.1295 328.362 534.1312 327.0028M539.3401 335.1859 C539.0671 335.2275 538.8031 335.3431 538.5906 335.521 C538.3436 335.7386 538.2314 336.0739 538.2278 336.3968 C538.2192 336.9322 538.2297 337.4656 538.2246 337.9996 C538.2208 338.2896 538.3055 338.5953 538.5131 338.8079 C538.7495 339.0807 539.1121 339.2101 539.4643 339.243 C539.9204 339.2483 540.3779 339.243 540.836 339.2465 C541.2212 339.2619 541.6267 339.1549 541.922 338.8977 C542.1639 338.6851 542.2881 338.364 542.292 338.0461 C542.2933 337.478 542.2902 336.9114 542.292 336.3412 C542.2953 336.0376 542.1674 335.7299 541.9444 335.5227 C541.6768 335.2982 541.3283 335.1633 540.9775 335.1757 C540.4315 335.1825 539.8857 335.1633 539.3401 335.1859 Z " fill-rule="evenodd" opacity="1" fill="#227DC1" fill-opacity="1" /></g><text x="520.346" y="368.98" font-size="12" fill="#227DC1" fill-opacity="1" font-family="LG Smart" font-weight="normal" font-style="normal">Front-End</text></g></svg>