<?xml version="1.0" encoding="utf-8"?>
<svg width="100%" height="100%" version="1.1" viewBox="284 46 469.9031 465.3" xmlns:xlink="http://www.w3.org/1999/xlink" xmlns="http://www.w3.org/2000/svg">
  <defs />
  <marker id="marker1" markerUnits="strokeWidth" orient="auto" refX="11.17254" refY="0" markerWidth="13.27247" markerHeight="10.22955" viewBox="-1 -5.114774 13.27247 10.22955">
    <path d="M11.27247 4.114773 L0 0 L11.27247 -4.114774 Z " fill="#FC6665" fill-opacity="1" stroke="#FC6665" stroke-opacity="1" />
  </marker>
  <marker id="marker2" markerUnits="strokeWidth" orient="auto" refX="11.17254" refY="0" markerWidth="13.27247" markerHeight="10.22955" viewBox="-1 -5.114774 13.27247 10.22955">
    <path d="M11.27247 4.114773 L0 0 L11.27247 -4.114774 Z " fill="#FC6665" fill-opacity="1" stroke="#FC6665" stroke-opacity="1" />
  </marker>
  <marker id="marker3" markerUnits="strokeWidth" orient="auto" refX="11.17254" refY="0" markerWidth="13.27247" markerHeight="10.22955" viewBox="-1 -5.114774 13.27247 10.22955">
    <path d="M11.27247 4.114773 L0 0 L11.27247 -4.114774 Z " fill="#FC6665" fill-opacity="1" stroke="#FC6665" stroke-opacity="1" />
  </marker>
  <g id="layer1">
    <rect x="288" y="90" width="71.9999" height="180" rx="9" ry="9" opacity="1" stroke="#073F80" stroke-opacity="1" stroke-width="1" stroke-linecap="butt" stroke-linejoin="miter" stroke-dasharray="none" fill-opacity="0" />
    <rect x="297" y="189" width="54" height="54" rx="9" ry="9" opacity="1" stroke="#073F80" stroke-opacity="1" stroke-width="1" stroke-linecap="butt" stroke-linejoin="miter" stroke-dasharray="none" fill-opacity="0" />
    <text x="308.54" y="219" font-size="10" fill="#073F80" fill-opacity="1" font-family="LG Smart" font-weight="normal" font-style="normal">Front End</text>
    <rect x="288" y="315" width="72" height="180" rx="9" ry="9" opacity="1" stroke="#227DC1" stroke-opacity="1" stroke-width="1" stroke-linecap="butt" stroke-linejoin="miter" stroke-dasharray="none" fill-opacity="0" />
    <rect x="504" y="315" width="72" height="180" rx="9" ry="9" opacity="1" stroke="#227DC1" stroke-opacity="1" stroke-width="1" stroke-linecap="butt" stroke-linejoin="miter" stroke-dasharray="none" fill-opacity="0" />
    <g transform="rotate(270 488.5002 400.3)">
      <text x="465.3901" y="403.9" font-size="12" fill="#227DC1" fill-opacity="1" font-family="LG Smart" font-weight="normal" font-style="normal">Web Server</text>
    </g>
    <line x1="372.1724" y1="180" x2="712" y2="180" marker-start="url(#marker1)" opacity="1" stroke="#FC6665" stroke-opacity="1" stroke-width="1" stroke-linecap="butt" stroke-linejoin="miter" stroke-dasharray="none" />
    <line x1="372.1725" y1="405" x2="504" y2="405" marker-start="url(#marker2)" opacity="1" stroke="#FC6665" stroke-opacity="1" stroke-width="1" stroke-linecap="butt" stroke-linejoin="miter" stroke-dasharray="none" />
    <line x1="588.1726" y1="405" x2="712" y2="405" marker-start="url(#marker3)" opacity="1" stroke="#FC6665" stroke-opacity="1" stroke-width="1" stroke-linecap="butt" stroke-linejoin="miter" stroke-dasharray="none" />
    <text x="291" y="77.2" font-size="14" fill="#7F7F7E" fill-opacity="1" font-family="LG Smart" font-weight="normal" font-style="normal">Default Deployment</text>
    <text x="291" y="302.2" font-size="14" fill="#7F7F7E" fill-opacity="1" font-family="LG Smart" font-weight="normal" font-style="normal">n-Tier Deployment</text>
    <rect x="513" y="378" width="54" height="54" rx="9" ry="9" opacity="1" stroke="#227DC1" stroke-opacity="1" stroke-width="1" stroke-linecap="butt" stroke-linejoin="miter" stroke-dasharray="none" fill-opacity="0" />
    <text x="524.54" y="408" font-size="10" fill="#227DC1" fill-opacity="1" font-family="LG Smart" font-weight="normal" font-style="normal">Front End</text>
    <g>
      <g>
        <path d="M292.6727 172.216 C292.0753 172.216 291.6336 172.0246 291.3478 171.625 C291.0552 171.2353 290.9062 170.758 290.8899 170.1994 L290.88 169.9687 L290.8864 169.7352 C290.9062 169.1767 291.0521 168.6926 291.3442 168.2998 C291.6269 167.91 292.0685 167.7181 292.6695 167.715 C293.2768 167.715 293.7442 167.9326 294.0693 168.3742 L294.0658 166.3996 C294.0658 166.3413 294.0856 166.299 294.1177 166.2668 C294.1501 166.2307 294.1925 166.2145 294.2508 166.2145 L294.394 166.2145 C294.4522 166.2145 294.4915 166.2307 294.5272 166.2668 C294.5597 166.299 294.5755 166.3413 294.5755 166.3964 L294.5791 171.9465 C294.5791 172.0052 294.5629 172.0472 294.5303 172.0797 C294.4979 172.1122 294.4554 172.1317 294.3971 172.1317 L294.2541 172.1317 C294.1958 172.1317 294.1568 172.1122 294.1244 172.0797 C294.0887 172.0472 294.0724 172.0052 294.0724 171.9465 L294.0724 171.5567 C293.7478 171.9985 293.2799 172.2129 292.6727 172.216 Z M292.7215 171.7325 C293.163 171.7325 293.4878 171.5829 293.7153 171.2908 C293.9392 171.005 294.0562 170.6573 294.0724 170.2644 C294.0788 170.2057 294.0788 170.0987 294.0788 169.9398 C294.0788 169.7804 294.0788 169.6733 294.0693 169.6147 C294.0626 169.3744 294.0138 169.1473 293.913 168.9328 C293.8092 168.7251 293.6634 168.5495 293.4619 168.4068 C293.2638 168.2672 293.0104 168.199 292.7215 168.199 C292.2698 168.199 291.9452 168.3417 291.7375 168.6244 C291.5261 168.9166 291.4124 169.2836 291.3965 169.7352 L291.3898 169.9655 C291.3898 170.4853 291.4904 170.9106 291.6887 171.2322 C291.8901 171.5667 292.231 171.7325 292.7215 171.7325 Z " fill-rule="evenodd" opacity="1" fill="#222222" fill-opacity="1" />
      </g>
      <g>
        <path d="M297.5472 172.2097 C297.0211 172.2129 296.5958 172.0377 296.2711 171.6868 C295.9464 171.3459 295.7613 170.8813 295.7189 170.297 L295.7125 169.9623 L295.7189 169.6277 C295.7613 169.0561 295.9428 168.5888 296.2711 168.2379 C296.5858 167.887 297.0113 167.7118 297.544 167.7118 C298.1188 167.7118 298.5668 167.9033 298.9014 168.2867 C299.2197 168.67 299.3854 169.1925 299.3854 169.8585 L299.3854 169.9849 C299.3854 170.0436 299.3692 170.0856 299.3367 170.1181 C299.2943 170.1507 299.2522 170.1669 299.1939 170.1669 L296.2287 170.1701 L296.2287 170.2545 C296.2386 170.5146 296.3036 170.7548 296.4138 170.9788 C296.5212 171.2028 296.6703 171.3879 296.8653 171.518 C297.0537 171.6607 297.2876 171.7289 297.5472 171.7257 C297.8556 171.7257 298.1025 171.6674 298.2941 171.5441 C298.4891 171.4272 298.6191 171.3102 298.7036 171.1834 C298.7555 171.1183 298.7944 171.0763 298.8202 171.06 C298.8463 171.0438 298.8851 171.0338 298.9534 171.0338 L299.0866 171.0338 C299.1353 171.0338 299.1777 171.0502 299.2134 171.0763 C299.2458 171.1021 299.2622 171.1445 299.2622 171.1834 C299.2622 171.3003 299.1873 171.4434 299.0477 171.6024 C298.8951 171.7681 298.6874 171.9108 298.4305 172.0278 C298.1707 172.151 297.8719 172.2097 297.5472 172.2097 Z M298.8789 169.7027 L298.8789 169.6702 C298.8789 169.2448 298.7619 168.8872 298.5184 168.6113 C298.2747 168.3354 297.95 168.1959 297.544 168.1959 C297.1349 168.1959 296.8166 168.3386 296.5858 168.6113 C296.3456 168.8872 296.2287 169.2448 296.2287 169.6702 L296.2287 169.7058 L298.8789 169.7027 Z " fill-rule="evenodd" opacity="1" fill="#222222" fill-opacity="1" />
      </g>
      <g>
        <path d="M300.681 173.7066 C300.6227 173.7102 300.5807 173.6904 300.5482 173.6579 C300.5157 173.6258 300.4963 173.5834 300.4963 173.5251 L300.4927 167.9746 C300.4927 167.9164 300.5089 167.8775 300.5415 167.8418 C300.5771 167.8093 300.6164 167.7931 300.6746 167.7931 L300.8177 167.7931 C300.8761 167.7931 300.918 167.8093 300.9506 167.8418 C300.983 167.8744 300.9994 167.9164 300.9994 167.9746 L300.9994 168.3679 C301.3276 167.9263 301.7918 167.7086 302.3992 167.7086 C303.0001 167.7086 303.4417 167.9001 303.7339 168.2735 C304.0165 168.6569 304.1656 169.1211 304.1854 169.6797 C304.1949 169.7384 304.1949 169.8323 304.1949 169.956 C304.1949 170.0793 304.1949 170.1733 304.1854 170.2319 C304.1692 170.7873 304.0198 171.2548 303.737 171.6317 C303.4449 172.0146 303.0033 172.2066 302.4055 172.2066 C301.795 172.2066 301.3308 171.9921 301.0025 171.5505 L301.0061 173.5251 C301.0061 173.5834 300.9897 173.6258 300.9541 173.6579 C300.9216 173.6904 300.8824 173.7066 300.8209 173.7066 L300.681 173.7066 Z M302.3535 171.7225 C302.8051 171.7225 303.1365 171.5797 303.3443 171.2908 C303.5456 171.005 303.6625 170.6379 303.6788 170.1895 C303.6852 170.1312 303.6852 170.0567 303.6852 169.956 C303.6852 169.4394 303.5845 169.014 303.383 168.6827 C303.1848 168.358 302.8408 168.1891 302.3503 168.1891 C301.9087 168.1923 301.5841 168.3322 301.3601 168.6244 C301.1357 168.9166 301.0187 169.2674 301.0025 169.6571 L300.9962 169.9818 L301.0025 170.3065 C301.0124 170.5503 301.0612 170.7742 301.1619 170.9819 C301.2625 171.1996 301.412 171.3752 301.6134 171.5148 C301.8143 171.6575 302.0614 171.7225 302.3535 171.7225 Z " fill-rule="evenodd" opacity="1" fill="#222222" fill-opacity="1" />
      </g>
      <g>
        <path d="M306.9359 172.203 C306.4099 172.203 305.9877 172.0278 305.663 171.6804 C305.3351 171.3359 305.1532 170.8717 305.1108 170.287 L305.1012 169.956 L305.1108 169.6214 C305.15 169.0466 305.3351 168.5788 305.6599 168.228 C305.9745 167.8807 306.4003 167.7055 306.9328 167.7019 C307.5076 167.7019 307.9591 167.8937 308.2902 168.2767 C308.6085 168.6601 308.7742 169.1862 308.7774 169.8518 L308.7774 169.9786 C308.7774 170.0337 308.7579 170.0761 308.7254 170.1086 C308.6834 170.1443 308.641 170.1606 308.5858 170.1606 L305.6174 170.1638 L305.6205 170.245 C305.6273 170.5047 305.6954 170.745 305.8025 170.9724 C305.9099 171.1964 306.0626 171.3784 306.2509 171.5116 C306.4455 171.6543 306.6794 171.7193 306.9359 171.7193 C307.2444 171.7193 307.4945 171.6607 307.6864 171.5342 C307.8778 171.4173 308.011 171.3003 308.0923 171.177 C308.1443 171.1088 308.183 171.0696 308.2124 171.0502 C308.235 171.0338 308.2775 171.0275 308.342 171.0275 L308.4753 171.0275 C308.5272 171.0275 308.5696 171.0438 308.6021 171.0664 C308.6346 171.0926 308.6509 171.1346 308.6509 171.177 C308.6509 171.2939 308.576 171.4335 308.4364 171.5925 C308.287 171.7582 308.0761 171.9014 307.8192 172.0182 C307.5626 172.1446 307.2606 172.203 306.9359 172.203 Z M308.2675 169.6927 L308.2675 169.6602 C308.2675 169.2349 308.1506 168.8777 307.9104 168.6018 C307.6665 168.3286 307.3419 168.186 306.9328 168.186 C306.5236 168.186 306.2084 168.3286 305.9745 168.605 C305.7343 168.8777 305.6174 169.2381 305.6174 169.6602 L305.6174 169.6959 L308.2675 169.6927 Z " fill-rule="evenodd" opacity="1" fill="#222222" fill-opacity="1" />
      </g>
      <g>
        <path d="M310.0602 172.1153 C310.0015 172.1153 309.9626 172.0991 309.9269 172.0666 C309.8944 172.0341 309.8783 171.9921 309.8783 171.9338 L309.8751 167.9683 C309.8751 167.91 309.8913 167.8676 309.9238 167.8351 C309.9564 167.7994 309.9984 167.7832 310.057 167.7832 L310.1997 167.7832 C310.2584 167.7832 310.3005 167.7994 310.333 167.832 C310.3654 167.8676 310.3817 167.91 310.3817 167.9651 L310.3817 168.358 C310.5506 168.1404 310.739 167.9746 310.9565 167.8644 C311.1642 167.7574 311.4405 167.6987 311.7815 167.6987 C312.3239 167.6987 312.7492 167.8744 313.0382 168.2153 C313.3304 168.5625 313.483 169.014 313.483 169.5628 L313.4865 171.9303 C313.4865 171.9889 313.4702 172.0309 313.4342 172.0634 C313.4021 172.096 313.3597 172.1122 313.3015 172.1122 L313.1615 172.1122 C313.1032 172.1122 313.0607 172.096 313.0251 172.0634 C312.9926 172.0309 312.9763 171.9889 312.9763 171.9303 L312.9732 169.6052 C312.9732 169.1568 312.8662 168.8063 312.6486 168.5561 C312.4246 168.3061 312.1062 168.1828 311.7002 168.1828 C311.2974 168.1828 310.9822 168.3061 310.739 168.5594 C310.4987 168.8159 310.3817 169.1667 310.3817 169.6083 L310.3849 171.9338 C310.3849 171.9921 310.3686 172.0309 310.3362 172.0666 C310.3005 172.0991 310.2616 172.1153 310.2029 172.1153 L310.0602 172.1153 Z " opacity="1" fill="#222222" fill-opacity="1" />
      </g>
      <g>
        <path d="M316.3603 172.1935 C315.7597 172.1935 315.3181 172.002 315.0355 171.6024 C314.7433 171.2126 314.5938 170.7385 314.5743 170.18 L314.5676 169.9461 L314.5743 169.7121 C314.5906 169.1537 314.7401 168.67 315.0322 168.2803 C315.3148 167.887 315.7565 167.6955 316.3539 167.6955 C316.9645 167.6955 317.4291 167.91 317.7538 168.3517 L317.7538 166.377 C317.7538 166.3187 317.77 166.2763 317.8025 166.2438 C317.8382 166.2113 317.877 166.1919 317.9389 166.1919 L318.0785 166.1919 C318.1366 166.1919 318.1792 166.2081 318.2116 166.2438 C318.2441 166.2763 318.2635 166.3187 318.2635 166.377 L318.2668 171.9271 C318.2668 171.9857 318.2505 172.0246 318.218 172.0602 C318.1854 172.0928 318.1435 172.1091 318.0847 172.1091 L317.942 172.1091 C317.8834 172.1091 317.8414 172.0928 317.8089 172.0602 C317.7764 172.0246 317.7601 171.9857 317.7601 171.9271 L317.7601 171.5342 C317.4353 171.9759 316.9676 172.1935 316.3603 172.1935 Z M316.409 171.7094 C316.8507 171.7094 317.1758 171.5599 317.3997 171.2678 C317.6237 170.9851 317.7407 170.6347 317.7569 170.245 C317.7669 170.1832 317.7669 170.0761 317.7669 169.9168 C317.7669 169.761 317.7669 169.6508 317.7569 169.5952 C317.7505 169.3518 317.6987 169.1279 317.598 168.9102 C317.4973 168.7025 317.3478 168.5268 317.1495 168.3873 C316.9482 168.2442 316.6981 168.1796 316.4059 168.1796 C315.9543 168.1796 315.6296 168.3191 315.422 168.605 C315.2142 168.894 315.1005 169.261 315.0841 169.7121 L315.0743 169.9461 C315.0743 170.4626 315.175 170.888 315.3763 171.2126 C315.5746 171.5441 315.9187 171.7094 316.409 171.7094 Z " fill-rule="evenodd" opacity="1" fill="#222222" fill-opacity="1" />
      </g>
      <g>
        <path d="M321.2353 172.1903 C320.7091 172.1903 320.2833 172.0146 319.9555 171.6642 C319.634 171.3265 319.4489 170.8587 319.4069 170.2739 L319.4001 169.9429 L319.4069 169.6083 C319.4489 169.0335 319.6308 168.5658 319.9555 168.2153 C320.2739 167.8644 320.6961 167.6924 321.2317 167.6924 C321.8033 167.6924 322.2548 167.8807 322.5894 168.264 C322.9042 168.647 323.0731 169.1699 323.0731 169.8391 L323.0731 169.9623 C323.0731 170.0206 323.0569 170.0631 323.0242 170.0956 C322.9823 170.1312 322.9399 170.1475 322.8816 170.1475 L319.9167 170.1475 L319.9167 170.2319 C319.923 170.4916 319.9912 170.7322 320.0982 170.9562 C320.2088 171.1834 320.3584 171.3653 320.5498 171.4985 C320.7413 171.6412 320.9752 171.7063 321.2353 171.7063 C321.5405 171.7063 321.7902 171.648 321.9821 171.5211 C322.1735 171.4042 322.3068 171.2872 322.3912 171.1639 C322.44 171.0957 322.482 171.0569 322.5081 171.0407 C322.5339 171.0212 322.5764 171.0145 322.6413 171.0145 L322.7746 171.0145 C322.8234 171.0145 322.8654 171.0307 322.9011 171.0538 C322.9335 171.0795 322.9498 171.1219 322.9498 171.1639 C322.9498 171.2809 322.8717 171.4204 322.7321 171.5797 C322.5827 171.7451 322.3748 171.8883 322.1154 172.0052 C321.8584 172.1317 321.5568 172.1903 321.2353 172.1903 Z M322.5632 169.6797 L322.5632 169.6472 C322.5632 169.2218 322.4463 168.8646 322.2061 168.5888 C321.9627 168.3159 321.6376 168.1729 321.2317 168.1729 C320.8226 168.1729 320.5077 168.3159 320.2739 168.5919 C320.03 168.8646 319.9131 169.225 319.9131 169.6508 L319.9131 169.6828 L322.5632 169.6797 Z " fill-rule="evenodd" opacity="1" fill="#222222" fill-opacity="1" />
      </g>
      <g>
        <path d="M324.3592 172.1027 C324.3008 172.1027 324.2584 172.0864 324.2259 172.0539 C324.1902 172.0214 324.174 171.979 324.174 171.9207 L324.1709 167.9552 C324.1709 167.897 324.187 167.8546 324.2196 167.8188 C324.2552 167.7863 324.2942 167.7701 324.3528 167.7701 L324.4955 167.7701 C324.5541 167.7701 324.5962 167.7863 324.6288 167.8188 C324.6611 167.8546 324.6774 167.897 324.6774 167.9521 L324.6806 168.3449 C324.8463 168.1277 325.0378 167.962 325.2523 167.8546 C325.4601 167.7443 325.7363 167.6856 326.0773 167.6856 C326.6196 167.6856 327.0449 167.8613 327.3371 168.2022 C327.6296 168.553 327.7792 169.0011 327.7792 169.5532 L327.7823 171.9176 C327.7823 171.9759 327.766 172.0182 327.7303 172.0504 C327.698 172.0829 327.6555 172.0991 327.5972 172.1027 L327.4572 172.1027 C327.3989 172.1027 327.357 172.0829 327.3243 172.0504 C327.2887 172.0182 327.2726 171.9759 327.2726 171.9176 L327.2726 169.5921 C327.2726 169.1441 327.1619 168.7933 326.9442 168.5431 C326.7202 168.2929 326.4019 168.1697 325.9959 168.1697 C325.5932 168.1697 325.2784 168.2965 325.0378 168.5463 C324.7944 168.8028 324.6806 169.1537 324.6806 169.5952 L324.6842 171.9207 C324.6842 171.979 324.6644 172.0214 324.6319 172.0539 C324.5997 172.0864 324.5573 172.1027 324.4991 172.1027 L324.3592 172.1027 Z " opacity="1" fill="#222222" fill-opacity="1" />
      </g>
      <g>
        <path d="M330.7311 172.1804 C330.1562 172.1804 329.7082 172.0146 329.3898 171.6737 C329.0714 171.3428 328.9059 170.8749 328.8896 170.2676 L328.88 169.933 L328.8864 169.5984 C328.9059 168.9915 329.0714 168.5237 329.3867 168.1828 C329.7014 167.8482 330.153 167.6824 330.7278 167.6824 C331.0949 167.6824 331.4098 167.7475 331.6696 167.8744 C331.9294 168.004 332.1177 168.1729 332.2445 168.3711 C332.371 168.5788 332.4455 168.7901 332.4523 169.0042 C332.4618 169.0561 332.4455 169.0985 332.4035 169.131 C332.3611 169.1699 332.319 169.1893 332.2704 169.1893 L332.1534 169.1893 C332.095 169.1893 332.0626 169.173 332.0364 169.1473 C332.0106 169.1211 331.978 169.0823 331.9521 169.014 C331.8449 168.7056 331.6855 168.488 331.4846 168.3548 C331.2863 168.2315 331.0362 168.1665 330.7278 168.1665 C330.3281 168.1665 330.0135 168.2834 329.7796 168.5237 C329.5358 168.7639 329.4124 169.1405 329.3962 169.6408 L329.3867 169.933 L329.3962 170.2255 C329.4124 170.7223 329.5393 171.0894 329.7796 171.3328 C330.0135 171.5731 330.3314 171.6967 330.7311 171.6967 C331.0394 171.6967 331.2895 171.6317 331.4909 171.4985 C331.6891 171.3717 331.8481 171.1541 331.9552 170.8456 C331.9813 170.7805 332.0139 170.7322 332.0364 170.7061 C332.0626 170.68 332.095 170.6736 332.1534 170.6736 L332.2704 170.6736 C332.3224 170.6736 332.3611 170.6898 332.4035 170.7223 C332.4455 170.7643 332.4618 170.8036 332.4554 170.8555 C332.4455 171.0696 332.371 171.2809 332.2477 171.4791 C332.124 171.69 331.9324 171.8557 331.6729 171.979 C331.4163 172.1122 331.0981 172.1804 330.7311 172.1804 Z " opacity="1" fill="#222222" fill-opacity="1" />
      </g>
      <g>
        <path d="M334.1736 173.6777 C334.1312 173.6777 334.0892 173.6614 334.0566 173.629 C334.0241 173.5933 334.0079 173.554 334.0079 173.512 C334.0079 173.4859 334.0241 173.4276 334.0566 173.3463 L334.6961 171.8426 L333.1017 168.0952 C333.0691 168.0139 333.0528 167.9552 333.0528 167.9294 C333.0528 167.887 333.0691 167.845 333.1017 167.8125 C333.1342 167.7799 333.1766 167.7637 333.2186 167.7637 L333.3938 167.7637 C333.485 167.7637 333.5433 167.8026 333.5856 167.887 L334.9886 171.1866 L336.4174 167.8839 C336.4598 167.8026 336.5248 167.7605 336.6093 167.7605 L336.7746 167.7605 C336.817 167.7605 336.859 167.7769 336.8915 167.8093 C336.9272 167.8418 336.9435 167.8839 336.9435 167.9263 C336.9435 167.9521 336.9272 168.0107 336.8915 168.0916 L334.5309 173.554 C334.4884 173.6353 334.4333 173.6777 334.3389 173.6777 L334.1736 173.6777 Z " opacity="1" fill="#222222" fill-opacity="1" />
      </g>
      <g>
        <path d="M341.0711 172.0896 C340.662 172.0896 340.3698 171.9627 340.1945 171.7126 C340.019 171.4724 339.9378 171.1314 339.9378 170.6962 L339.9346 168.241 L339.282 168.241 C339.2265 168.241 339.1846 168.2248 339.1519 168.1891 C339.1194 168.1566 339.1001 168.1146 339.1001 168.0559 L339.1001 167.9425 C339.1001 167.8839 339.1163 167.8418 339.1519 167.8093 C339.1846 167.7737 339.2233 167.7574 339.282 167.7574 L339.9346 167.7574 L339.9313 166.3576 C339.9313 166.299 339.9475 166.2569 339.9834 166.2244 C340.0158 166.1919 340.0579 166.1725 340.1165 166.1725 L340.2561 166.1725 C340.3147 166.1725 340.3567 166.1919 340.3892 166.2244 C340.425 166.2569 340.4413 166.299 340.4413 166.3576 L340.4413 167.7574 L341.4739 167.7538 C341.5326 167.7538 341.5746 167.7701 341.607 167.8062 C341.6429 167.8383 341.659 167.8807 341.659 167.9389 L341.659 168.0559 C341.659 168.1146 341.6429 168.1566 341.607 168.1891 C341.5746 168.2216 341.5326 168.2379 341.4739 168.2379 L340.4443 168.241 L340.4443 170.6637 C340.4443 170.9724 340.4931 171.2064 340.6037 171.3653 C340.7044 171.5211 340.8698 171.6055 341.1104 171.6055 L341.5615 171.6055 C341.6202 171.6055 341.6622 171.6219 341.6947 171.6543 C341.7272 171.6868 341.7465 171.7289 341.7465 171.7876 L341.7465 171.9044 C341.7465 171.9627 341.7303 172.0052 341.6947 172.0377 C341.6622 172.0702 341.6202 172.0896 341.5615 172.0896 L341.0711 172.0896 Z " opacity="1" fill="#227DC1" fill-opacity="1" />
      </g>
      <g>
        <path d="M342.7861 172.0864 C342.7274 172.0864 342.6885 172.0702 342.6529 172.0377 C342.6204 172.0052 342.6042 171.9627 342.6042 171.9044 L342.6009 167.9457 C342.6009 167.887 342.6172 167.845 342.6498 167.8026 C342.6822 167.7701 342.7242 167.7538 342.783 167.7538 L342.9157 167.7538 C342.9744 167.7538 343.0164 167.7701 343.0589 167.8026 C343.0914 167.845 343.1076 167.887 343.1076 167.9457 L343.1107 168.3286 C343.3089 167.9457 343.6825 167.7538 344.241 167.7538 L344.5495 167.7538 C344.6077 167.7538 344.6502 167.7701 344.6826 167.8026 C344.7151 167.8351 344.7314 167.8775 344.7314 167.9358 L344.7314 168.0527 C344.7345 168.1114 344.7151 168.1534 344.6826 168.186 C344.6502 168.2184 344.6077 168.2379 344.5495 168.2379 L344.1922 168.2379 C343.8577 168.2379 343.5913 168.3354 343.3998 168.5268 C343.2083 168.7183 343.1107 168.988 343.1107 169.3194 L343.1107 171.9014 C343.1107 171.9595 343.0945 172.002 343.062 172.0377 C343.02 172.0702 342.9776 172.0864 342.9224 172.0864 L342.7861 172.0864 Z " opacity="1" fill="#227DC1" fill-opacity="1" />
      </g>
      <g>
        <path d="M346.6017 172.1673 C346.3357 172.1673 346.0856 172.1091 345.8616 172.002 C345.6373 171.8914 345.4521 171.742 345.3188 171.5505 C345.1762 171.359 345.108 171.1509 345.108 170.9269 C345.108 170.5597 345.2606 170.2612 345.5595 170.0274 C345.8517 169.7935 346.2512 169.644 346.758 169.5759 L348.0764 169.3908 L348.0729 169.0985 C348.0729 168.7901 347.9821 168.5594 347.8002 168.3905 C347.6055 168.2315 347.3229 168.1503 346.9395 168.1503 C346.6572 168.1503 346.4233 168.2085 346.2477 168.3191 C346.0662 168.4262 345.9491 168.5594 345.9005 168.7183 C345.8744 168.7834 345.8485 168.8258 345.8255 168.8515 C345.7899 168.8777 345.751 168.894 345.6991 168.894 L345.5822 168.894 C345.5334 168.894 345.4914 168.8777 345.4588 168.8353 C345.4165 168.8028 345.4002 168.7608 345.4002 168.7088 C345.4002 168.5855 345.4588 168.4425 345.5659 168.2767 C345.6729 168.1178 345.8485 167.9746 346.0825 167.8514 C346.316 167.7249 346.5986 167.6662 346.9395 167.6662 C347.5306 167.6662 347.956 167.8093 348.2061 168.0916 C348.4562 168.3742 348.5827 168.7151 348.5827 169.1243 L348.5863 171.8977 C348.5863 171.9564 348.5701 171.9985 348.5343 172.0309 C348.5018 172.0634 348.4594 172.0797 348.4011 172.0797 L348.2613 172.0797 C348.2029 172.0797 348.1606 172.0634 348.1284 172.0309 C348.0958 171.9985 348.0764 171.9564 348.0764 171.8977 L348.0764 171.5049 C347.9528 171.69 347.7776 171.8493 347.5436 171.9727 C347.3035 172.0991 346.995 172.1673 346.6017 172.1673 Z M346.6862 171.6837 C347.0958 171.6837 347.4267 171.5505 347.6864 171.2809 C347.9432 171.0145 348.0764 170.6316 348.0764 170.1312 L348.0764 169.8485 L347.0013 170.0012 C346.5435 170.0599 346.2025 170.1669 345.9686 170.3195 C345.7346 170.469 345.6178 170.6605 345.6178 170.8849 C345.6178 171.1445 345.7285 171.3328 345.946 171.4755 C346.1538 171.6187 346.404 171.6837 346.6862 171.6837 Z " fill-rule="evenodd" opacity="1" fill="#227DC1" fill-opacity="1" />
      </g>
      <g>
        <path d="M351.5414 172.161 C350.97 172.1641 350.5185 171.9952 350.2001 171.6543 C349.885 171.3229 349.7197 170.8555 349.7003 170.2482 L349.6935 169.9136 L349.7003 169.5826 C349.7162 168.9717 349.8818 168.5074 350.2001 168.1633 C350.5154 167.832 350.9632 167.663 351.5381 167.663 C351.9052 167.663 352.22 167.7281 352.4802 167.8546 C352.7397 167.9877 352.9316 168.1534 353.0549 168.3517 C353.1813 168.5625 353.2563 168.7706 353.2659 168.9847 C353.2758 169.0366 353.2563 169.0791 353.2138 169.1116 C353.1718 169.1537 353.1326 169.1699 353.0841 169.1699 L352.9673 169.1699 C352.9085 169.1699 352.8729 169.1537 352.8471 169.1279 C352.8242 169.1017 352.7916 169.0628 352.7659 168.9947 C352.6584 168.6862 352.4962 168.4686 352.2981 168.3386 C352.0967 168.2121 351.8465 168.1471 351.5381 168.1471 C351.1389 168.1471 350.8238 168.264 350.5899 168.5043 C350.3465 168.7477 350.2227 169.1211 350.2065 169.6214 L350.2001 169.9136 L350.2065 170.2057 C350.2263 170.7061 350.3497 171.0732 350.593 171.3134 C350.827 171.5537 351.142 171.6804 351.5414 171.6804 C351.85 171.6804 352.0998 171.6123 352.3013 171.4791 C352.4996 171.3522 352.6584 171.1346 352.7659 170.8262 C352.7916 170.7612 352.8242 170.7124 352.8504 170.6866 C352.8761 170.6605 352.9085 170.6541 352.9673 170.6541 L353.0841 170.6541 C353.1326 170.6541 353.1749 170.6704 353.217 170.7029 C353.2594 170.745 353.2758 170.7841 353.2659 170.8361 C353.2594 171.0538 353.1849 171.2614 353.0581 171.4597 C352.9347 171.6674 352.743 171.8363 352.4832 171.9595 C352.2267 172.096 351.9083 172.161 351.5414 172.161 Z " opacity="1" fill="#227DC1" fill-opacity="1" />
      </g>
      <g>
        <path d="M354.5585 172.0765 C354.4998 172.0765 354.461 172.0602 354.4254 172.0246 C354.3928 171.9921 354.3766 171.95 354.3766 171.8914 L354.3703 166.3445 C354.3703 166.2862 354.3865 166.2438 354.4187 166.2113 C354.4546 166.1756 354.4935 166.1594 354.5518 166.1594 L354.6949 166.1594 C354.7532 166.1594 354.7957 166.1756 354.8282 166.2113 C354.8607 166.2438 354.8769 166.2862 354.88 166.3445 L354.8831 169.2932 L356.7377 167.8839 C356.8317 167.8156 356.8867 167.7737 356.9229 167.7574 C356.9549 167.7507 357.0136 167.7411 357.0881 167.7411 L357.2476 167.7411 C357.2963 167.7411 357.3383 167.7574 357.3708 167.7832 C357.397 167.8156 357.4132 167.858 357.4132 167.9065 C357.4132 167.9651 357.3807 168.0234 357.3059 168.0753 L355.1984 169.6766 L357.5171 171.7387 C357.5916 171.8069 357.6241 171.8656 357.6241 171.9076 C357.6241 171.9564 357.6078 171.9985 357.5818 172.0246 C357.5495 172.0571 357.5072 172.0734 357.4584 172.0734 L357.3253 172.0734 C357.2444 172.0734 357.1858 172.0634 357.1401 172.0472 C357.1012 172.0408 357.0525 171.9985 356.9747 171.9303 L354.8831 170.0761 L354.8831 171.8914 C354.8831 171.95 354.8669 171.9921 354.8344 172.0246 C354.8019 172.0602 354.76 172.0765 354.7012 172.0765 L354.5585 172.0765 Z " opacity="1" fill="#227DC1" fill-opacity="1" />
      </g>
      <path d="M312.7429 122.4372 C315.3082 122.4372 317.8738 122.4341 320.436 122.4372 C320.4427 124.2009 320.436 125.9674 320.4396 127.7375 C320.4427 128.2212 320.5561 128.7214 320.8487 129.1144 C321.0988 129.4715 321.4755 129.7185 321.8715 129.8842 C321.956 129.91 322.0404 129.9425 322.128 129.9718 C322.3686 130.0206 322.6057 130.0951 322.8555 130.0888 C324.6061 130.0888 326.36 130.0853 328.1102 130.0888 C328.1102 131.8521 328.1133 133.6154 328.1102 135.3787 C328.1165 135.9278 328.3083 136.4701 328.6168 136.9181 C328.9839 137.4346 329.6075 137.7693 330.2438 137.753 C332.0884 137.7498 333.933 137.7498 335.7776 137.7498 C335.7906 140.3219 335.7842 142.8971 335.7842 145.4691 C333.8616 145.4724 331.9389 145.4628 330.0166 145.4755 C328.9059 145.5925 328.1557 146.6708 328.1165 147.7296 C328.1102 149.5318 328.1201 151.3375 328.1165 153.1398 C326.2786 153.1398 324.4404 153.1433 322.6021 153.1398 C322.0015 153.1496 321.3942 153.4129 321.0176 153.8965 C320.6311 154.39 320.4234 155.0267 320.4396 155.6535 C320.4458 157.3681 320.4396 159.0831 320.4458 160.7945 C317.8834 160.7945 315.3213 160.7945 312.7591 160.7976 C312.7591 158.2418 312.7555 155.686 312.7555 153.127 C314.3793 153.1334 315.9999 153.127 317.6206 153.1302 C318.5168 153.1822 319.5072 152.8864 320.0463 152.1332 C320.3032 151.7597 320.436 151.3051 320.4234 150.8567 C320.4198 149.8176 320.4265 148.775 320.4198 147.7359 C320.3679 147.0085 320.0432 146.2648 319.4358 145.8362 C319.0918 145.5925 318.6696 145.4561 318.2441 145.4724 C316.4158 145.4791 314.5839 145.4724 312.7555 145.4791 C312.7524 142.9034 312.7361 140.3282 312.7591 137.7561 C314.6132 137.7593 316.4677 137.7561 318.3186 137.7561 C319.0266 137.766 319.6892 137.3307 320.0337 136.7266 C320.2802 136.2913 320.4329 135.7914 320.4166 135.288 C320.4135 134.4015 320.4135 133.5147 320.4166 132.6251 C320.4427 131.969 320.1989 131.3098 319.7835 130.8063 C319.3546 130.3159 318.6921 130.1145 318.059 130.1015 C316.2857 130.1082 314.5157 130.105 312.7429 130.105 C312.7429 127.5488 312.7393 124.993 312.7429 122.4372M322.5375 137.8243 C322.0241 137.9024 321.5273 138.1196 321.1278 138.4543 C320.6636 138.8634 320.4523 139.4937 320.4458 140.1011 C320.4297 141.1076 320.4491 142.1109 320.4396 143.1148 C320.4329 143.6603 320.5922 144.2351 320.982 144.6347 C321.4267 145.1477 322.1086 145.3911 322.771 145.4529 C323.6285 145.4628 324.4891 145.4529 325.3498 145.4593 C326.0741 145.4886 326.8372 145.2872 327.3926 144.8035 C327.8473 144.404 328.0808 143.7998 328.0876 143.2024 C328.0907 142.134 328.0844 141.0687 328.0876 139.9968 C328.0939 139.4256 327.8536 138.8471 327.4346 138.4575 C326.9312 138.0352 326.2755 137.7819 325.6163 137.8049 C324.5898 137.818 323.5635 137.7819 322.5375 137.8243 Z " fill-rule="evenodd" opacity="1" fill="#227DC1" fill-opacity="1" />
    </g>
    <g>
      <g>
        <path d="M292.6727 427.7802 C292.0753 427.7802 291.6336 427.5887 291.3478 427.1892 C291.0552 426.7995 290.9061 426.3222 290.8899 425.7636 L290.88 425.5329 L290.8864 425.2994 C290.9061 424.7408 291.0521 424.2568 291.3442 423.864 C291.6269 423.4741 292.0685 423.2823 292.6695 423.2792 C293.2768 423.2792 293.7442 423.4968 294.0692 423.9384 L294.0658 421.9638 C294.0658 421.9055 294.0856 421.8632 294.1177 421.8311 C294.1501 421.7949 294.1926 421.7786 294.2508 421.7786 L294.394 421.7786 C294.4522 421.7786 294.4915 421.7949 294.5272 421.8311 C294.5596 421.8632 294.5756 421.9055 294.5756 421.9606 L294.5791 427.5107 C294.5791 427.5693 294.5629 427.6113 294.5303 427.6439 C294.4979 427.6763 294.4554 427.6959 294.3971 427.6959 L294.2541 427.6959 C294.1958 427.6959 294.1569 427.6763 294.1244 427.6439 C294.0887 427.6113 294.0725 427.5693 294.0725 427.5107 L294.0725 427.1209 C293.7478 427.5627 293.2799 427.7771 292.6727 427.7802 Z M292.7215 427.2966 C293.1631 427.2966 293.4878 427.1471 293.7153 426.855 C293.9392 426.5692 294.0563 426.2215 294.0725 425.8286 C294.0788 425.7699 294.0788 425.6629 294.0788 425.5039 C294.0788 425.3445 294.0788 425.2375 294.0692 425.1789 C294.0626 424.9385 294.0138 424.7115 293.913 424.4969 C293.8093 424.2892 293.6634 424.1137 293.462 423.9709 C293.2638 423.8314 293.0104 423.7631 292.7215 423.7631 C292.2698 423.7631 291.9452 423.9059 291.7375 424.1886 C291.5261 424.4807 291.4124 424.8478 291.3965 425.2994 L291.3898 425.5297 C291.3898 426.0495 291.4905 426.4749 291.6886 426.7964 C291.8901 427.1309 292.231 427.2966 292.7215 427.2966 Z " fill-rule="evenodd" opacity="1" fill="#222222" fill-opacity="1" />
      </g>
      <g>
        <path d="M297.5472 427.7738 C297.0211 427.7771 296.5958 427.6018 296.2711 427.2509 C295.9464 426.91 295.7613 426.4454 295.7189 425.8612 L295.7126 425.5265 L295.7189 425.1918 C295.7613 424.6202 295.9428 424.153 296.2711 423.802 C296.5858 423.4512 297.0112 423.2759 297.5439 423.2759 C298.1188 423.2759 298.5668 423.4675 298.9015 423.8509 C299.2197 424.2341 299.3854 424.7567 299.3854 425.4227 L299.3854 425.549 C299.3854 425.6078 299.3692 425.6498 299.3367 425.6823 C299.2943 425.7148 299.2522 425.7311 299.1939 425.7311 L296.2287 425.7342 L296.2287 425.8187 C296.2386 426.0787 296.3036 426.319 296.4138 426.543 C296.5213 426.767 296.6703 426.9521 296.8653 427.0822 C297.0537 427.2249 297.2876 427.293 297.5472 427.2899 C297.8557 427.2899 298.1025 427.2316 298.2941 427.1083 C298.4891 426.9913 298.6191 426.8744 298.7036 426.7476 C298.7555 426.6826 298.7944 426.6405 298.8202 426.6242 C298.8462 426.608 298.8851 426.598 298.9534 426.598 L299.0865 426.598 C299.1353 426.598 299.1777 426.6144 299.2134 426.6405 C299.2458 426.6663 299.2621 426.7087 299.2621 426.7476 C299.2621 426.8645 299.1873 427.0075 299.0477 427.1666 C298.8951 427.3322 298.6874 427.475 298.4304 427.592 C298.1707 427.7151 297.8719 427.7738 297.5472 427.7738 Z M298.8788 425.2669 L298.8788 425.2343 C298.8788 424.809 298.7619 424.4514 298.5185 424.1755 C298.2747 423.8995 297.95 423.76 297.5439 423.76 C297.1349 423.76 296.8165 423.9028 296.5858 424.1755 C296.3456 424.4514 296.2287 424.809 296.2287 425.2343 L296.2287 425.27 L298.8788 425.2669 Z " fill-rule="evenodd" opacity="1" fill="#222222" fill-opacity="1" />
      </g>
      <g>
        <path d="M300.681 429.2708 C300.6227 429.2744 300.5807 429.2545 300.5482 429.222 C300.5157 429.1899 300.4963 429.1476 300.4963 429.0893 L300.4927 423.5388 C300.4927 423.4807 300.5089 423.4417 300.5415 423.4059 C300.5771 423.3735 300.6164 423.3572 300.6746 423.3572 L300.8177 423.3572 C300.876 423.3572 300.918 423.3735 300.9506 423.4059 C300.983 423.4386 300.9994 423.4807 300.9994 423.5388 L300.9994 423.9321 C301.3275 423.4905 301.7918 423.2728 302.3991 423.2728 C303.0001 423.2728 303.4417 423.4643 303.7339 423.8377 C304.0165 424.2211 304.1656 424.6852 304.1855 425.2439 C304.1949 425.3026 304.1949 425.3965 304.1949 425.5202 C304.1949 425.6435 304.1949 425.7375 304.1855 425.7961 C304.1693 426.3515 304.0198 426.819 303.7371 427.1958 C303.4449 427.5788 303.0033 427.7708 302.4055 427.7708 C301.795 427.7708 301.3308 427.5563 301.0026 427.1146 L301.0061 429.0893 C301.0061 429.1476 300.9897 429.1899 300.9541 429.222 C300.9216 429.2545 300.8824 429.2708 300.8209 429.2708 L300.681 429.2708 Z M302.3536 427.2867 C302.8051 427.2867 303.1365 427.1439 303.3443 426.855 C303.5455 426.5692 303.6625 426.202 303.6788 425.7537 C303.6851 425.6954 303.6851 425.6208 303.6851 425.5202 C303.6851 425.0036 303.5845 424.5782 303.383 424.2469 C303.1848 423.9221 302.8408 423.7533 302.3503 423.7533 C301.9088 423.7565 301.5841 423.8964 301.3601 424.1886 C301.1357 424.4807 301.0187 424.8315 301.0026 425.2213 L300.9962 425.546 L301.0026 425.8707 C301.0123 426.1144 301.0612 426.3384 301.162 426.5461 C301.2626 426.7638 301.412 426.9394 301.6134 427.0789 C301.8143 427.2216 302.0614 427.2867 302.3536 427.2867 Z " fill-rule="evenodd" opacity="1" fill="#222222" fill-opacity="1" />
      </g>
      <g>
        <path d="M306.9359 427.7672 C306.4099 427.7672 305.9877 427.592 305.663 427.2446 C305.3351 426.9001 305.1532 426.4359 305.1108 425.8512 L305.1012 425.5202 L305.1108 425.1856 C305.15 424.6107 305.3351 424.1429 305.6598 423.7921 C305.9745 423.4449 306.4003 423.2697 306.9328 423.2661 C307.5076 423.2661 307.9591 423.4579 308.2902 423.8409 C308.6085 424.2242 308.7741 424.7503 308.7774 425.4159 L308.7774 425.5428 C308.7774 425.5978 308.7579 425.6404 308.7254 425.6729 C308.6834 425.7085 308.641 425.7248 308.5858 425.7248 L305.6174 425.728 L305.6205 425.8091 C305.6273 426.0689 305.6954 426.3091 305.8025 426.5366 C305.9099 426.7606 306.0626 426.9425 306.2509 427.0757 C306.4455 427.2185 306.6795 427.2834 306.9359 427.2834 C307.2444 427.2834 307.4945 427.2249 307.6864 427.0984 C307.8778 426.9815 308.011 426.8645 308.0923 426.7411 C308.1442 426.673 308.183 426.6337 308.2124 426.6144 C308.235 426.598 308.2775 426.5917 308.342 426.5917 L308.4753 426.5917 C308.5272 426.5917 308.5696 426.608 308.6021 426.6306 C308.6346 426.6568 308.6509 426.6988 308.6509 426.7411 C308.6509 426.8581 308.576 426.9977 308.4364 427.1567 C308.287 427.3223 308.076 427.4655 307.8192 427.5824 C307.5626 427.7088 307.2607 427.7672 306.9359 427.7672 Z M308.2675 425.2569 L308.2675 425.2244 C308.2675 424.7991 308.1506 424.4419 307.9104 424.166 C307.6665 423.8929 307.3419 423.7501 306.9328 423.7501 C306.5237 423.7501 306.2084 423.8929 305.9745 424.1692 C305.7343 424.4419 305.6174 424.8022 305.6174 425.2244 L305.6174 425.2601 L308.2675 425.2569 Z " fill-rule="evenodd" opacity="1" fill="#222222" fill-opacity="1" />
      </g>
      <g>
        <path d="M310.0601 427.6795 C310.0015 427.6795 309.9627 427.6632 309.927 427.6308 C309.8945 427.5983 309.8783 427.5563 309.8783 427.4979 L309.8751 423.5326 C309.8751 423.4741 309.8913 423.4318 309.9239 423.3993 C309.9563 423.3636 309.9984 423.3474 310.057 423.3474 L310.1998 423.3474 C310.2584 423.3474 310.3005 423.3636 310.333 423.3961 C310.3654 423.4318 310.3817 423.4741 310.3817 423.5293 L310.3817 423.9221 C310.5506 423.7046 310.739 423.5388 310.9565 423.4286 C311.1642 423.3216 311.4405 423.2629 311.7815 423.2629 C312.3238 423.2629 312.7493 423.4386 313.0382 423.7795 C313.3303 424.1267 313.483 424.5782 313.483 425.127 L313.4866 427.4945 C313.4866 427.5531 313.4703 427.5951 313.4342 427.6276 C313.4022 427.6602 313.3597 427.6763 313.3015 427.6763 L313.1615 427.6763 C313.1032 427.6763 313.0607 427.6602 313.0251 427.6276 C312.9926 427.5951 312.9763 427.5531 312.9763 427.4945 L312.9732 425.1694 C312.9732 424.721 312.8662 424.3705 312.6486 424.1203 C312.4246 423.8702 312.1062 423.7469 311.7002 423.7469 C311.2974 423.7469 310.9823 423.8702 310.739 424.1236 C310.4987 424.3801 310.3817 424.7309 310.3817 425.1725 L310.3849 427.4979 C310.3849 427.5563 310.3686 427.5951 310.3362 427.6308 C310.3005 427.6632 310.2616 427.6795 310.2029 427.6795 L310.0601 427.6795 Z " opacity="1" fill="#222222" fill-opacity="1" />
      </g>
      <g>
        <path d="M316.3603 427.7576 C315.7597 427.7576 315.318 427.5661 315.0355 427.1666 C314.7433 426.7768 314.5938 426.3027 314.5743 425.7442 L314.5677 425.5103 L314.5743 425.2763 C314.5906 424.7178 314.7401 424.2341 315.0323 423.8444 C315.3148 423.4512 315.7565 423.2596 316.354 423.2596 C316.9645 423.2596 317.4291 423.4741 317.7538 423.9158 L317.7538 421.9411 C317.7538 421.8829 317.77 421.8405 317.8024 421.808 C317.8382 421.7755 317.877 421.7561 317.9389 421.7561 L318.0785 421.7561 C318.1366 421.7561 318.1792 421.7723 318.2116 421.808 C318.2441 421.8405 318.2635 421.8829 318.2635 421.9411 L318.2668 427.4912 C318.2668 427.5499 318.2505 427.5887 318.218 427.6244 C318.1854 427.657 318.1435 427.6732 318.0847 427.6732 L317.942 427.6732 C317.8834 427.6732 317.8414 427.657 317.8089 427.6244 C317.7764 427.5887 317.7601 427.5499 317.7601 427.4912 L317.7601 427.0984 C317.4353 427.5401 316.9676 427.7576 316.3603 427.7576 Z M316.409 427.2736 C316.8507 427.2736 317.1758 427.1241 317.3997 426.832 C317.6237 426.5493 317.7407 426.1989 317.757 425.8091 C317.7669 425.7473 317.7669 425.6404 317.7669 425.4809 C317.7669 425.3251 317.7669 425.215 317.757 425.1594 C317.7505 424.916 317.6986 424.692 317.598 424.4744 C317.4973 424.2667 317.3478 424.091 317.1495 423.9515 C316.9482 423.8084 316.698 423.7437 316.4059 423.7437 C315.9544 423.7437 315.6296 423.8833 315.422 424.1692 C315.2142 424.4582 315.1005 424.8252 315.0842 425.2763 L315.0743 425.5103 C315.0743 426.0268 315.175 426.4521 315.3763 426.7768 C315.5746 427.1083 315.9187 427.2736 316.409 427.2736 Z " fill-rule="evenodd" opacity="1" fill="#222222" fill-opacity="1" />
      </g>
      <g>
        <path d="M321.2353 427.7545 C320.7092 427.7545 320.2834 427.5788 319.9556 427.2284 C319.634 426.8906 319.4489 426.4229 319.4068 425.8381 L319.4001 425.5071 L319.4068 425.1725 C319.4489 424.5977 319.6308 424.1299 319.9556 423.7795 C320.2739 423.4286 320.6961 423.2566 321.2317 423.2566 C321.8033 423.2566 322.2548 423.4449 322.5894 423.8282 C322.9042 424.2112 323.0731 424.7341 323.0731 425.4033 L323.0731 425.5265 C323.0731 425.5848 323.0569 425.6273 323.0242 425.6597 C322.9823 425.6954 322.9399 425.7117 322.8816 425.7117 L319.9167 425.7117 L319.9167 425.7961 C319.923 426.0558 319.9913 426.2964 320.0982 426.5204 C320.2088 426.7476 320.3584 426.9295 320.5498 427.0626 C320.7413 427.2054 320.9751 427.2705 321.2353 427.2705 C321.5405 427.2705 321.7902 427.2122 321.9821 427.0853 C322.1735 426.9683 322.3068 426.8514 322.3911 426.7281 C322.44 426.6599 322.482 426.6211 322.5081 426.6049 C322.5339 426.5854 322.5764 426.5787 322.6414 426.5787 L322.7745 426.5787 C322.8234 426.5787 322.8654 426.5949 322.9011 426.6179 C322.9335 426.6437 322.9498 426.686 322.9498 426.7281 C322.9498 426.845 322.8718 426.9846 322.7321 427.1439 C322.5827 427.3093 322.3748 427.4524 322.1154 427.5693 C321.8583 427.6959 321.5567 427.7545 321.2353 427.7545 Z M322.5632 425.2439 L322.5632 425.2113 C322.5632 424.7859 322.4462 424.4288 322.2061 424.153 C321.9627 423.8801 321.6375 423.737 321.2317 423.737 C320.8226 423.737 320.5077 423.8801 320.2739 424.156 C320.03 424.4288 319.9131 424.7892 319.9131 425.215 L319.9131 425.247 L322.5632 425.2439 Z " fill-rule="evenodd" opacity="1" fill="#222222" fill-opacity="1" />
      </g>
      <g>
        <path d="M324.3592 427.6669 C324.3008 427.6669 324.2584 427.6506 324.226 427.6181 C324.1902 427.5856 324.174 427.5432 324.174 427.4849 L324.1709 423.5194 C324.1709 423.4612 324.187 423.4187 324.2196 423.383 C324.2552 423.3505 324.2942 423.3343 324.3528 423.3343 L324.4955 423.3343 C324.5541 423.3343 324.5963 423.3505 324.6288 423.383 C324.6611 423.4187 324.6774 423.4612 324.6774 423.5163 L324.6806 423.9091 C324.8464 423.6918 325.0378 423.5261 325.2523 423.4187 C325.4601 423.3085 325.7364 423.2498 326.0773 423.2498 C326.6197 423.2498 327.0449 423.4255 327.3371 423.7664 C327.6296 424.1172 327.7791 424.5652 327.7791 425.1174 L327.7823 427.4818 C327.7823 427.5401 327.766 427.5824 327.7303 427.6146 C327.698 427.647 327.6555 427.6632 327.5973 427.6669 L327.4572 427.6669 C327.3989 427.6669 327.357 427.647 327.3243 427.6146 C327.2888 427.5824 327.2726 427.5401 327.2726 427.4818 L327.2726 425.1563 C327.2726 424.7083 327.1619 424.3574 326.9442 424.1072 C326.7202 423.857 326.4019 423.7339 325.9959 423.7339 C325.5932 423.7339 325.2784 423.8607 325.0378 424.1105 C324.7944 424.3669 324.6806 424.7178 324.6806 425.1594 L324.6842 427.4849 C324.6842 427.5432 324.6643 427.5856 324.6319 427.6181 C324.5997 427.6506 324.5573 427.6669 324.4991 427.6669 L324.3592 427.6669 Z " opacity="1" fill="#222222" fill-opacity="1" />
      </g>
      <g>
        <path d="M330.731 427.7445 C330.1562 427.7445 329.7082 427.5788 329.3899 427.2379 C329.0714 426.907 328.9059 426.4391 328.8896 425.8318 L328.88 425.4972 L328.8864 425.1625 C328.9059 424.5557 329.0714 424.0879 329.3867 423.7469 C329.7014 423.4123 330.153 423.2466 330.7278 423.2466 C331.0949 423.2466 331.4098 423.3117 331.6696 423.4386 C331.9294 423.5682 332.1177 423.737 332.2445 423.9352 C332.371 424.1429 332.4455 424.3543 332.4523 424.5684 C332.4618 424.6202 332.4455 424.6627 332.4035 424.6952 C332.3611 424.7341 332.3189 424.7535 332.2703 424.7535 L332.1534 424.7535 C332.095 424.7535 332.0626 424.7372 332.0364 424.7115 C332.0107 424.6852 331.978 424.6464 331.952 424.5782 C331.8449 424.2697 331.6855 424.0522 331.4846 423.9189 C331.2863 423.7957 331.0362 423.7306 330.7278 423.7306 C330.3282 423.7306 330.0134 423.8476 329.7796 424.0879 C329.5359 424.3281 329.4124 424.7047 329.3962 425.205 L329.3867 425.4972 L329.3962 425.7897 C329.4124 426.2865 329.5393 426.6536 329.7796 426.8969 C330.0134 427.1372 330.3314 427.2608 330.731 427.2608 C331.0395 427.2608 331.2895 427.1958 331.491 427.0626 C331.6891 426.9359 331.8481 426.7183 331.9552 426.4097 C331.9813 426.3447 332.0139 426.2964 332.0364 426.2702 C332.0626 426.2441 332.095 426.2377 332.1534 426.2377 L332.2703 426.2377 C332.3224 426.2377 332.3611 426.254 332.4035 426.2865 C332.4455 426.3285 332.4618 426.3678 332.4554 426.4197 C332.4455 426.6337 332.371 426.845 332.2477 427.0432 C332.124 427.2542 331.9325 427.4199 331.6729 427.5432 C331.4163 427.6763 331.0981 427.7445 330.731 427.7445 Z " opacity="1" fill="#222222" fill-opacity="1" />
      </g>
      <g>
        <path d="M334.1735 429.2419 C334.1312 429.2419 334.0892 429.2256 334.0566 429.1931 C334.0241 429.1575 334.0079 429.1182 334.0079 429.0762 C334.0079 429.05 334.0241 428.9918 334.0566 428.9104 L334.6961 427.4068 L333.1017 423.6593 C333.0691 423.5781 333.0528 423.5194 333.0528 423.4936 C333.0528 423.4512 333.0691 423.4091 333.1017 423.3766 C333.1341 423.3441 333.1766 423.3279 333.2186 423.3279 L333.3938 423.3279 C333.485 423.3279 333.5432 423.3668 333.5856 423.4512 L334.9886 426.7507 L336.4174 423.4481 C336.4598 423.3668 336.5248 423.3247 336.6093 423.3247 L336.7745 423.3247 C336.817 423.3247 336.859 423.341 336.8915 423.3735 C336.9272 423.4059 336.9435 423.4481 336.9435 423.4905 C336.9435 423.5163 336.9272 423.5749 336.8915 423.6558 L334.5309 429.1182 C334.4884 429.1995 334.4333 429.2419 334.3389 429.2419 L334.1735 429.2419 Z " opacity="1" fill="#222222" fill-opacity="1" />
      </g>
      <g>
        <path d="M341.0711 427.6538 C340.662 427.6538 340.3698 427.5269 340.1945 427.2769 C340.019 427.0365 339.9378 426.6957 339.9378 426.2603 L339.9346 423.8052 L339.2819 423.8052 C339.2265 423.8052 339.1846 423.7889 339.1519 423.7533 C339.1194 423.7208 339.1001 423.6787 339.1001 423.6201 L339.1001 423.5067 C339.1001 423.4481 339.1163 423.4059 339.1519 423.3735 C339.1846 423.3378 339.2233 423.3216 339.2819 423.3216 L339.9346 423.3216 L339.9314 421.9218 C339.9314 421.8632 339.9476 421.8211 339.9834 421.7885 C340.0158 421.7561 340.0579 421.7366 340.1166 421.7366 L340.2561 421.7366 C340.3147 421.7366 340.3568 421.7561 340.3892 421.7885 C340.425 421.8211 340.4413 421.8632 340.4413 421.9218 L340.4413 423.3216 L341.4739 423.3181 C341.5326 423.3181 341.5746 423.3343 341.607 423.3703 C341.6428 423.4025 341.659 423.4449 341.659 423.5031 L341.659 423.6201 C341.659 423.6787 341.6428 423.7208 341.607 423.7533 C341.5746 423.7858 341.5326 423.802 341.4739 423.802 L340.4443 423.8052 L340.4443 426.2278 C340.4443 426.5366 340.4931 426.7705 340.6038 426.9295 C340.7044 427.0853 340.8698 427.1697 341.1104 427.1697 L341.5614 427.1697 C341.6202 427.1697 341.6622 427.186 341.6947 427.2185 C341.7273 427.2509 341.7466 427.293 341.7466 427.3517 L341.7466 427.4686 C341.7466 427.5269 341.7303 427.5693 341.6947 427.6018 C341.6622 427.6343 341.6202 427.6538 341.5614 427.6538 L341.0711 427.6538 Z " opacity="1" fill="#227DC1" fill-opacity="1" />
      </g>
      <g>
        <path d="M342.7861 427.6506 C342.7274 427.6506 342.6885 427.6343 342.6529 427.6018 C342.6204 427.5693 342.6042 427.5269 342.6042 427.4686 L342.6009 423.5098 C342.6009 423.4512 342.6172 423.4091 342.6498 423.3668 C342.6822 423.3343 342.7242 423.3181 342.7829 423.3181 L342.9157 423.3181 C342.9745 423.3181 343.0163 423.3343 343.0589 423.3668 C343.0914 423.4091 343.1075 423.4512 343.1075 423.5098 L343.1107 423.8929 C343.3089 423.5098 343.6824 423.3181 344.241 423.3181 L344.5495 423.3181 C344.6078 423.3181 344.6502 423.3343 344.6826 423.3668 C344.7151 423.3993 344.7314 423.4417 344.7314 423.5 L344.7314 423.6169 C344.7345 423.6755 344.7151 423.7176 344.6826 423.7501 C344.6502 423.7826 344.6078 423.802 344.5495 423.802 L344.1922 423.802 C343.8577 423.802 343.5913 423.8995 343.3998 424.091 C343.2083 424.2825 343.1107 424.5521 343.1107 424.8835 L343.1107 427.4655 C343.1107 427.5237 343.0945 427.5661 343.062 427.6018 C343.02 427.6343 342.9775 427.6506 342.9224 427.6506 L342.7861 427.6506 Z " opacity="1" fill="#227DC1" fill-opacity="1" />
      </g>
      <g>
        <path d="M346.6017 427.7315 C346.3357 427.7315 346.0856 427.6732 345.8616 427.5661 C345.6373 427.4556 345.452 427.3061 345.3188 427.1146 C345.1762 426.9232 345.108 426.715 345.108 426.491 C345.108 426.1239 345.2606 425.8254 345.5595 425.5916 C345.8516 425.3577 346.2512 425.2082 346.758 425.14 L348.0764 424.955 L348.0729 424.6627 C348.0729 424.3543 347.9822 424.1236 347.8002 423.9547 C347.6055 423.7957 347.3229 423.7144 346.9395 423.7144 C346.6572 423.7144 346.4233 423.7728 346.2477 423.8833 C346.0662 423.9903 345.9491 424.1236 345.9005 424.2825 C345.8744 424.3475 345.8485 424.39 345.8255 424.4157 C345.7899 424.4419 345.751 424.4582 345.6991 424.4582 L345.5822 424.4582 C345.5334 424.4582 345.4914 424.4419 345.4587 424.3994 C345.4165 424.3669 345.4002 424.325 345.4002 424.273 C345.4002 424.1497 345.4587 424.0067 345.5659 423.8409 C345.6729 423.6819 345.8485 423.5388 346.0825 423.4156 C346.316 423.2891 346.5986 423.2304 346.9395 423.2304 C347.5306 423.2304 347.956 423.3735 348.2061 423.6558 C348.4562 423.9384 348.5827 424.2793 348.5827 424.6884 L348.5863 427.4619 C348.5863 427.5206 348.5701 427.5627 348.5344 427.5951 C348.5018 427.6276 348.4594 427.6439 348.4011 427.6439 L348.2613 427.6439 C348.2029 427.6439 348.1606 427.6276 348.1284 427.5951 C348.0958 427.5627 348.0764 427.5206 348.0764 427.4619 L348.0764 427.0691 C347.9528 427.2542 347.7776 427.4135 347.5436 427.5368 C347.3034 427.6632 346.9951 427.7315 346.6017 427.7315 Z M346.6862 427.2478 C347.0958 427.2478 347.4267 427.1146 347.6864 426.845 C347.9431 426.5787 348.0764 426.1957 348.0764 425.6954 L348.0764 425.4127 L347.0013 425.5653 C346.5435 425.6241 346.2026 425.7311 345.9686 425.8837 C345.7346 426.0332 345.6178 426.2247 345.6178 426.449 C345.6178 426.7087 345.7285 426.8969 345.946 427.0397 C346.1538 427.1829 346.404 427.2478 346.6862 427.2478 Z " fill-rule="evenodd" opacity="1" fill="#227DC1" fill-opacity="1" />
      </g>
      <g>
        <path d="M351.5414 427.7252 C350.9701 427.7283 350.5185 427.5594 350.2001 427.2185 C349.885 426.8871 349.7197 426.4197 349.7003 425.8124 L349.6935 425.4778 L349.7003 425.1468 C349.7162 424.5359 349.8818 424.0716 350.2001 423.7275 C350.5154 423.3961 350.9632 423.2272 351.5381 423.2272 C351.9052 423.2272 352.22 423.2922 352.4802 423.4187 C352.7397 423.5519 352.9316 423.7176 353.0549 423.9158 C353.1813 424.1267 353.2563 424.3348 353.2658 424.5489 C353.2758 424.6008 353.2563 424.6433 353.2138 424.6758 C353.1717 424.7178 353.1326 424.7341 353.0841 424.7341 L352.9672 424.7341 C352.9085 424.7341 352.8729 424.7178 352.8471 424.692 C352.8242 424.6658 352.7916 424.627 352.766 424.5588 C352.6584 424.2505 352.4962 424.0327 352.2982 423.9028 C352.0967 423.7762 351.8465 423.7113 351.5381 423.7113 C351.1389 423.7113 350.8238 423.8282 350.5899 424.0684 C350.3465 424.3119 350.2227 424.6852 350.2065 425.1856 L350.2001 425.4778 L350.2065 425.7699 C350.2263 426.2702 350.3497 426.6373 350.593 426.8776 C350.827 427.1179 351.1421 427.2446 351.5414 427.2446 C351.85 427.2446 352.0998 427.1765 352.3013 427.0432 C352.4995 426.9164 352.6584 426.6988 352.766 426.3904 C352.7916 426.3253 352.8242 426.2766 352.8504 426.2508 C352.8761 426.2247 352.9085 426.2183 352.9672 426.2183 L353.0841 426.2183 C353.1326 426.2183 353.1749 426.2346 353.2169 426.267 C353.2594 426.3091 353.2758 426.3483 353.2658 426.4003 C353.2594 426.6179 353.1848 426.8256 353.0581 427.0238 C352.9347 427.2316 352.743 427.4005 352.4831 427.5237 C352.2267 427.6602 351.9083 427.7252 351.5414 427.7252 Z " opacity="1" fill="#227DC1" fill-opacity="1" />
      </g>
      <g>
        <path d="M354.5585 427.6406 C354.4998 427.6406 354.461 427.6244 354.4254 427.5887 C354.3928 427.5563 354.3765 427.5142 354.3765 427.4556 L354.3703 421.9087 C354.3703 421.8504 354.3865 421.808 354.4187 421.7755 C354.4546 421.7398 354.4935 421.7236 354.5518 421.7236 L354.695 421.7236 C354.7532 421.7236 354.7957 421.7398 354.8282 421.7755 C354.8606 421.808 354.8768 421.8504 354.88 421.9087 L354.8831 424.8573 L356.7377 423.4481 C356.8317 423.3799 356.8867 423.3378 356.9229 423.3216 C356.9549 423.3148 357.0136 423.3053 357.0882 423.3053 L357.2476 423.3053 C357.2963 423.3053 357.3383 423.3216 357.3708 423.3474 C357.397 423.3799 357.4133 423.4222 357.4133 423.4706 C357.4133 423.5293 357.3807 423.5876 357.3059 423.6395 L355.1984 425.2407 L357.5171 427.3029 C357.5915 427.3711 357.6241 427.4297 357.6241 427.4718 C357.6241 427.5206 357.6078 427.5627 357.5818 427.5887 C357.5495 427.6213 357.5071 427.6375 357.4584 427.6375 L357.3253 427.6375 C357.2444 427.6375 357.1858 427.6276 357.1401 427.6113 C357.1012 427.605 357.0526 427.5627 356.9747 427.4945 L354.8831 425.6404 L354.8831 427.4556 C354.8831 427.5142 354.8669 427.5563 354.8344 427.5887 C354.8019 427.6244 354.76 427.6406 354.7012 427.6406 L354.5585 427.6406 Z " opacity="1" fill="#227DC1" fill-opacity="1" />
      </g>
      <path d="M312.7429 378.0014 C315.3082 378.0014 317.8739 377.9982 320.436 378.0014 C320.4427 379.7651 320.436 381.5316 320.4397 383.3017 C320.4427 383.7854 320.5561 384.2856 320.8487 384.6785 C321.0988 385.0357 321.4755 385.2826 321.8715 385.4484 C321.956 385.4742 322.0405 385.5067 322.128 385.536 C322.3686 385.5848 322.6057 385.6593 322.8555 385.6529 C324.6061 385.6529 326.3599 385.6494 328.1102 385.6529 C328.1102 387.4163 328.1133 389.1796 328.1102 390.9429 C328.1165 391.492 328.3083 392.0343 328.6168 392.4822 C328.9839 392.9988 329.6075 393.3334 330.2438 393.3172 C332.0884 393.314 333.933 393.314 335.7776 393.314 C335.7906 395.886 335.7842 398.4613 335.7842 401.0333 C333.8616 401.0366 331.9388 401.027 330.0166 401.0397 C328.9059 401.1566 328.1557 402.235 328.1165 403.2938 C328.1102 405.096 328.1201 406.9017 328.1165 408.7039 C326.2786 408.7039 324.4404 408.7075 322.6021 408.7039 C322.0015 408.7138 321.3942 408.9771 321.0176 409.4607 C320.6311 409.9542 320.4234 410.5909 320.4397 411.2177 C320.4458 412.9323 320.4397 414.6472 320.4458 416.3586 C317.8834 416.3586 315.3213 416.3586 312.7591 416.3618 C312.7591 413.806 312.7555 411.2501 312.7555 408.6913 C314.3794 408.6976 315.9999 408.6913 317.6206 408.6944 C318.5168 408.7463 319.5072 408.4505 320.0463 407.6974 C320.3032 407.3239 320.436 406.8692 320.4234 406.4209 C320.4197 405.3818 320.4265 404.3392 320.4197 403.3001 C320.3678 402.5727 320.0432 401.829 319.4358 401.4004 C319.0918 401.1566 318.6695 401.0203 318.2441 401.0366 C316.4158 401.0433 314.5838 401.0366 312.7555 401.0433 C312.7524 398.4676 312.736 395.8924 312.7591 393.3203 C314.6132 393.3234 316.4677 393.3203 318.3186 393.3203 C319.0266 393.3302 319.6891 392.895 320.0337 392.2908 C320.2803 391.8555 320.4329 391.3556 320.4166 390.8521 C320.4135 389.9657 320.4135 389.0789 320.4166 388.1893 C320.4427 387.5332 320.1989 386.874 319.7834 386.3705 C319.3546 385.8801 318.6921 385.6787 318.059 385.6656 C316.2857 385.6723 314.5157 385.6692 312.7429 385.6692 C312.7429 383.113 312.7393 380.5572 312.7429 378.0014M322.5375 393.3885 C322.0242 393.4666 321.5274 393.6838 321.1277 394.0184 C320.6636 394.4276 320.4523 395.0579 320.4458 395.6652 C320.4297 396.6718 320.4491 397.6751 320.4397 398.679 C320.4329 399.2245 320.5922 399.7993 320.982 400.1989 C321.4267 400.7118 322.1086 400.9553 322.771 401.017 C323.6285 401.027 324.4891 401.017 325.3498 401.0235 C326.0741 401.0527 326.8372 400.8514 327.3926 400.3677 C327.8473 399.9681 328.0807 399.364 328.0876 398.7666 C328.0907 397.6982 328.0844 396.6329 328.0876 395.561 C328.0939 394.9897 327.8536 394.4113 327.4346 394.0216 C326.9312 393.5994 326.2755 393.346 325.6163 393.3691 C324.5898 393.3822 323.5635 393.346 322.5375 393.3885 Z " fill-rule="evenodd" opacity="1" fill="#227DC1" fill-opacity="1" />
    </g>
    <g>
      <path d="M750.1948 195.728 C750.1948 195.728 750.1948 195.728 750.1948 195.728 C750.1948 195.5715 750.1634 195.4247 750.1073 195.2887 C749.11 189.7446 745.2191 185.2083 740.0447 183.3206 C743.4047 181.4363 745.6763 177.8459 745.6763 173.7213 C745.6763 167.6466 740.7492 162.72 734.6711 162.72 C728.5927 162.72 723.6661 167.6466 723.6661 173.725 C723.6661 177.8496 725.9373 181.4398 729.2977 183.3239 C724.0984 185.2188 720.1941 189.7896 719.2205 195.3722 C719.1927 195.4563 719.1753 195.5435 719.1684 195.6345 C719.1646 195.6654 719.1542 195.7004 719.1475 195.7318 L719.1578 195.7318 L719.1578 195.7318 C719.1578 196.3882 719.6882 196.9182 720.3441 196.9182 C720.9999 196.9182 721.5306 196.3882 721.5306 195.7318 L721.5306 195.7318 L721.5342 195.7318 C722.6504 189.4794 728.1011 184.7268 734.6746 184.7268 C734.6746 184.7268 734.6746 184.7268 734.6746 184.7268 C734.6746 184.7268 734.6746 184.7268 734.6746 184.7268 C741.2483 184.7268 746.6984 189.4794 747.8151 195.7318 L747.829 195.7318 C747.829 195.7318 747.829 195.7318 747.829 195.7318 C747.829 196.3844 748.3591 196.9145 749.012 196.9145 C749.6646 196.9145 750.1948 196.3844 750.1948 195.728 C750.1948 195.7318 750.1948 195.7318 750.1948 195.728 L750.1948 195.728 Z M726.0247 173.725 C726.0247 168.9519 729.8943 165.0787 734.6711 165.0787 C739.4443 165.0787 743.3175 168.9484 743.3175 173.725 C743.3175 178.4984 739.4478 182.3681 734.6746 182.3681 C734.6746 182.3681 734.6746 182.3681 734.6711 182.3681 C734.6711 182.3681 734.6711 182.3681 734.6673 182.3681 C729.8943 182.3681 726.0247 178.4984 726.0247 173.725 Z " fill-rule="evenodd" opacity="1" fill="#227DC1" fill-opacity="1" />
    </g>
    <g>
      <path d="M750.9031 421.088 C750.9031 421.088 750.9031 421.088 750.9031 421.088 C750.9031 420.9315 750.8721 420.7847 750.816 420.6487 C749.8188 415.1046 745.9279 410.5682 740.7533 408.6806 C744.1135 406.7962 746.3851 403.2059 746.3851 399.0813 C746.3851 393.0066 741.4575 388.08 735.3799 388.08 C729.301 388.08 724.3747 393.0066 724.3747 399.0851 C724.3747 403.2096 726.6456 406.7998 730.0059 408.6839 C724.8067 410.5788 720.9029 415.1495 719.929 420.7321 C719.9012 420.8163 719.8837 420.9036 719.8769 420.9944 C719.8731 421.0254 719.8627 421.0604 719.856 421.0918 L719.8663 421.0918 L719.8663 421.0918 C719.8663 421.7481 720.3967 422.2783 721.0526 422.2783 C721.7086 422.2783 722.2392 421.7481 722.2392 421.0918 L722.2392 421.0918 L722.2428 421.0918 C723.3588 414.8394 728.8092 410.0868 735.3828 410.0868 C735.3828 410.0868 735.3828 410.0868 735.3828 410.0868 C735.3828 410.0868 735.3828 410.0868 735.3828 410.0868 C741.9572 410.0868 747.4067 414.8394 748.5236 421.0918 L748.5372 421.0918 C748.5372 421.0918 748.5372 421.0918 748.5372 421.0918 C748.5372 421.7444 749.0678 422.2745 749.7202 422.2745 C750.3732 422.2745 750.9031 421.7444 750.9031 421.088 C750.9031 421.0918 750.9031 421.0918 750.9031 421.088 L750.9031 421.088 Z M726.7335 399.0851 C726.7335 394.3119 730.6027 390.4386 735.3799 390.4386 C740.1528 390.4386 744.0256 394.3084 744.0256 399.0851 C744.0256 403.8583 740.1564 407.7281 735.3828 407.7281 C735.3828 407.7281 735.3828 407.7281 735.3799 407.7281 C735.3799 407.7281 735.3799 407.7281 735.3755 407.7281 C730.6027 407.7281 726.7335 403.8583 726.7335 399.0851 Z " fill-rule="evenodd" opacity="1" fill="#227DC1" fill-opacity="1" />
    </g>
  </g>
</svg>